# Blender v3.5.0 OBJ File: 'Shaft.blend'
# www.blender.org
o Drive_Shaft_12_(276-1149)(1)_Drive_Shaft_12_(276-1149)(1).001
v 0.187132 0.181030 -11.990971
v 0.182578 0.186291 -11.990360
v 0.177749 0.187576 -11.992983
v 0.187492 0.173388 -11.995428
v 0.152627 0.187514 -11.999960
v 0.178861 0.174685 -11.998530
v 0.179525 0.164922 -11.999975
v 0.187494 0.155574 -11.999847
v 0.161544 0.187521 -11.998829
v 0.170814 0.187509 -11.996531
v 0.186265 0.182605 -0.009777
v 0.181011 0.187156 -0.009171
v 0.187549 0.177761 -0.007146
v 0.187499 0.097947 -0.000184
v 0.187498 0.081952 -11.997511
v 0.187494 0.076679 -0.004700
v 0.187493 0.084516 -0.002146
v 0.187486 0.097566 -11.999978
v 0.187493 0.161583 -0.001310
v 0.187497 0.150394 -0.000148
v 0.187500 0.171969 -0.004180
v 0.062503 0.150426 -11.999987
v 0.073603 0.080721 -11.999985
v 0.099568 0.062531 -11.999985
v 0.152122 0.187525 -0.000187
v 0.173348 0.187521 -0.004701
v 0.165511 0.187520 -0.002146
v 0.088444 0.187520 -0.001310
v 0.097919 0.187526 -11.999953
v 0.084489 0.187521 -11.997992
v 0.099602 0.187524 -0.000151
v 0.076652 0.187522 -11.995438
v 0.074711 0.187667 -0.005616
v 0.169307 0.176424 -0.000153
v 0.179459 0.176689 -0.002387
v 0.073617 0.169323 -0.000149
v 0.176383 0.080731 -0.000149
v 0.150391 0.062531 -0.000153
v 0.062503 0.099661 -0.000148
v 0.078758 0.075750 -0.000138
v 0.179811 0.062677 -0.008373
v 0.187396 0.070605 -0.008231
v 0.161544 0.062534 -0.001308
v 0.176662 0.070569 -0.002386
v 0.185138 0.065861 -0.010191
v 0.171947 0.062527 -0.004181
v 0.184162 0.064884 -11.989946
v 0.187271 0.069842 -11.991428
v 0.179480 0.062642 -11.991846
v 0.152121 0.062530 -11.999929
v 0.164804 0.070455 -11.999979
v 0.169034 0.062534 -11.997146
v 0.180857 0.068922 -11.995323
v 0.179437 0.077369 -11.998875
v 0.062502 0.152107 -0.000184
v 0.062506 0.173375 -0.004700
v 0.062500 0.171969 -11.995957
v 0.062508 0.161584 -11.998827
v 0.062507 0.165538 -0.002146
v 0.062508 0.088471 -0.001310
v 0.062502 0.097988 -11.999957
v 0.062503 0.080984 -11.997147
v 0.062500 0.078086 -0.004180
v 0.070578 0.187424 -11.991906
v 0.065834 0.185166 -11.989946
v 0.062650 0.179839 -11.991766
v 0.080704 0.176411 -11.999989
v 0.070541 0.176690 -11.997751
v 0.088544 0.062528 -0.001345
v 0.077978 0.062527 -0.004210
v 0.078059 0.062528 -11.995957
v 0.088444 0.062535 -11.998827
v 0.099329 0.062529 -0.000161
v 0.066035 0.064720 -11.989969
v 0.062709 0.069843 -11.991444
v 0.070571 0.062646 -11.991887
v 0.073338 0.070569 -11.997751
v 0.068441 0.068743 -11.994764
v 0.067422 0.186292 -0.009777
v 0.062871 0.181038 -0.009171
v 0.073338 0.179486 -0.002387
v 0.069815 0.062736 -0.008693
v 0.064692 0.066062 -0.010168
v 0.062618 0.070598 -0.008250
v 0.068715 0.068468 -0.005373
v 0.072230 0.071957 -0.002238
vn 0.5104 0.5210 -0.6842
vn 0.1243 0.1450 -0.9816
vn 0.1991 0.1567 -0.9674
vn 0.3594 0.2247 -0.9057
vn 0.3628 0.3617 -0.8588
vn 0.4099 0.4209 -0.8092
vn 0.4803 0.4587 -0.7476
vn 0.1285 0.1537 -0.9797
vn 0.2309 0.2896 -0.9289
vn 0.6548 0.7558 0.0000
vn 0.2572 0.9664 -0.0000
vn 0.7561 0.6545 -0.0000
vn 0.9666 0.2563 0.0000
vn 0.9999 -0.0162 -0.0000
vn 0.9998 -0.0188 -0.0000
vn 1.0000 0.0002 0.0000
vn 1.0000 -0.0004 0.0000
vn 1.0000 0.0008 -0.0000
vn 1.0000 0.0000 -0.0000
vn 1.0000 0.0004 -0.0000
vn 1.0000 0.0001 0.0000
vn 1.0000 -0.0007 -0.0000
vn 0.9989 0.0470 0.0000
vn 1.0000 -0.0085 -0.0000
vn 1.0000 -0.0001 -0.0000
vn 0.0000 -0.0001 -1.0000
vn 0.0019 0.0029 -1.0000
vn 0.0011 0.0019 -1.0000
vn 0.0001 -0.0000 -1.0000
vn -0.0001 -0.0037 -1.0000
vn -0.0419 -0.0497 -0.9979
vn 0.0020 0.0023 -1.0000
vn 0.0011 0.0014 -1.0000
vn -0.0021 -0.0028 -1.0000
vn 0.0001 -0.0006 -1.0000
vn 0.0475 0.9989 -0.0000
vn -0.0097 1.0000 0.0000
vn -0.0002 1.0000 0.0000
vn 0.0012 1.0000 -0.0000
vn 0.0004 1.0000 -0.0000
vn -0.0008 1.0000 -0.0000
vn -0.0000 1.0000 0.0000
vn -0.0004 1.0000 0.0000
vn 0.0002 1.0000 0.0000
vn 0.0107 0.9999 -0.0000
vn -0.0162 0.9999 -0.0000
vn 0.1412 0.2216 0.9649
vn 0.5207 0.5099 0.6848
vn 0.2027 0.2399 0.9494
vn 0.2899 0.3535 0.8894
vn 0.4214 0.4105 0.8087
vn 0.4589 0.4804 0.7474
vn 0.2070 0.1786 0.9619
vn 0.4214 0.4105 0.8086
vn 0.1460 0.1022 0.9840
vn 0.3480 0.2495 0.9037
vn -0.0035 -0.0023 1.0000
vn 0.0007 0.0017 1.0000
vn -0.0003 -0.0007 1.0000
vn -0.0015 -0.0011 1.0000
vn -0.0001 -0.0001 1.0000
vn -0.0002 -0.0005 1.0000
vn 0.0025 0.0021 1.0000
vn 0.0003 0.0007 1.0000
vn 0.0000 0.0000 1.0000
vn 0.0015 0.0011 1.0000
vn 0.2214 -0.1410 0.9649
vn 0.5395 -0.5279 0.6559
vn 0.2396 -0.2024 0.9495
vn 0.3535 -0.2898 0.8894
vn 0.4171 -0.4378 0.7965
vn 0.4583 -0.4522 0.7652
vn 0.1785 -0.2068 0.9619
vn 0.4310 -0.4298 0.7934
vn 0.1020 -0.1458 0.9840
vn 0.2494 -0.3480 0.9037
vn 0.8472 -0.5313 -0.0000
vn 0.9029 -0.4298 0.0000
vn 0.5131 -0.8584 0.0000
vn 0.4320 -0.9019 -0.0000
vn 0.1571 -0.2572 -0.9535
vn 0.3936 -0.5098 -0.7650
vn 0.5243 -0.5283 -0.6679
vn 0.3122 -0.3231 -0.8934
vn 0.1860 -0.2414 -0.9524
vn 0.5005 -0.5008 -0.7062
vn 0.1234 -0.1030 -0.9870
vn 0.3310 -0.3179 -0.8885
vn 0.5179 -0.3917 -0.7605
vn 0.2475 -0.1510 -0.9570
vn -0.9989 0.0475 -0.0000
vn -0.9998 0.0190 0.0000
vn -1.0000 -0.0002 0.0000
vn -1.0000 -0.0007 0.0000
vn -1.0000 0.0004 -0.0000
vn -1.0000 -0.0000 0.0000
vn -1.0000 -0.0004 0.0000
vn -1.0000 -0.0001 0.0000
vn -1.0000 0.0007 -0.0000
vn -0.9999 -0.0157 -0.0000
vn -0.9998 -0.0185 -0.0000
vn -0.5281 0.5395 -0.6558
vn -0.1411 0.2215 -0.9649
vn -0.2024 0.2397 -0.9495
vn -0.2900 0.3534 -0.8894
vn -0.4376 0.4171 -0.7966
vn -0.4520 0.4586 -0.7651
vn -0.2069 0.1785 -0.9619
vn -0.4299 0.4308 -0.7935
vn -0.1461 0.1023 -0.9840
vn -0.3481 0.2494 -0.9036
vn -0.0256 -0.9997 -0.0000
vn -0.0157 -0.9999 0.0000
vn 0.0001 -1.0000 -0.0000
vn 0.0007 -1.0000 -0.0000
vn -0.0004 -1.0000 -0.0000
vn 0.0000 -1.0000 0.0000
vn 0.0003 -1.0000 0.0000
vn 0.0002 -1.0000 0.0000
vn -0.0007 -1.0000 -0.0000
vn 0.0191 -0.9998 0.0000
vn 0.0103 -0.9999 -0.0000
vn -0.2481 -0.1580 -0.9558
vn -0.5241 -0.5319 -0.6652
vn -0.5157 -0.3979 -0.7588
vn -0.5032 -0.5063 -0.7003
vn -0.2471 -0.2020 -0.9477
vn -0.3874 -0.3536 -0.8514
vn -0.1787 -0.2070 -0.9619
vn -0.3633 -0.4010 -0.8410
vn -0.4189 -0.5031 -0.7559
vn -0.1024 -0.1463 -0.9839
vn -0.2495 -0.3480 -0.9037
vn -0.7558 0.6548 0.0000
vn -0.8584 0.5131 -0.0000
vn -0.4298 0.9029 -0.0000
vn -0.1854 0.9827 0.0000
vn -0.2214 0.1410 0.9649
vn -0.4968 0.5113 0.7013
vn -0.2396 0.2025 0.9495
vn -0.3535 0.2898 0.8894
vn -0.3990 0.3938 0.8281
vn -0.4811 0.4588 0.7470
vn -0.1786 0.2069 0.9619
vn -0.1023 0.1461 0.9840
vn -0.2713 0.3924 0.8788
vn -0.5318 -0.5243 0.6650
vn -0.5063 -0.5029 0.7005
vn -0.4232 -0.5136 0.7464
vn -0.1800 -0.2208 0.9586
vn -0.2460 -0.3397 0.9078
vn -0.1075 -0.1690 0.9797
vn -0.3602 -0.3961 0.8446
vn -0.2072 -0.1761 0.9623
vn -0.3956 -0.3605 0.8447
vn -0.5030 -0.4189 0.7560
vn -0.1508 -0.1021 0.9833
vn -0.3387 -0.2504 0.9069
vn -0.5445 -0.8387 0.0000
vn -0.4158 -0.9094 -0.0000
vn -0.8388 -0.5445 -0.0000
vn -0.9094 -0.4158 0.0000
s off
f 2//1 1//1 3//1
f 5//2 9//2 6//2
f 6//3 8//3 7//3
f 4//4 8//4 6//4
f 4//5 6//5 10//5
f 4//6 10//6 3//6
f 3//7 1//7 4//7
f 5//8 6//8 7//8
f 6//9 9//9 10//9
f 11//10 2//10 12//10
f 2//11 3//11 12//11
f 11//12 1//12 2//12
f 1//13 11//13 13//13
f 15//14 16//14 42//14
f 15//15 42//15 48//15
f 17//16 16//16 15//16
f 15//17 14//17 17//17
f 14//18 15//18 18//18
f 20//19 14//19 8//19
f 19//20 20//20 8//20
f 4//21 19//21 8//21
f 4//22 21//22 19//22
f 21//23 4//23 1//23
f 13//24 21//24 1//24
f 8//25 14//25 18//25
f 67//26 51//26 22//26
f 24//27 23//27 61//27
f 24//28 61//28 50//28
f 18//29 51//29 67//29
f 5//30 8//30 29//30
f 5//31 7//31 8//31
f 8//32 18//32 29//32
f 18//33 67//33 29//33
f 51//34 50//34 22//34
f 50//35 61//35 22//35
f 10//36 26//36 12//36
f 10//37 12//37 3//37
f 27//38 26//38 9//38
f 10//39 9//39 26//39
f 9//40 25//40 27//40
f 25//41 9//41 5//41
f 31//42 25//42 29//42
f 28//43 29//43 30//43
f 28//43 31//43 29//43
f 32//44 28//44 30//44
f 32//45 33//45 28//45
f 33//46 32//46 64//46
f 29//44 25//44 5//44
f 27//47 25//47 34//47
f 13//48 11//48 12//48
f 34//49 35//49 27//49
f 26//50 27//50 35//50
f 26//51 35//51 13//51
f 13//52 12//52 26//52
f 35//53 34//53 19//53
f 21//54 13//54 35//54
f 34//55 20//55 19//55
f 21//56 35//56 19//56
f 20//57 34//57 25//57
f 31//58 20//58 25//58
f 31//59 14//59 20//59
f 55//60 38//60 36//60
f 37//61 36//61 38//61
f 73//62 38//62 39//62
f 73//63 39//63 40//63
f 39//64 38//64 55//64
f 31//65 36//65 37//65
f 14//66 31//66 37//66
f 17//67 14//67 37//67
f 41//68 45//68 42//68
f 37//69 44//69 17//69
f 16//70 17//70 44//70
f 16//71 44//71 41//71
f 41//72 42//72 16//72
f 44//73 37//73 43//73
f 46//74 41//74 44//74
f 37//75 38//75 43//75
f 46//76 44//76 43//76
f 48//77 45//77 47//77
f 42//78 45//78 48//78
f 45//79 41//79 47//79
f 41//80 49//80 47//80
f 50//81 51//81 52//81
f 52//82 53//82 49//82
f 48//83 47//83 49//83
f 52//84 54//84 53//84
f 51//85 54//85 52//85
f 49//86 53//86 48//86
f 18//87 54//87 51//87
f 53//88 54//88 15//88
f 53//89 15//89 48//89
f 18//90 15//90 54//90
f 56//91 80//91 57//91
f 57//92 80//92 66//92
f 56//93 58//93 59//93
f 58//94 56//94 57//94
f 55//95 59//95 58//95
f 55//95 58//95 22//95
f 39//96 55//96 61//96
f 60//97 39//97 61//97
f 62//98 60//98 61//98
f 63//99 60//99 62//99
f 63//100 75//100 84//100
f 75//101 63//101 62//101
f 55//96 22//96 61//96
f 64//102 66//102 65//102
f 29//103 67//103 30//103
f 67//104 68//104 30//104
f 32//105 30//105 68//105
f 32//106 68//106 66//106
f 66//107 64//107 32//107
f 68//108 67//108 58//108
f 57//109 66//109 68//109
f 67//110 22//110 58//110
f 57//111 68//111 58//111
f 70//112 82//112 71//112
f 71//113 82//113 76//113
f 70//114 72//114 69//114
f 72//115 70//115 71//115
f 24//114 73//114 69//114
f 69//116 72//116 24//116
f 38//117 73//117 50//117
f 43//118 38//118 50//118
f 52//119 43//119 50//119
f 46//120 43//120 52//120
f 46//121 49//121 41//121
f 49//122 46//122 52//122
f 73//117 24//117 50//117
f 62//123 61//123 23//123
f 74//124 75//124 76//124
f 78//125 75//125 62//125
f 78//126 76//126 75//126
f 23//127 77//127 62//127
f 78//128 62//128 77//128
f 77//129 23//129 72//129
f 71//130 78//130 77//130
f 78//131 71//131 76//131
f 23//132 24//132 72//132
f 71//133 77//133 72//133
f 79//134 65//134 80//134
f 66//135 80//135 65//135
f 79//136 64//136 65//136
f 64//137 79//137 33//137
f 59//138 55//138 36//138
f 33//139 79//139 80//139
f 36//140 81//140 59//140
f 56//141 59//141 81//141
f 56//142 81//142 33//142
f 33//143 80//143 56//143
f 81//144 36//144 28//144
f 36//145 31//145 28//145
f 33//146 81//146 28//146
f 84//147 83//147 82//147
f 84//148 82//148 85//148
f 85//149 82//149 70//149
f 86//150 69//150 40//150
f 70//151 69//151 86//151
f 40//152 69//152 73//152
f 85//153 70//153 86//153
f 86//154 40//154 60//154
f 63//155 85//155 86//155
f 85//156 63//156 84//156
f 40//157 39//157 60//157
f 63//158 86//158 60//158
f 74//159 82//159 83//159
f 82//160 74//160 76//160
f 74//161 83//161 75//161
f 84//162 75//162 83//162
