# Blender v3.5.0 OBJ File: 'spacer.blend'
# www.blender.org
o 1_2_Nylon_Spacer_(275-1066-004)
v 0.004851 0.229221 -0.500519
v 0.158373 0.234166 -0.500519
v 0.007697 0.207598 -0.500519
v 0.210487 0.497212 -0.500519
v 0.232111 0.500059 -0.500519
v 0.245445 0.347641 -0.500519
v 0.160205 0.225904 -0.500519
v 0.012418 0.186305 -0.500519
v 0.003899 0.251010 -0.500519
v 0.157269 0.242556 -0.500519
v 0.162749 0.217834 -0.500519
v 0.018976 0.165505 -0.500519
v 0.156899 0.251010 -0.500519
v 0.004851 0.272799 -0.500519
v 0.165988 0.210016 -0.500519
v 0.027322 0.145355 -0.500519
v 0.007697 0.294422 -0.500519
v 0.157269 0.259464 -0.500519
v 0.169895 0.202510 -0.500519
v 0.037393 0.126010 -0.500519
v 0.012418 0.315715 -0.500519
v 0.158373 0.267854 -0.500519
v 0.160205 0.276115 -0.500519
v 0.018976 0.336515 -0.500519
v 0.027322 0.356664 -0.500519
v 0.162749 0.284186 -0.500519
v 0.174442 0.195373 -0.500519
v 0.049111 0.107616 -0.500519
v 0.165988 0.292004 -0.500519
v 0.037393 0.376010 -0.500519
v 0.179593 0.188659 -0.500519
v 0.062388 0.090313 -0.500519
v 0.049111 0.394404 -0.500519
v 0.169895 0.299510 -0.500519
v 0.185310 0.182420 -0.500519
v 0.077123 0.074233 -0.500519
v 0.062388 0.411707 -0.500519
v 0.174442 0.306647 -0.500519
v 0.093202 0.059499 -0.500519
v 0.191549 0.176703 -0.500519
v 0.191549 0.325316 -0.500519
v 0.093202 0.442521 -0.500519
v 0.198263 0.330468 -0.500519
v 0.128899 0.034503 -0.500519
v 0.198263 0.171552 -0.500519
v 0.205399 0.167005 -0.500519
v 0.205399 0.335014 -0.500519
v 0.128899 0.467516 -0.500519
v 0.212905 0.338922 -0.500519
v 0.220724 0.159860 -0.500519
v 0.228794 0.157315 -0.500519
v 0.189195 0.009528 -0.500519
v 0.220724 0.342160 -0.500519
v 0.148245 0.477587 -0.500519
v 0.168394 0.485933 -0.500519
v 0.253899 0.154010 -0.500519
v 0.253899 0.001010 -0.500519
v 0.245445 0.154379 -0.500519
v 0.287075 0.159860 -0.500519
v 0.294893 0.163098 -0.500519
v 0.359554 0.024433 -0.500519
v 0.279005 0.157315 -0.500519
v 0.318604 0.009528 -0.500519
v 0.270743 0.155483 -0.500519
v 0.253899 0.348010 -0.500519
v 0.302400 0.167005 -0.500519
v 0.309536 0.171552 -0.500519
v 0.397294 0.046222 -0.500519
v 0.297312 0.497212 -0.500519
v 0.279005 0.344705 -0.500519
v 0.270743 0.346536 -0.500519
v 0.445411 0.090313 -0.500519
v 0.430676 0.074233 -0.500519
v 0.328206 0.188659 -0.500519
v 0.378900 0.467516 -0.500519
v 0.397294 0.455798 -0.500519
v 0.309536 0.330468 -0.500519
v 0.470406 0.126010 -0.500519
v 0.341811 0.210016 -0.500519
v 0.480477 0.145355 -0.500519
v 0.458688 0.394404 -0.500519
v 0.470406 0.376010 -0.500519
v 0.333357 0.306647 -0.500519
v 0.500102 0.207598 -0.500519
v 0.349426 0.234166 -0.500519
v 0.350530 0.242556 -0.500519
v 0.495381 0.315715 -0.500519
v 0.500102 0.294422 -0.500519
v 0.347594 0.276115 -0.500519
v 0.337904 0.299510 -0.500519
v 0.480477 0.356664 -0.500519
v 0.341811 0.292004 -0.500519
v 0.488823 0.336515 -0.500519
v 0.345050 0.284186 -0.500519
v 0.502948 0.229221 -0.500519
v 0.350900 0.251010 -0.500519
v 0.503900 0.251010 -0.500519
v 0.502948 0.272799 -0.500519
v 0.350530 0.259464 -0.500519
v 0.349426 0.267854 -0.500519
v 0.316250 0.325316 -0.500519
v 0.414596 0.442521 -0.500519
v 0.322489 0.319599 -0.500519
v 0.445411 0.411707 -0.500519
v 0.328206 0.313360 -0.500519
v 0.345050 0.217834 -0.500519
v 0.488823 0.165505 -0.500519
v 0.495381 0.186305 -0.500519
v 0.347594 0.225904 -0.500519
v 0.318604 0.492491 -0.500519
v 0.339405 0.485933 -0.500519
v 0.287075 0.342160 -0.500519
v 0.359554 0.477587 -0.500519
v 0.302400 0.335014 -0.500519
v 0.294893 0.338922 -0.500519
v 0.458688 0.107616 -0.500519
v 0.333357 0.195373 -0.500519
v 0.337904 0.202510 -0.500519
v 0.253899 0.501010 -0.500519
v 0.275688 0.500059 -0.500519
v 0.262354 0.347641 -0.500519
v 0.316250 0.176703 -0.500519
v 0.414596 0.059499 -0.500519
v 0.322489 0.182420 -0.500519
v 0.237056 0.346536 -0.500519
v 0.339405 0.016087 -0.500519
v 0.378900 0.034503 -0.500519
v 0.228794 0.344705 -0.500519
v 0.189195 0.492491 -0.500519
v 0.275688 0.001961 -0.500519
v 0.262354 0.154379 -0.500519
v 0.297312 0.004808 -0.500519
v 0.232111 0.001961 -0.500519
v 0.237056 0.155483 -0.500519
v 0.110505 0.455798 -0.500519
v 0.210487 0.004808 -0.500519
v 0.212905 0.163098 -0.500519
v 0.168394 0.016087 -0.500519
v 0.077123 0.427787 -0.500519
v 0.185310 0.319599 -0.500519
v 0.148245 0.024433 -0.500519
v 0.110505 0.046222 -0.500519
v 0.179593 0.313360 -0.500519
v 0.430676 0.427787 -0.500519
v 0.253899 0.501010 -0.000518
v 0.189195 0.492491 -0.000518
v 0.210487 0.497212 -0.000518
v 0.232111 0.500059 -0.000518
v 0.128899 0.467516 -0.000518
v 0.168394 0.485933 -0.000518
v 0.148245 0.477587 -0.000518
v 0.077123 0.427787 -0.000518
v 0.093202 0.442521 -0.000518
v 0.110505 0.455798 -0.000518
v 0.037393 0.376010 -0.000518
v 0.049111 0.394404 -0.000518
v 0.062388 0.411707 -0.000518
v 0.012418 0.315715 -0.000518
v 0.027322 0.356664 -0.000518
v 0.018976 0.336515 -0.000518
v 0.003899 0.251010 -0.000518
v 0.004851 0.272799 -0.000518
v 0.007697 0.294422 -0.000518
v 0.012418 0.186305 -0.000518
v 0.007697 0.207598 -0.000518
v 0.004851 0.229221 -0.000518
v 0.037393 0.126010 -0.000518
v 0.018976 0.165505 -0.000518
v 0.027322 0.145355 -0.000518
v 0.077123 0.074233 -0.000518
v 0.062388 0.090313 -0.000518
v 0.049111 0.107616 -0.000518
v 0.093202 0.059499 -0.000518
v 0.110505 0.046222 -0.000518
v 0.128899 0.034503 -0.000518
v 0.148245 0.024433 -0.000518
v 0.168394 0.016087 -0.000518
v 0.189195 0.009528 -0.000518
v 0.210487 0.004808 -0.000518
v 0.232111 0.001961 -0.000518
v 0.253899 0.001010 -0.000518
v 0.503900 0.251010 -0.000518
v 0.502948 0.272799 -0.000518
v 0.500102 0.294422 -0.000518
v 0.495381 0.315715 -0.000518
v 0.488823 0.336515 -0.000518
v 0.480477 0.356664 -0.000518
v 0.470406 0.376010 -0.000518
v 0.458688 0.394404 -0.000518
v 0.445411 0.411707 -0.000518
v 0.430676 0.427787 -0.000518
v 0.414596 0.442521 -0.000518
v 0.397294 0.455798 -0.000518
v 0.378900 0.467516 -0.000518
v 0.359554 0.477587 -0.000518
v 0.339405 0.485933 -0.000518
v 0.318604 0.492491 -0.000518
v 0.297312 0.497212 -0.000518
v 0.275688 0.500059 -0.000518
v 0.502948 0.229221 -0.000518
v 0.500102 0.207598 -0.000518
v 0.495381 0.186305 -0.000518
v 0.488823 0.165505 -0.000518
v 0.480477 0.145355 -0.000518
v 0.470406 0.126010 -0.000518
v 0.458688 0.107616 -0.000518
v 0.445411 0.090313 -0.000518
v 0.430676 0.074233 -0.000518
v 0.414596 0.059499 -0.000518
v 0.397294 0.046222 -0.000518
v 0.378900 0.034503 -0.000518
v 0.359554 0.024433 -0.000518
v 0.339405 0.016087 -0.000518
v 0.318604 0.009528 -0.000518
v 0.297312 0.004808 -0.000518
v 0.275688 0.001961 -0.000518
v 0.237056 0.155483 -0.000518
v 0.245445 0.154379 -0.000518
v 0.253899 0.154010 -0.000518
v 0.212905 0.163098 -0.000518
v 0.220724 0.159860 -0.000518
v 0.228794 0.157315 -0.000518
v 0.191549 0.176703 -0.000518
v 0.198263 0.171552 -0.000518
v 0.205399 0.167005 -0.000518
v 0.174442 0.195373 -0.000518
v 0.179593 0.188659 -0.000518
v 0.185310 0.182420 -0.000518
v 0.162749 0.217834 -0.000518
v 0.169895 0.202510 -0.000518
v 0.165988 0.210016 -0.000518
v 0.157269 0.242556 -0.000518
v 0.158373 0.234166 -0.000518
v 0.160205 0.225904 -0.000518
v 0.158373 0.267854 -0.000518
v 0.157269 0.259464 -0.000518
v 0.156899 0.251010 -0.000518
v 0.165988 0.292004 -0.000518
v 0.160205 0.276115 -0.000518
v 0.162749 0.284186 -0.000518
v 0.179593 0.313360 -0.000518
v 0.174442 0.306647 -0.000518
v 0.169895 0.299510 -0.000518
v 0.191549 0.325316 -0.000518
v 0.185310 0.319599 -0.000518
v 0.198263 0.330468 -0.000518
v 0.205399 0.335014 -0.000518
v 0.212905 0.338922 -0.000518
v 0.220724 0.342160 -0.000518
v 0.228794 0.344705 -0.000518
v 0.237056 0.346536 -0.000518
v 0.245445 0.347641 -0.000518
v 0.253899 0.348010 -0.000518
v 0.350900 0.251010 -0.000518
v 0.350530 0.242556 -0.000518
v 0.349426 0.234166 -0.000518
v 0.347594 0.225904 -0.000518
v 0.345050 0.217834 -0.000518
v 0.341811 0.210016 -0.000518
v 0.337904 0.202510 -0.000518
v 0.333357 0.195373 -0.000518
v 0.328206 0.188659 -0.000518
v 0.322489 0.182420 -0.000518
v 0.316250 0.176703 -0.000518
v 0.309536 0.171552 -0.000518
v 0.302400 0.167005 -0.000518
v 0.294893 0.163098 -0.000518
v 0.287075 0.159860 -0.000518
v 0.279005 0.157315 -0.000518
v 0.270743 0.155483 -0.000518
v 0.262354 0.154379 -0.000518
v 0.350530 0.259464 -0.000518
v 0.349426 0.267854 -0.000518
v 0.347594 0.276115 -0.000518
v 0.345050 0.284186 -0.000518
v 0.341811 0.292004 -0.000518
v 0.337904 0.299510 -0.000518
v 0.333357 0.306647 -0.000518
v 0.328206 0.313360 -0.000518
v 0.322489 0.319599 -0.000518
v 0.316250 0.325316 -0.000518
v 0.309536 0.330468 -0.000518
v 0.302400 0.335014 -0.000518
v 0.294893 0.338922 -0.000518
v 0.287075 0.342160 -0.000518
v 0.279005 0.344705 -0.000518
v 0.270743 0.346536 -0.000518
v 0.262354 0.347641 -0.000518
vn 0.0000 0.0000 -1.0000
vn -0.0872 0.9962 0.0000
vn 0.0000 1.0000 0.0000
vn -0.3420 0.9397 0.0000
vn -0.2588 0.9659 0.0000
vn -0.1736 0.9848 0.0000
vn -0.5000 0.8660 0.0000
vn -0.5736 0.8192 0.0000
vn -0.4226 0.9063 0.0000
vn -0.7071 0.7071 0.0000
vn -0.7660 0.6428 0.0000
vn -0.6428 0.7660 0.0000
vn -0.9063 0.4226 0.0000
vn -0.8660 0.5000 0.0000
vn -0.8192 0.5736 0.0000
vn -0.9659 0.2588 0.0000
vn -0.9848 0.1736 0.0000
vn -0.9397 0.3420 0.0000
vn -1.0000 -0.0000 0.0000
vn -0.9962 -0.0872 0.0000
vn -0.9962 0.0872 0.0000
vn -0.9397 -0.3420 0.0000
vn -0.9659 -0.2588 0.0000
vn -0.9848 -0.1736 0.0000
vn -0.8660 -0.5000 0.0000
vn -0.8192 -0.5736 0.0000
vn -0.9063 -0.4226 0.0000
vn -0.7071 -0.7071 0.0000
vn -0.6428 -0.7660 0.0000
vn -0.7660 -0.6428 0.0000
vn -0.5736 -0.8192 0.0000
vn -0.5000 -0.8660 0.0000
vn -0.4226 -0.9063 0.0000
vn -0.3420 -0.9397 0.0000
vn -0.2588 -0.9659 0.0000
vn -0.1736 -0.9848 0.0000
vn -0.0872 -0.9962 0.0000
vn 0.0000 -1.0000 0.0000
vn 1.0000 -0.0000 0.0000
vn 0.9962 0.0872 0.0000
vn 0.9848 0.1736 0.0000
vn 0.9659 0.2588 0.0000
vn 0.9397 0.3420 0.0000
vn 0.9063 0.4226 0.0000
vn 0.8660 0.5000 0.0000
vn 0.8192 0.5736 0.0000
vn 0.7660 0.6428 0.0000
vn 0.7071 0.7071 0.0000
vn 0.6428 0.7660 0.0000
vn 0.5736 0.8192 0.0000
vn 0.5000 0.8660 0.0000
vn 0.4226 0.9063 0.0000
vn 0.3420 0.9397 0.0000
vn 0.2588 0.9659 0.0000
vn 0.1736 0.9848 0.0000
vn 0.0872 0.9962 0.0000
vn 0.9962 -0.0872 0.0000
vn 0.9848 -0.1736 0.0000
vn 0.9659 -0.2588 0.0000
vn 0.9397 -0.3420 0.0000
vn 0.9063 -0.4226 0.0000
vn 0.8660 -0.5000 0.0000
vn 0.8192 -0.5736 0.0000
vn 0.7660 -0.6428 0.0000
vn 0.7071 -0.7071 0.0000
vn 0.6428 -0.7660 0.0000
vn 0.5736 -0.8192 0.0000
vn 0.5000 -0.8660 0.0000
vn 0.4226 -0.9063 0.0000
vn 0.3420 -0.9397 0.0000
vn 0.2588 -0.9659 0.0000
vn 0.1736 -0.9848 0.0000
vn 0.0872 -0.9962 0.0000
vn 0.0000 0.0000 1.0000
s 1
f 1//1 2//1 3//1
f 4//1 5//1 6//1
f 3//1 7//1 8//1
f 9//1 10//1 1//1
f 8//1 11//1 12//1
f 13//1 9//1 14//1
f 12//1 15//1 16//1
f 14//1 17//1 18//1
f 16//1 19//1 20//1
f 21//1 22//1 17//1
f 23//1 21//1 24//1
f 25//1 26//1 24//1
f 20//1 27//1 28//1
f 29//1 25//1 30//1
f 28//1 31//1 32//1
f 30//1 33//1 34//1
f 32//1 35//1 36//1
f 37//1 38//1 33//1
f 39//1 35//1 40//1
f 41//1 42//1 43//1
f 44//1 45//1 46//1
f 47//1 48//1 49//1
f 50//1 51//1 52//1
f 53//1 54//1 55//1
f 56//1 57//1 58//1
f 59//1 60//1 61//1
f 62//1 63//1 64//1
f 65//1 6//1 5//1
f 66//1 67//1 68//1
f 69//1 70//1 71//1
f 72//1 73//1 74//1
f 75//1 76//1 77//1
f 78//1 79//1 80//1
f 81//1 82//1 83//1
f 84//1 85//1 86//1
f 87//1 88//1 89//1
f 90//1 91//1 92//1
f 92//1 93//1 94//1
f 95//1 96//1 97//1
f 98//1 99//1 100//1
f 101//1 102//1 103//1
f 104//1 105//1 103//1
f 80//1 106//1 107//1
f 108//1 107//1 109//1
f 110//1 111//1 112//1
f 113//1 114//1 115//1
f 116//1 72//1 117//1
f 118//1 78//1 116//1
f 5//1 119//1 65//1
f 120//1 121//1 119//1
f 67//1 122//1 123//1
f 73//1 122//1 124//1
f 125//1 4//1 6//1
f 126//1 62//1 59//1
f 127//1 60//1 66//1
f 128//1 53//1 55//1
f 129//1 128//1 55//1
f 130//1 56//1 131//1
f 64//1 132//1 131//1
f 49//1 48//1 54//1
f 53//1 49//1 54//1
f 133//1 134//1 58//1
f 135//1 48//1 47//1
f 134//1 136//1 51//1
f 137//1 50//1 138//1
f 108//1 85//1 84//1
f 139//1 41//1 140//1
f 137//1 141//1 46//1
f 142//1 40//1 45//1
f 139//1 143//1 37//1
f 128//1 129//1 125//1
f 4//1 125//1 129//1
f 42//1 135//1 43//1
f 135//1 47//1 43//1
f 139//1 42//1 41//1
f 139//1 140//1 143//1
f 37//1 143//1 38//1
f 33//1 38//1 34//1
f 30//1 34//1 29//1
f 25//1 29//1 26//1
f 24//1 26//1 23//1
f 21//1 23//1 22//1
f 17//1 22//1 18//1
f 14//1 18//1 13//1
f 9//1 13//1 10//1
f 1//1 10//1 2//1
f 3//1 2//1 7//1
f 8//1 7//1 11//1
f 12//1 11//1 15//1
f 16//1 15//1 19//1
f 20//1 19//1 27//1
f 28//1 27//1 31//1
f 32//1 31//1 35//1
f 39//1 36//1 35//1
f 142//1 39//1 40//1
f 44//1 142//1 45//1
f 141//1 44//1 46//1
f 138//1 141//1 137//1
f 52//1 138//1 50//1
f 136//1 52//1 51//1
f 133//1 136//1 134//1
f 57//1 133//1 58//1
f 130//1 57//1 56//1
f 132//1 130//1 131//1
f 63//1 132//1 64//1
f 126//1 63//1 62//1
f 61//1 126//1 59//1
f 127//1 61//1 60//1
f 68//1 127//1 66//1
f 123//1 68//1 67//1
f 73//1 123//1 122//1
f 73//1 124//1 74//1
f 72//1 74//1 117//1
f 116//1 117//1 118//1
f 78//1 118//1 79//1
f 80//1 79//1 106//1
f 107//1 106//1 109//1
f 108//1 109//1 85//1
f 84//1 86//1 95//1
f 97//1 96//1 99//1
f 95//1 86//1 96//1
f 88//1 98//1 100//1
f 98//1 97//1 99//1
f 94//1 87//1 89//1
f 89//1 88//1 100//1
f 92//1 91//1 93//1
f 94//1 93//1 87//1
f 90//1 82//1 91//1
f 83//1 105//1 81//1
f 90//1 83//1 82//1
f 104//1 103//1 144//1
f 81//1 105//1 104//1
f 76//1 102//1 101//1
f 102//1 144//1 103//1
f 114//1 75//1 77//1
f 77//1 76//1 101//1
f 115//1 111//1 113//1
f 114//1 113//1 75//1
f 112//1 70//1 110//1
f 115//1 112//1 111//1
f 69//1 71//1 120//1
f 110//1 70//1 69//1
f 119//1 121//1 65//1
f 120//1 71//1 121//1
f 5//2 145//3 119//3
f 55//4 146//5 129//5
f 4//6 147//6 148//2
f 149//7 48//7 135//8
f 150//4 54//9 151//9
f 139//10 37//11 152//10
f 42//12 153//12 154//8
f 25//13 155//14 30//14
f 156//15 157//11 33//15
f 158//16 21//16 17//17
f 159//13 24//18 160//18
f 9//19 1//20 161//19
f 14//21 162//21 163//17
f 12//22 164//23 8//23
f 165//24 166//20 3//24
f 167//25 20//25 28//26
f 168//22 16//27 169//27
f 36//28 39//29 170//28
f 32//30 171//30 172//26
f 173//29 39//29 142//31
f 39//29 173//29 170//28
f 44//32 174//31 142//31
f 173//29 142//31 174//31
f 44//32 141//33 175//32
f 175//32 174//31 44//32
f 176//33 141//33 138//34
f 141//33 176//33 175//32
f 52//35 177//34 138//34
f 176//33 138//34 177//34
f 52//35 136//36 178//35
f 178//35 177//34 52//35
f 179//36 136//36 133//37
f 136//36 179//36 178//35
f 57//38 180//37 133//37
f 179//36 133//37 180//37
f 181//38 180//37 57//38
f 32//30 36//28 171//30
f 36//28 170//28 171//30
f 167//25 28//26 172//26
f 28//26 32//30 172//26
f 169//27 16//27 20//25
f 169//27 20//25 167//25
f 168//22 164//23 12//22
f 168//22 12//22 16//27
f 8//23 165//24 3//24
f 164//23 165//24 8//23
f 1//20 166//20 161//19
f 3//24 166//20 1//20
f 14//21 9//19 162//21
f 9//19 161//19 162//21
f 158//16 17//17 163//17
f 17//17 14//21 163//17
f 160//18 24//18 21//16
f 160//18 21//16 158//16
f 159//13 155//14 25//13
f 159//13 25//13 24//18
f 30//14 156//15 33//15
f 155//14 156//15 30//14
f 37//11 157//11 152//10
f 33//15 157//11 37//11
f 42//12 139//10 153//12
f 139//10 152//10 153//12
f 149//7 135//8 154//8
f 135//8 42//12 154//8
f 151//9 54//9 48//7
f 151//9 48//7 149//7
f 150//4 146//5 55//4
f 150//4 55//4 54//9
f 129//5 147//6 4//6
f 146//5 147//6 129//5
f 5//2 148//2 145//3
f 4//6 148//2 5//2
f 182//39 97//39 98//40
f 88//41 183//40 98//40
f 182//39 98//40 183//40
f 88//41 87//42 184//41
f 184//41 183//40 88//41
f 185//42 87//42 93//43
f 87//42 185//42 184//41
f 91//44 186//43 93//43
f 185//42 93//43 186//43
f 91//44 82//45 187//44
f 187//44 186//43 91//44
f 188//45 82//45 81//46
f 82//45 188//45 187//44
f 104//47 189//46 81//46
f 188//45 81//46 189//46
f 104//47 144//48 190//47
f 190//47 189//46 104//47
f 191//48 144//48 102//49
f 144//48 191//48 190//47
f 76//50 192//49 102//49
f 191//48 102//49 192//49
f 76//50 75//51 193//50
f 193//50 192//49 76//50
f 194//51 75//51 113//52
f 75//51 194//51 193//50
f 111//53 195//52 113//52
f 194//51 113//52 195//52
f 111//53 110//54 196//53
f 196//53 195//52 111//53
f 197//54 110//54 69//55
f 110//54 197//54 196//53
f 120//56 198//55 69//55
f 197//54 69//55 198//55
f 120//56 119//3 199//56
f 199//56 198//55 120//56
f 119//3 145//3 199//56
f 200//57 97//39 182//39
f 200//57 201//58 95//57
f 95//57 97//39 200//57
f 84//58 201//58 202//59
f 201//58 84//58 95//57
f 203//60 108//59 202//59
f 84//58 202//59 108//59
f 203//60 204//61 107//60
f 107//60 108//59 203//60
f 80//61 204//61 205//62
f 204//61 80//61 107//60
f 206//63 78//62 205//62
f 80//61 205//62 78//62
f 206//63 207//64 116//63
f 116//63 78//62 206//63
f 72//64 207//64 208//65
f 207//64 72//64 116//63
f 209//66 73//65 208//65
f 72//64 208//65 73//65
f 209//66 210//67 123//66
f 123//66 73//65 209//66
f 68//67 210//67 211//68
f 210//67 68//67 123//66
f 212//69 127//68 211//68
f 68//67 211//68 127//68
f 212//69 213//70 61//69
f 61//69 127//68 212//69
f 126//70 213//70 214//71
f 213//70 126//70 61//69
f 215//72 63//71 214//71
f 126//70 214//71 63//71
f 215//72 216//73 132//72
f 132//72 63//71 215//72
f 130//73 216//73 181//38
f 216//73 130//73 132//72
f 130//73 181//38 57//38
f 217//55 58//56 134//55
f 56//3 218//56 219//3
f 50//53 137//52 220//52
f 221//53 222//54 51//54
f 223//49 45//50 40//49
f 224//50 225//51 46//51
f 27//46 226//46 31//47
f 35//48 227//47 228//48
f 15//44 11//43 229//43
f 230//45 19//45 231//44
f 232//40 2//41 10//40
f 233//41 234//42 7//42
f 22//58 235//58 18//57
f 13//39 236//57 237//39
f 26//60 29//61 238//61
f 239//59 23//59 240//60
f 241//64 38//63 143//64
f 242//63 243//62 34//62
f 244//66 140//65 41//66
f 140//65 244//66 245//65
f 41//66 43//67 246//67
f 246//67 244//66 41//66
f 47//68 247//68 43//67
f 246//67 43//67 247//68
f 248//69 47//68 49//69
f 47//68 248//69 247//68
f 49//69 53//70 249//70
f 249//70 248//69 49//69
f 128//71 250//71 53//70
f 249//70 53//70 250//71
f 251//72 128//71 125//72
f 128//71 251//72 250//71
f 125//72 6//73 252//73
f 252//73 251//72 125//72
f 65//38 253//38 6//73
f 252//73 6//73 253//38
f 245//65 241//64 143//64
f 245//65 143//64 140//65
f 34//62 38//63 242//63
f 242//63 38//63 241//64
f 29//61 243//62 238//61
f 29//61 34//62 243//62
f 26//60 240//60 23//59
f 26//60 238//61 240//60
f 239//59 235//58 22//58
f 23//59 239//59 22//58
f 236//57 13//39 18//57
f 235//58 236//57 18//57
f 232//40 10//40 237//39
f 237//39 10//40 13//39
f 7//42 2//41 233//41
f 233//41 2//41 232//40
f 11//43 234//42 229//43
f 11//43 7//42 234//42
f 15//44 231//44 19//45
f 15//44 229//43 231//44
f 230//45 226//46 27//46
f 19//45 230//45 27//46
f 227//47 35//48 31//47
f 226//46 227//47 31//47
f 223//49 40//49 228//48
f 228//48 40//49 35//48
f 46//51 45//50 224//50
f 224//50 45//50 223//49
f 137//52 225//51 220//52
f 137//52 46//51 225//51
f 50//53 221//53 51//54
f 50//53 220//52 221//53
f 222//54 217//55 134//55
f 51//54 222//54 134//55
f 218//56 56//3 58//56
f 217//55 218//56 58//56
f 254//19 96//19 255//21
f 86//21 256//17 255//21
f 255//21 96//19 86//21
f 257//16 256//17 85//17
f 86//21 85//17 256//17
f 257//16 109//16 258//18
f 109//16 257//16 85//17
f 106//18 259//13 258//18
f 258//18 109//16 106//18
f 260//14 259//13 79//13
f 106//18 79//13 259//13
f 260//14 118//14 261//15
f 118//14 260//14 79//13
f 117//15 262//11 261//15
f 261//15 118//14 117//15
f 263//10 262//11 74//11
f 117//15 74//11 262//11
f 263//10 124//10 264//12
f 124//10 263//10 74//11
f 122//12 265//8 264//12
f 264//12 124//10 122//12
f 266//7 265//8 67//8
f 122//12 67//8 265//8
f 266//7 66//7 267//9
f 66//7 266//7 67//8
f 60//9 268//4 267//9
f 267//9 66//7 60//9
f 269//5 268//4 59//4
f 60//9 59//4 268//4
f 269//5 62//5 270//6
f 62//5 269//5 59//4
f 64//6 271//2 270//6
f 270//6 62//5 64//6
f 219//3 271//2 131//2
f 64//6 131//2 271//2
f 56//3 219//3 131//2
f 99//20 96//19 254//19
f 99//20 272//20 100//24
f 272//20 99//20 254//19
f 273//24 89//23 100//24
f 100//24 272//20 273//24
f 94//22 89//23 274//23
f 273//24 274//23 89//23
f 94//22 275//22 92//27
f 275//22 94//22 274//23
f 276//27 90//25 92//27
f 92//27 275//22 276//27
f 83//26 90//25 277//25
f 276//27 277//25 90//25
f 83//26 278//26 105//30
f 278//26 83//26 277//25
f 279//30 103//28 105//30
f 105//30 278//26 279//30
f 101//29 103//28 280//28
f 279//30 280//28 103//28
f 101//29 281//29 77//31
f 281//29 101//29 280//28
f 282//31 114//32 77//31
f 77//31 281//29 282//31
f 115//33 114//32 283//32
f 282//31 283//32 114//32
f 115//33 284//33 112//34
f 284//33 115//33 283//32
f 285//34 70//35 112//34
f 112//34 284//33 285//34
f 71//36 70//35 286//35
f 285//34 286//35 70//35
f 71//36 287//36 121//37
f 287//36 71//36 286//35
f 288//37 65//38 121//37
f 121//37 287//36 288//37
f 288//37 253//38 65//38
f 197//74 286//74 285//74
f 272//74 182//74 183//74
f 183//74 184//74 273//74
f 182//74 254//74 200//74
f 184//74 185//74 274//74
f 201//74 200//74 255//74
f 185//74 186//74 275//74
f 256//74 202//74 201//74
f 186//74 187//74 276//74
f 202//74 257//74 203//74
f 187//74 188//74 277//74
f 204//74 203//74 258//74
f 188//74 189//74 278//74
f 259//74 205//74 204//74
f 189//74 190//74 279//74
f 205//74 260//74 206//74
f 190//74 191//74 280//74
f 207//74 206//74 261//74
f 192//74 281//74 280//74
f 264//74 265//74 209//74
f 194//74 283//74 282//74
f 253//74 288//74 145//74
f 266//74 267//74 211//74
f 250//74 251//74 146//74
f 213//74 212//74 268//74
f 214//74 270//74 215//74
f 219//74 216//74 271//74
f 247//74 154//74 246//74
f 179//74 217//74 222//74
f 157//74 241//74 152//74
f 175//74 224//74 174//74
f 155//74 159//74 238//74
f 172//74 226//74 167//74
f 163//74 236//74 235//74
f 164//74 234//74 165//74
f 169//74 230//74 231//74
f 168//74 231//74 229//74
f 237//74 162//74 161//74
f 232//74 166//74 233//74
f 173//74 223//74 228//74
f 227//74 171//74 228//74
f 240//74 159//74 160//74
f 160//74 158//74 239//74
f 177//74 178//74 221//74
f 225//74 176//74 220//74
f 243//74 156//74 155//74
f 181//74 218//74 180//74
f 157//74 156//74 242//74
f 245//74 244//74 152//74
f 181//74 216//74 219//74
f 271//74 216//74 215//74
f 244//74 246//74 153//74
f 271//74 215//74 270//74
f 269//74 214//74 213//74
f 150//74 249//74 250//74
f 147//74 251//74 252//74
f 269//74 213//74 268//74
f 267//74 268//74 212//74
f 148//74 252//74 253//74
f 288//74 287//74 199//74
f 267//74 212//74 211//74
f 210//74 266//74 211//74
f 287//74 286//74 198//74
f 284//74 196//74 285//74
f 266//74 210//74 265//74
f 208//74 263//74 264//74
f 284//74 283//74 195//74
f 193//74 282//74 281//74
f 208//74 207//74 262//74
f 248//74 249//74 151//74
f 269//74 270//74 214//74
f 158//74 163//74 235//74
f 209//74 265//74 210//74
f 208//74 264//74 209//74
f 208//74 262//74 263//74
f 207//74 261//74 262//74
f 206//74 260//74 261//74
f 205//74 259//74 260//74
f 204//74 258//74 259//74
f 203//74 257//74 258//74
f 202//74 256//74 257//74
f 201//74 255//74 256//74
f 200//74 254//74 255//74
f 182//74 272//74 254//74
f 183//74 273//74 272//74
f 184//74 274//74 273//74
f 185//74 275//74 274//74
f 186//74 276//74 275//74
f 187//74 277//74 276//74
f 188//74 278//74 277//74
f 189//74 279//74 278//74
f 190//74 280//74 279//74
f 192//74 280//74 191//74
f 193//74 281//74 192//74
f 194//74 282//74 193//74
f 195//74 283//74 194//74
f 196//74 284//74 195//74
f 197//74 285//74 196//74
f 198//74 286//74 197//74
f 199//74 287//74 198//74
f 145//74 288//74 199//74
f 148//74 253//74 145//74
f 147//74 252//74 148//74
f 146//74 251//74 147//74
f 150//74 250//74 146//74
f 151//74 249//74 150//74
f 149//74 248//74 151//74
f 154//74 247//74 149//74
f 149//74 247//74 248//74
f 153//74 246//74 154//74
f 152//74 244//74 153//74
f 152//74 241//74 245//74
f 157//74 242//74 241//74
f 156//74 243//74 242//74
f 155//74 238//74 243//74
f 159//74 240//74 238//74
f 160//74 239//74 240//74
f 158//74 235//74 239//74
f 163//74 162//74 236//74
f 161//74 232//74 237//74
f 162//74 237//74 236//74
f 165//74 233//74 166//74
f 166//74 232//74 161//74
f 229//74 234//74 164//74
f 234//74 233//74 165//74
f 231//74 168//74 169//74
f 229//74 164//74 168//74
f 230//74 169//74 167//74
f 226//74 172//74 227//74
f 230//74 167//74 226//74
f 171//74 170//74 228//74
f 172//74 171//74 227//74
f 174//74 223//74 173//74
f 173//74 228//74 170//74
f 225//74 224//74 175//74
f 224//74 223//74 174//74
f 220//74 176//74 177//74
f 225//74 175//74 176//74
f 221//74 178//74 222//74
f 220//74 177//74 221//74
f 179//74 180//74 217//74
f 178//74 179//74 222//74
f 181//74 219//74 218//74
f 180//74 218//74 217//74
