# Blender v3.5.0 OBJ File: 'spacer.blend'
# www.blender.org
o 1_4_Nylon_Spacer_(275-1066-002)
v 0.232111 0.500059 -0.252301
v 0.253899 0.501010 -0.002301
v 0.253899 0.501010 -0.252301
v 0.168394 0.485933 -0.252301
v 0.189195 0.492491 -0.002301
v 0.189195 0.492491 -0.252301
v 0.210487 0.497212 -0.252301
v 0.210487 0.497212 -0.002301
v 0.232111 0.500059 -0.002301
v 0.128899 0.467516 -0.002301
v 0.128899 0.467516 -0.252301
v 0.110505 0.455798 -0.252301
v 0.168394 0.485933 -0.002301
v 0.148245 0.477587 -0.252301
v 0.148245 0.477587 -0.002301
v 0.077123 0.427787 -0.252301
v 0.062388 0.411707 -0.252301
v 0.077123 0.427787 -0.002301
v 0.093202 0.442521 -0.252301
v 0.093202 0.442521 -0.002301
v 0.110505 0.455798 -0.002301
v 0.027322 0.356664 -0.252301
v 0.037393 0.376010 -0.002301
v 0.037393 0.376010 -0.252301
v 0.049111 0.394404 -0.002301
v 0.062388 0.411707 -0.002301
v 0.049111 0.394404 -0.252301
v 0.012418 0.315715 -0.002301
v 0.012418 0.315715 -0.252301
v 0.007697 0.294422 -0.252301
v 0.027322 0.356664 -0.002301
v 0.018976 0.336515 -0.252301
v 0.018976 0.336515 -0.002301
v 0.003899 0.251010 -0.252301
v 0.004851 0.229221 -0.252301
v 0.003899 0.251010 -0.002301
v 0.004851 0.272799 -0.252301
v 0.004851 0.272799 -0.002301
v 0.007697 0.294422 -0.002301
v 0.018976 0.165505 -0.252301
v 0.012418 0.186305 -0.002301
v 0.012418 0.186305 -0.252301
v 0.007697 0.207598 -0.002301
v 0.004851 0.229221 -0.002301
v 0.007697 0.207598 -0.252301
v 0.037393 0.126010 -0.002301
v 0.037393 0.126010 -0.252301
v 0.049111 0.107616 -0.252301
v 0.018976 0.165505 -0.002301
v 0.027322 0.145355 -0.252301
v 0.027322 0.145355 -0.002301
v 0.077123 0.074233 -0.252301
v 0.093202 0.059499 -0.252301
v 0.077123 0.074233 -0.002301
v 0.062388 0.090313 -0.252301
v 0.062388 0.090313 -0.002301
v 0.049111 0.107616 -0.002301
v 0.093202 0.059499 -0.002301
v 0.110505 0.046222 -0.252301
v 0.128899 0.034503 -0.252301
v 0.110505 0.046222 -0.002301
v 0.148245 0.024433 -0.252301
v 0.128899 0.034503 -0.002301
v 0.148245 0.024433 -0.002301
v 0.168394 0.016087 -0.252301
v 0.189195 0.009528 -0.252301
v 0.168394 0.016087 -0.002301
v 0.210487 0.004808 -0.252301
v 0.189195 0.009528 -0.002301
v 0.210487 0.004808 -0.002301
v 0.232111 0.001961 -0.252301
v 0.253899 0.001010 -0.252301
v 0.232111 0.001961 -0.002301
v 0.253899 0.001010 -0.002301
v 0.503900 0.251010 -0.002301
v 0.503900 0.251010 -0.252301
v 0.502948 0.272799 -0.252301
v 0.500102 0.294422 -0.252301
v 0.502948 0.272799 -0.002301
v 0.495381 0.315715 -0.252301
v 0.500102 0.294422 -0.002301
v 0.495381 0.315715 -0.002301
v 0.488823 0.336515 -0.252301
v 0.480477 0.356664 -0.252301
v 0.488823 0.336515 -0.002301
v 0.470406 0.376010 -0.252301
v 0.480477 0.356664 -0.002301
v 0.470406 0.376010 -0.002301
v 0.458688 0.394404 -0.252301
v 0.445411 0.411707 -0.252301
v 0.458688 0.394404 -0.002301
v 0.430676 0.427787 -0.252301
v 0.445411 0.411707 -0.002301
v 0.430676 0.427787 -0.002301
v 0.414596 0.442521 -0.252301
v 0.397294 0.455798 -0.252301
v 0.414596 0.442521 -0.002301
v 0.378900 0.467516 -0.252301
v 0.397294 0.455798 -0.002301
v 0.378900 0.467516 -0.002301
v 0.359554 0.477587 -0.252301
v 0.339405 0.485933 -0.252301
v 0.359554 0.477587 -0.002301
v 0.318604 0.492491 -0.252301
v 0.339405 0.485933 -0.002301
v 0.318604 0.492491 -0.002301
v 0.297312 0.497212 -0.252301
v 0.275688 0.500059 -0.252301
v 0.297312 0.497212 -0.002301
v 0.275688 0.500059 -0.002301
v 0.502948 0.229221 -0.002301
v 0.500102 0.207598 -0.002301
v 0.502948 0.229221 -0.252301
v 0.500102 0.207598 -0.252301
v 0.495381 0.186305 -0.002301
v 0.488823 0.165505 -0.002301
v 0.495381 0.186305 -0.252301
v 0.480477 0.145355 -0.002301
v 0.488823 0.165505 -0.252301
v 0.480477 0.145355 -0.252301
v 0.470406 0.126010 -0.002301
v 0.458688 0.107616 -0.002301
v 0.470406 0.126010 -0.252301
v 0.445411 0.090313 -0.002301
v 0.458688 0.107616 -0.252301
v 0.445411 0.090313 -0.252301
v 0.430676 0.074233 -0.002301
v 0.414596 0.059499 -0.002301
v 0.430676 0.074233 -0.252301
v 0.397294 0.046222 -0.002301
v 0.414596 0.059499 -0.252301
v 0.397294 0.046222 -0.252301
v 0.378900 0.034503 -0.002301
v 0.359554 0.024433 -0.002301
v 0.378900 0.034503 -0.252301
v 0.339405 0.016087 -0.002301
v 0.359554 0.024433 -0.252301
v 0.339405 0.016087 -0.252301
v 0.318604 0.009528 -0.002301
v 0.297312 0.004808 -0.002301
v 0.318604 0.009528 -0.252301
v 0.275688 0.001961 -0.002301
v 0.297312 0.004808 -0.252301
v 0.275688 0.001961 -0.252301
v 0.158373 0.234166 -0.252301
v 0.245445 0.347641 -0.252301
v 0.160205 0.225904 -0.252301
v 0.157269 0.242556 -0.252301
v 0.162749 0.217834 -0.252301
v 0.156899 0.251010 -0.252301
v 0.165988 0.210016 -0.252301
v 0.157269 0.259464 -0.252301
v 0.169895 0.202510 -0.252301
v 0.158373 0.267854 -0.252301
v 0.160205 0.276115 -0.252301
v 0.162749 0.284186 -0.252301
v 0.174442 0.195373 -0.252301
v 0.165988 0.292004 -0.252301
v 0.179593 0.188659 -0.252301
v 0.169895 0.299510 -0.252301
v 0.185310 0.182420 -0.252301
v 0.174442 0.306647 -0.252301
v 0.191549 0.176703 -0.252301
v 0.191549 0.325316 -0.252301
v 0.198263 0.330468 -0.252301
v 0.198263 0.171552 -0.252301
v 0.205399 0.167005 -0.252301
v 0.205399 0.335014 -0.252301
v 0.212905 0.338922 -0.252301
v 0.220724 0.159860 -0.252301
v 0.228794 0.157315 -0.252301
v 0.220724 0.342160 -0.252301
v 0.253899 0.154010 -0.252301
v 0.245445 0.154379 -0.252301
v 0.287075 0.159860 -0.252301
v 0.294893 0.163098 -0.252301
v 0.279005 0.157315 -0.252301
v 0.270743 0.155483 -0.252301
v 0.253899 0.348010 -0.252301
v 0.302400 0.167005 -0.252301
v 0.309536 0.171552 -0.252301
v 0.279005 0.344705 -0.252301
v 0.270743 0.346536 -0.252301
v 0.328206 0.188659 -0.252301
v 0.309536 0.330468 -0.252301
v 0.341811 0.210016 -0.252301
v 0.333357 0.306647 -0.252301
v 0.349426 0.234166 -0.252301
v 0.350530 0.242556 -0.252301
v 0.347594 0.276115 -0.252301
v 0.337904 0.299510 -0.252301
v 0.341811 0.292004 -0.252301
v 0.345050 0.284186 -0.252301
v 0.350900 0.251010 -0.252301
v 0.350530 0.259464 -0.252301
v 0.349426 0.267854 -0.252301
v 0.316250 0.325316 -0.252301
v 0.322489 0.319599 -0.252301
v 0.328206 0.313360 -0.252301
v 0.345050 0.217834 -0.252301
v 0.347594 0.225904 -0.252301
v 0.287075 0.342160 -0.252301
v 0.302400 0.335014 -0.252301
v 0.294893 0.338922 -0.252301
v 0.333357 0.195373 -0.252301
v 0.337904 0.202510 -0.252301
v 0.262354 0.347641 -0.252301
v 0.316250 0.176703 -0.252301
v 0.322489 0.182420 -0.252301
v 0.237056 0.346536 -0.252301
v 0.228794 0.344705 -0.252301
v 0.262354 0.154379 -0.252301
v 0.237056 0.155483 -0.252301
v 0.212905 0.163098 -0.252301
v 0.185310 0.319599 -0.252301
v 0.179593 0.313360 -0.252301
v 0.279005 0.344705 -0.002301
v 0.287075 0.342160 -0.002301
v 0.350530 0.259464 -0.002301
v 0.349426 0.267854 -0.002301
v 0.350900 0.251010 -0.002301
v 0.347594 0.276115 -0.002301
v 0.350530 0.242556 -0.002301
v 0.345050 0.284186 -0.002301
v 0.349426 0.234166 -0.002301
v 0.341811 0.292004 -0.002301
v 0.347594 0.225904 -0.002301
v 0.337904 0.299510 -0.002301
v 0.345050 0.217834 -0.002301
v 0.333357 0.306647 -0.002301
v 0.341811 0.210016 -0.002301
v 0.328206 0.313360 -0.002301
v 0.337904 0.202510 -0.002301
v 0.322489 0.319599 -0.002301
v 0.333357 0.195373 -0.002301
v 0.316250 0.325316 -0.002301
v 0.316250 0.176703 -0.002301
v 0.309536 0.171552 -0.002301
v 0.302400 0.335014 -0.002301
v 0.309536 0.330468 -0.002301
v 0.253899 0.348010 -0.002301
v 0.262354 0.347641 -0.002301
v 0.302400 0.167005 -0.002301
v 0.294893 0.163098 -0.002301
v 0.228794 0.344705 -0.002301
v 0.237056 0.346536 -0.002301
v 0.287075 0.159860 -0.002301
v 0.270743 0.155483 -0.002301
v 0.253899 0.154010 -0.002301
v 0.262354 0.154379 -0.002301
v 0.205399 0.335014 -0.002301
v 0.198263 0.330468 -0.002301
v 0.237056 0.155483 -0.002301
v 0.228794 0.157315 -0.002301
v 0.179593 0.313360 -0.002301
v 0.198263 0.171552 -0.002301
v 0.165988 0.292004 -0.002301
v 0.174442 0.195373 -0.002301
v 0.157269 0.259464 -0.002301
v 0.158373 0.267854 -0.002301
v 0.160205 0.225904 -0.002301
v 0.169895 0.202510 -0.002301
v 0.165988 0.210016 -0.002301
v 0.162749 0.217834 -0.002301
v 0.156899 0.251010 -0.002301
v 0.157269 0.242556 -0.002301
v 0.158373 0.234166 -0.002301
v 0.191549 0.176703 -0.002301
v 0.185310 0.182420 -0.002301
v 0.179593 0.188659 -0.002301
v 0.162749 0.284186 -0.002301
v 0.160205 0.276115 -0.002301
v 0.220724 0.159860 -0.002301
v 0.205399 0.167005 -0.002301
v 0.212905 0.163098 -0.002301
v 0.169895 0.299510 -0.002301
v 0.245445 0.154379 -0.002301
v 0.174442 0.306647 -0.002301
v 0.185310 0.319599 -0.002301
v 0.191549 0.325316 -0.002301
v 0.279005 0.157315 -0.002301
v 0.220724 0.342160 -0.002301
v 0.245445 0.347641 -0.002301
v 0.270743 0.346536 -0.002301
v 0.294893 0.338922 -0.002301
v 0.322489 0.182420 -0.002301
v 0.328206 0.188659 -0.002301
v 0.212905 0.338922 -0.002301
vn -0.0872 0.9962 0.0000
vn 0.0000 1.0000 0.0000
vn -0.3420 0.9397 0.0000
vn -0.2588 0.9659 0.0000
vn -0.1736 0.9848 0.0000
vn -0.5000 0.8660 0.0000
vn -0.5736 0.8192 0.0000
vn -0.4226 0.9063 0.0000
vn -0.7071 0.7071 0.0000
vn -0.7660 0.6428 0.0000
vn -0.6428 0.7660 0.0000
vn -0.9063 0.4226 0.0000
vn -0.8660 0.5000 0.0000
vn -0.8192 0.5736 0.0000
vn -0.9659 0.2588 0.0000
vn -0.9848 0.1736 0.0000
vn -0.9397 0.3420 0.0000
vn -1.0000 -0.0000 0.0000
vn -0.9962 -0.0872 0.0000
vn -0.9962 0.0872 0.0000
vn -0.9397 -0.3420 0.0000
vn -0.9659 -0.2588 0.0000
vn -0.9848 -0.1736 0.0000
vn -0.8660 -0.5000 0.0000
vn -0.8192 -0.5736 0.0000
vn -0.9063 -0.4226 0.0000
vn -0.7071 -0.7071 0.0000
vn -0.6428 -0.7660 0.0000
vn -0.7660 -0.6428 0.0000
vn -0.5736 -0.8192 0.0000
vn -0.5000 -0.8660 0.0000
vn -0.4226 -0.9063 0.0000
vn -0.3420 -0.9397 0.0000
vn -0.2588 -0.9659 0.0000
vn -0.1736 -0.9848 0.0000
vn -0.0872 -0.9962 0.0000
vn 0.0000 -1.0000 0.0000
vn 1.0000 -0.0000 0.0000
vn 0.9962 0.0872 0.0000
vn 0.9848 0.1736 0.0000
vn 0.9659 0.2588 0.0000
vn 0.9397 0.3420 0.0000
vn 0.9063 0.4226 0.0000
vn 0.8660 0.5000 0.0000
vn 0.8192 0.5736 0.0000
vn 0.7660 0.6428 0.0000
vn 0.7071 0.7071 0.0000
vn 0.6428 0.7660 0.0000
vn 0.5736 0.8192 0.0000
vn 0.5000 0.8660 0.0000
vn 0.4226 0.9063 0.0000
vn 0.3420 0.9397 0.0000
vn 0.2588 0.9659 0.0000
vn 0.1736 0.9848 0.0000
vn 0.0872 0.9962 0.0000
vn 0.9962 -0.0872 0.0000
vn 0.9848 -0.1736 0.0000
vn 0.9659 -0.2588 0.0000
vn 0.9397 -0.3420 0.0000
vn 0.9063 -0.4226 0.0000
vn 0.8660 -0.5000 0.0000
vn 0.8192 -0.5736 0.0000
vn 0.7660 -0.6428 0.0000
vn 0.7071 -0.7071 0.0000
vn 0.6428 -0.7660 0.0000
vn 0.5736 -0.8192 0.0000
vn 0.5000 -0.8660 0.0000
vn 0.4226 -0.9063 0.0000
vn 0.3420 -0.9397 0.0000
vn 0.2588 -0.9659 0.0000
vn 0.1736 -0.9848 0.0000
vn 0.0872 -0.9962 0.0000
vn 0.0000 0.0000 -1.0000
vn -0.0000 0.0000 1.0000
s 1
f 1//1 2//2 3//2
f 4//3 5//4 6//4
f 7//5 8//5 9//1
f 10//6 11//6 12//7
f 13//3 14//8 15//8
f 16//9 17//10 18//9
f 19//11 20//11 21//7
f 22//12 23//13 24//13
f 25//14 26//10 27//14
f 28//15 29//15 30//16
f 31//12 32//17 33//17
f 34//18 35//19 36//18
f 37//20 38//20 39//16
f 40//21 41//22 42//22
f 43//23 44//19 45//23
f 46//24 47//24 48//25
f 49//21 50//26 51//26
f 52//27 53//28 54//27
f 55//29 56//29 57//25
f 58//28 53//28 59//30
f 53//28 58//28 54//27
f 60//31 61//30 59//30
f 58//28 59//30 61//30
f 60//31 62//32 63//31
f 63//31 61//30 60//31
f 64//32 62//32 65//33
f 62//32 64//32 63//31
f 66//34 67//33 65//33
f 64//32 65//33 67//33
f 66//34 68//35 69//34
f 69//34 67//33 66//34
f 70//35 68//35 71//36
f 68//35 70//35 69//34
f 72//37 73//36 71//36
f 70//35 71//36 73//36
f 74//37 73//36 72//37
f 55//29 52//27 56//29
f 52//27 54//27 56//29
f 46//24 48//25 57//25
f 48//25 55//29 57//25
f 51//26 50//26 47//24
f 51//26 47//24 46//24
f 49//21 41//22 40//21
f 49//21 40//21 50//26
f 42//22 43//23 45//23
f 41//22 43//23 42//22
f 35//19 44//19 36//18
f 45//23 44//19 35//19
f 37//20 34//18 38//20
f 34//18 36//18 38//20
f 28//15 30//16 39//16
f 30//16 37//20 39//16
f 33//17 32//17 29//15
f 33//17 29//15 28//15
f 31//12 23//13 22//12
f 31//12 22//12 32//17
f 24//13 25//14 27//14
f 23//13 25//14 24//13
f 17//10 26//10 18//9
f 27//14 26//10 17//10
f 19//11 16//9 20//11
f 16//9 18//9 20//11
f 10//6 12//7 21//7
f 12//7 19//11 21//7
f 15//8 14//8 11//6
f 15//8 11//6 10//6
f 13//3 5//4 4//3
f 13//3 4//3 14//8
f 6//4 8//5 7//5
f 5//4 8//5 6//4
f 1//1 9//1 2//2
f 7//5 9//1 1//1
f 75//38 76//38 77//39
f 78//40 79//39 77//39
f 75//38 77//39 79//39
f 78//40 80//41 81//40
f 81//40 79//39 78//40
f 82//41 80//41 83//42
f 80//41 82//41 81//40
f 84//43 85//42 83//42
f 82//41 83//42 85//42
f 84//43 86//44 87//43
f 87//43 85//42 84//43
f 88//44 86//44 89//45
f 86//44 88//44 87//43
f 90//46 91//45 89//45
f 88//44 89//45 91//45
f 90//46 92//47 93//46
f 93//46 91//45 90//46
f 94//47 92//47 95//48
f 92//47 94//47 93//46
f 96//49 97//48 95//48
f 94//47 95//48 97//48
f 96//49 98//50 99//49
f 99//49 97//48 96//49
f 100//50 98//50 101//51
f 98//50 100//50 99//49
f 102//52 103//51 101//51
f 100//50 101//51 103//51
f 102//52 104//53 105//52
f 105//52 103//51 102//52
f 106//53 104//53 107//54
f 104//53 106//53 105//52
f 108//55 109//54 107//54
f 106//53 107//54 109//54
f 108//55 3//2 110//55
f 110//55 109//54 108//55
f 3//2 2//2 110//55
f 111//56 76//38 75//38
f 111//56 112//57 113//56
f 113//56 76//38 111//56
f 114//57 112//57 115//58
f 112//57 114//57 113//56
f 116//59 117//58 115//58
f 114//57 115//58 117//58
f 116//59 118//60 119//59
f 119//59 117//58 116//59
f 120//60 118//60 121//61
f 118//60 120//60 119//59
f 122//62 123//61 121//61
f 120//60 121//61 123//61
f 122//62 124//63 125//62
f 125//62 123//61 122//62
f 126//63 124//63 127//64
f 124//63 126//63 125//62
f 128//65 129//64 127//64
f 126//63 127//64 129//64
f 128//65 130//66 131//65
f 131//65 129//64 128//65
f 132//66 130//66 133//67
f 130//66 132//66 131//65
f 134//68 135//67 133//67
f 132//66 133//67 135//67
f 134//68 136//69 137//68
f 137//68 135//67 134//68
f 138//69 136//69 139//70
f 136//69 138//69 137//68
f 140//71 141//70 139//70
f 138//69 139//70 141//70
f 140//71 142//72 143//71
f 143//71 141//70 140//71
f 144//72 142//72 74//37
f 142//72 144//72 143//71
f 144//72 74//37 72//37
f 35//73 145//73 45//73
f 7//73 1//73 146//73
f 45//73 147//73 42//73
f 34//73 148//73 35//73
f 42//73 149//73 40//73
f 150//73 34//73 37//73
f 40//73 151//73 50//73
f 37//73 30//73 152//73
f 50//73 153//73 47//73
f 29//73 154//73 30//73
f 155//73 29//73 32//73
f 22//73 156//73 32//73
f 47//73 157//73 48//73
f 158//73 22//73 24//73
f 48//73 159//73 55//73
f 24//73 27//73 160//73
f 55//73 161//73 52//73
f 17//73 162//73 27//73
f 53//73 161//73 163//73
f 164//73 19//73 165//73
f 60//73 166//73 167//73
f 168//73 11//73 169//73
f 170//73 171//73 66//73
f 172//73 14//73 4//73
f 173//73 72//73 174//73
f 175//73 176//73 137//73
f 177//73 141//73 178//73
f 179//73 146//73 1//73
f 180//73 181//73 132//73
f 107//73 182//73 183//73
f 126//73 129//73 184//73
f 98//73 96//73 185//73
f 123//73 186//73 120//73
f 89//73 86//73 187//73
f 114//73 188//73 189//73
f 80//73 78//73 190//73
f 191//73 84//73 192//73
f 192//73 83//73 193//73
f 113//73 194//73 76//73
f 77//73 195//73 196//73
f 197//73 95//73 198//73
f 90//73 199//73 198//73
f 120//73 200//73 119//73
f 117//73 119//73 201//73
f 104//73 102//73 202//73
f 101//73 203//73 204//73
f 125//73 126//73 205//73
f 206//73 123//73 125//73
f 1//73 3//73 179//73
f 108//73 207//73 3//73
f 181//73 208//73 131//73
f 129//73 208//73 209//73
f 210//73 7//73 146//73
f 138//73 177//73 175//73
f 135//73 176//73 180//73
f 211//73 172//73 4//73
f 6//73 211//73 4//73
f 144//73 173//73 212//73
f 178//73 143//73 212//73
f 169//73 11//73 14//73
f 172//73 169//73 14//73
f 71//73 213//73 174//73
f 12//73 11//73 168//73
f 213//73 68//73 171//73
f 214//73 170//73 65//73
f 117//73 188//73 114//73
f 16//73 164//73 215//73
f 214//73 62//73 167//73
f 59//73 163//73 166//73
f 16//73 216//73 17//73
f 211//73 6//73 210//73
f 7//73 210//73 6//73
f 19//73 12//73 165//73
f 12//73 168//73 165//73
f 16//73 19//73 164//73
f 16//73 215//73 216//73
f 17//73 216//73 162//73
f 27//73 162//73 160//73
f 24//73 160//73 158//73
f 22//73 158//73 156//73
f 32//73 156//73 155//73
f 29//73 155//73 154//73
f 30//73 154//73 152//73
f 37//73 152//73 150//73
f 34//73 150//73 148//73
f 35//73 148//73 145//73
f 45//73 145//73 147//73
f 42//73 147//73 149//73
f 40//73 149//73 151//73
f 50//73 151//73 153//73
f 47//73 153//73 157//73
f 48//73 157//73 159//73
f 55//73 159//73 161//73
f 53//73 52//73 161//73
f 59//73 53//73 163//73
f 60//73 59//73 166//73
f 62//73 60//73 167//73
f 65//73 62//73 214//73
f 66//73 65//73 170//73
f 68//73 66//73 171//73
f 71//73 68//73 213//73
f 72//73 71//73 174//73
f 144//73 72//73 173//73
f 143//73 144//73 212//73
f 141//73 143//73 178//73
f 138//73 141//73 177//73
f 137//73 138//73 175//73
f 135//73 137//73 176//73
f 132//73 135//73 180//73
f 131//73 132//73 181//73
f 129//73 131//73 208//73
f 129//73 209//73 184//73
f 126//73 184//73 205//73
f 125//73 205//73 206//73
f 123//73 206//73 186//73
f 120//73 186//73 200//73
f 119//73 200//73 201//73
f 117//73 201//73 188//73
f 114//73 189//73 113//73
f 76//73 194//73 195//73
f 113//73 189//73 194//73
f 78//73 77//73 196//73
f 77//73 76//73 195//73
f 193//73 80//73 190//73
f 190//73 78//73 196//73
f 192//73 84//73 83//73
f 193//73 83//73 80//73
f 191//73 86//73 84//73
f 187//73 199//73 89//73
f 191//73 187//73 86//73
f 90//73 198//73 92//73
f 89//73 199//73 90//73
f 96//73 95//73 197//73
f 95//73 92//73 198//73
f 203//73 98//73 185//73
f 185//73 96//73 197//73
f 204//73 102//73 101//73
f 203//73 101//73 98//73
f 202//73 182//73 104//73
f 204//73 202//73 102//73
f 107//73 183//73 108//73
f 104//73 182//73 107//73
f 3//73 207//73 179//73
f 108//73 183//73 207//73
f 106//74 217//74 218//74
f 219//74 75//74 79//74
f 79//74 81//74 220//74
f 75//74 221//74 111//74
f 81//74 82//74 222//74
f 112//74 111//74 223//74
f 82//74 85//74 224//74
f 225//74 115//74 112//74
f 85//74 87//74 226//74
f 115//74 227//74 116//74
f 87//74 88//74 228//74
f 118//74 116//74 229//74
f 88//74 91//74 230//74
f 231//74 121//74 118//74
f 91//74 93//74 232//74
f 121//74 233//74 122//74
f 93//74 94//74 234//74
f 124//74 122//74 235//74
f 97//74 236//74 234//74
f 237//74 238//74 128//74
f 100//74 239//74 240//74
f 241//74 242//74 2//74
f 243//74 244//74 133//74
f 245//74 246//74 5//74
f 136//74 134//74 247//74
f 139//74 248//74 140//74
f 249//74 142//74 250//74
f 251//74 21//74 252//74
f 70//74 253//74 254//74
f 26//74 255//74 18//74
f 63//74 256//74 61//74
f 23//74 31//74 257//74
f 57//74 258//74 46//74
f 39//74 259//74 260//74
f 41//74 261//74 43//74
f 51//74 262//74 263//74
f 49//74 263//74 264//74
f 265//74 38//74 36//74
f 266//74 44//74 267//74
f 58//74 268//74 269//74
f 270//74 56//74 269//74
f 271//74 31//74 33//74
f 33//74 28//74 272//74
f 67//74 69//74 273//74
f 274//74 64//74 275//74
f 276//74 25//74 23//74
f 74//74 277//74 73//74
f 26//74 25//74 278//74
f 279//74 280//74 18//74
f 74//74 142//74 249//74
f 250//74 142//74 140//74
f 280//74 252//74 20//74
f 250//74 140//74 248//74
f 281//74 139//74 136//74
f 13//74 282//74 245//74
f 8//74 246//74 283//74
f 281//74 136//74 247//74
f 244//74 247//74 134//74
f 9//74 283//74 241//74
f 242//74 284//74 110//74
f 244//74 134//74 133//74
f 130//74 243//74 133//74
f 284//74 217//74 109//74
f 285//74 105//74 218//74
f 243//74 130//74 238//74
f 127//74 286//74 237//74
f 285//74 239//74 103//74
f 99//74 240//74 236//74
f 127//74 124//74 287//74
f 288//74 282//74 15//74
f 281//74 248//74 139//74
f 28//74 39//74 260//74
f 128//74 238//74 130//74
f 127//74 237//74 128//74
f 127//74 287//74 286//74
f 124//74 235//74 287//74
f 122//74 233//74 235//74
f 121//74 231//74 233//74
f 118//74 229//74 231//74
f 116//74 227//74 229//74
f 115//74 225//74 227//74
f 112//74 223//74 225//74
f 111//74 221//74 223//74
f 75//74 219//74 221//74
f 79//74 220//74 219//74
f 81//74 222//74 220//74
f 82//74 224//74 222//74
f 85//74 226//74 224//74
f 87//74 228//74 226//74
f 88//74 230//74 228//74
f 91//74 232//74 230//74
f 93//74 234//74 232//74
f 97//74 234//74 94//74
f 99//74 236//74 97//74
f 100//74 240//74 99//74
f 103//74 239//74 100//74
f 105//74 285//74 103//74
f 106//74 218//74 105//74
f 109//74 217//74 106//74
f 110//74 284//74 109//74
f 2//74 242//74 110//74
f 9//74 241//74 2//74
f 8//74 283//74 9//74
f 5//74 246//74 8//74
f 13//74 245//74 5//74
f 15//74 282//74 13//74
f 10//74 288//74 15//74
f 21//74 251//74 10//74
f 10//74 251//74 288//74
f 20//74 252//74 21//74
f 18//74 280//74 20//74
f 18//74 255//74 279//74
f 26//74 278//74 255//74
f 25//74 276//74 278//74
f 23//74 257//74 276//74
f 31//74 271//74 257//74
f 33//74 272//74 271//74
f 28//74 260//74 272//74
f 39//74 38//74 259//74
f 36//74 266//74 265//74
f 38//74 265//74 259//74
f 43//74 267//74 44//74
f 44//74 266//74 36//74
f 264//74 261//74 41//74
f 261//74 267//74 43//74
f 263//74 49//74 51//74
f 264//74 41//74 49//74
f 262//74 51//74 46//74
f 258//74 57//74 270//74
f 262//74 46//74 258//74
f 56//74 54//74 269//74
f 57//74 56//74 270//74
f 61//74 268//74 58//74
f 58//74 269//74 54//74
f 274//74 256//74 63//74
f 256//74 268//74 61//74
f 275//74 64//74 67//74
f 274//74 63//74 64//74
f 273//74 69//74 254//74
f 275//74 67//74 273//74
f 70//74 73//74 253//74
f 69//74 70//74 254//74
f 74//74 249//74 277//74
f 73//74 277//74 253//74
f 253//54 174//55 213//54
f 173//2 277//55 249//2
f 170//52 214//51 275//51
f 273//52 254//53 171//53
f 268//48 166//49 163//48
f 256//49 274//50 167//50
f 157//45 258//45 159//46
f 161//47 270//46 269//47
f 151//43 149//42 264//42
f 262//44 153//44 263//43
f 266//39 145//40 148//39
f 267//40 261//41 147//41
f 154//57 260//57 152//56
f 150//38 259//56 265//38
f 156//59 158//60 257//60
f 272//58 155//58 271//59
f 255//63 162//62 216//63
f 278//62 276//61 160//61
f 280//65 215//64 164//65
f 215//64 280//65 279//64
f 164//65 165//66 252//66
f 252//66 280//65 164//65
f 168//67 251//67 165//66
f 252//66 165//66 251//67
f 288//68 168//67 169//68
f 168//67 288//68 251//67
f 169//68 172//69 282//69
f 282//69 288//68 169//68
f 211//70 245//70 172//69
f 282//69 172//69 245//70
f 246//71 211//70 210//71
f 211//70 246//71 245//70
f 210//71 146//72 283//72
f 283//72 246//71 210//71
f 179//37 241//37 146//72
f 283//72 146//72 241//37
f 279//64 255//63 216//63
f 279//64 216//63 215//64
f 160//61 162//62 278//62
f 278//62 162//62 255//63
f 158//60 276//61 257//60
f 158//60 160//61 276//61
f 156//59 271//59 155//58
f 156//59 257//60 271//59
f 272//58 260//57 154//57
f 155//58 272//58 154//57
f 259//56 150//38 152//56
f 260//57 259//56 152//56
f 266//39 148//39 265//38
f 265//38 148//39 150//38
f 147//41 145//40 267//40
f 267//40 145//40 266//39
f 149//42 261//41 264//42
f 149//42 147//41 261//41
f 151//43 263//43 153//44
f 151//43 264//42 263//43
f 262//44 258//45 157//45
f 153//44 262//44 157//45
f 270//46 161//47 159//46
f 258//45 270//46 159//46
f 268//48 163//48 269//47
f 269//47 163//48 161//47
f 167//50 166//49 256//49
f 256//49 166//49 268//48
f 214//51 274//50 275//51
f 214//51 167//50 274//50
f 170//52 273//52 171//53
f 170//52 275//51 273//52
f 254//53 253//54 213//54
f 171//53 254//53 213//54
f 277//55 173//2 174//55
f 253//54 277//55 174//55
f 221//18 194//18 223//20
f 189//20 225//16 223//20
f 223//20 194//18 189//20
f 227//15 225//16 188//16
f 189//20 188//16 225//16
f 227//15 201//15 229//17
f 201//15 227//15 188//16
f 200//17 231//12 229//17
f 229//17 201//15 200//17
f 233//13 231//12 186//12
f 200//17 186//12 231//12
f 233//13 206//13 235//14
f 206//13 233//13 186//12
f 205//14 287//10 235//14
f 235//14 206//13 205//14
f 286//9 287//10 184//10
f 205//14 184//10 287//10
f 286//9 209//9 237//11
f 209//9 286//9 184//10
f 208//11 238//7 237//11
f 237//11 209//9 208//11
f 243//6 238//7 181//7
f 208//11 181//7 238//7
f 243//6 180//6 244//8
f 180//6 243//6 181//7
f 176//8 247//3 244//8
f 244//8 180//6 176//8
f 281//4 247//3 175//3
f 176//8 175//3 247//3
f 281//4 177//4 248//5
f 177//4 281//4 175//3
f 178//5 250//1 248//5
f 248//5 177//4 178//5
f 249//2 250//1 212//1
f 178//5 212//1 250//1
f 173//2 249//2 212//1
f 195//19 194//18 221//18
f 195//19 219//19 196//23
f 219//19 195//19 221//18
f 220//23 190//22 196//23
f 196//23 219//19 220//23
f 193//21 190//22 222//22
f 220//23 222//22 190//22
f 193//21 224//21 192//26
f 224//21 193//21 222//22
f 226//26 191//24 192//26
f 192//26 224//21 226//26
f 187//25 191//24 228//24
f 226//26 228//24 191//24
f 187//25 230//25 199//29
f 230//25 187//25 228//24
f 232//29 198//27 199//29
f 199//29 230//25 232//29
f 197//28 198//27 234//27
f 232//29 234//27 198//27
f 197//28 236//28 185//30
f 236//28 197//28 234//27
f 240//30 203//31 185//30
f 185//30 236//28 240//30
f 204//32 203//31 239//31
f 240//30 239//31 203//31
f 204//32 285//32 202//33
f 285//32 204//32 239//31
f 218//33 182//34 202//33
f 202//33 285//32 218//33
f 183//35 182//34 217//34
f 218//33 217//34 182//34
f 183//35 284//35 207//36
f 284//35 183//35 217//34
f 242//36 179//37 207//36
f 207//36 284//35 242//36
f 242//36 241//37 179//37
