# Blender v3.5.0 OBJ File: 'spacer.blend'
# www.blender.org
o 3_8_Nylon_Spacer_(275-1066-003)
v 0.318604 0.492491 -0.001513
v 0.279005 0.344705 -0.001513
v 0.287075 0.342160 -0.001513
v 0.350530 0.259464 -0.001513
v 0.503900 0.251010 -0.001513
v 0.502948 0.272799 -0.001513
v 0.500102 0.294422 -0.001513
v 0.349426 0.267854 -0.001513
v 0.350900 0.251010 -0.001513
v 0.502948 0.229221 -0.001513
v 0.495381 0.315715 -0.001513
v 0.347594 0.276115 -0.001513
v 0.500102 0.207598 -0.001513
v 0.350530 0.242556 -0.001513
v 0.488823 0.336515 -0.001513
v 0.345050 0.284186 -0.001513
v 0.349426 0.234166 -0.001513
v 0.495381 0.186305 -0.001513
v 0.480477 0.356664 -0.001513
v 0.341811 0.292004 -0.001513
v 0.347594 0.225904 -0.001513
v 0.488823 0.165505 -0.001513
v 0.470406 0.376010 -0.001513
v 0.337904 0.299510 -0.001513
v 0.480477 0.145355 -0.001513
v 0.345050 0.217834 -0.001513
v 0.458688 0.394404 -0.001513
v 0.333357 0.306647 -0.001513
v 0.341811 0.210016 -0.001513
v 0.470406 0.126010 -0.001513
v 0.445411 0.411707 -0.001513
v 0.328206 0.313360 -0.001513
v 0.337904 0.202510 -0.001513
v 0.458688 0.107616 -0.001513
v 0.430676 0.427787 -0.001513
v 0.322489 0.319599 -0.001513
v 0.445411 0.090313 -0.001513
v 0.333357 0.195373 -0.001513
v 0.414596 0.442521 -0.001513
v 0.316250 0.325316 -0.001513
v 0.316250 0.176703 -0.001513
v 0.309536 0.171552 -0.001513
v 0.414596 0.059499 -0.001513
v 0.378900 0.467516 -0.001513
v 0.302400 0.335014 -0.001513
v 0.309536 0.330468 -0.001513
v 0.253899 0.348010 -0.001513
v 0.262354 0.347641 -0.001513
v 0.253899 0.501010 -0.001513
v 0.302400 0.167005 -0.001513
v 0.294893 0.163098 -0.001513
v 0.378900 0.034503 -0.001513
v 0.228794 0.344705 -0.001513
v 0.237056 0.346536 -0.001513
v 0.189195 0.492491 -0.001513
v 0.339405 0.016087 -0.001513
v 0.359554 0.024433 -0.001513
v 0.287075 0.159860 -0.001513
v 0.318604 0.009528 -0.001513
v 0.270743 0.155483 -0.001513
v 0.297312 0.004808 -0.001513
v 0.253899 0.154010 -0.001513
v 0.275688 0.001961 -0.001513
v 0.262354 0.154379 -0.001513
v 0.205399 0.335014 -0.001513
v 0.110505 0.455798 -0.001513
v 0.198263 0.330468 -0.001513
v 0.210487 0.004808 -0.001513
v 0.237056 0.155483 -0.001513
v 0.228794 0.157315 -0.001513
v 0.062388 0.411707 -0.001513
v 0.179593 0.313360 -0.001513
v 0.077123 0.427787 -0.001513
v 0.128899 0.034503 -0.001513
v 0.198263 0.171552 -0.001513
v 0.110505 0.046222 -0.001513
v 0.037393 0.376010 -0.001513
v 0.027322 0.356664 -0.001513
v 0.165988 0.292004 -0.001513
v 0.049111 0.107616 -0.001513
v 0.174442 0.195373 -0.001513
v 0.037393 0.126010 -0.001513
v 0.007697 0.294422 -0.001513
v 0.157269 0.259464 -0.001513
v 0.158373 0.267854 -0.001513
v 0.012418 0.186305 -0.001513
v 0.160205 0.225904 -0.001513
v 0.007697 0.207598 -0.001513
v 0.027322 0.145355 -0.001513
v 0.169895 0.202510 -0.001513
v 0.165988 0.210016 -0.001513
v 0.018976 0.165505 -0.001513
v 0.162749 0.217834 -0.001513
v 0.156899 0.251010 -0.001513
v 0.004851 0.272799 -0.001513
v 0.003899 0.251010 -0.001513
v 0.157269 0.242556 -0.001513
v 0.004851 0.229221 -0.001513
v 0.158373 0.234166 -0.001513
v 0.093202 0.059499 -0.001513
v 0.191549 0.176703 -0.001513
v 0.185310 0.182420 -0.001513
v 0.179593 0.188659 -0.001513
v 0.062388 0.090313 -0.001513
v 0.162749 0.284186 -0.001513
v 0.018976 0.336515 -0.001513
v 0.012418 0.315715 -0.001513
v 0.160205 0.276115 -0.001513
v 0.168394 0.016087 -0.001513
v 0.189195 0.009528 -0.001513
v 0.220724 0.159860 -0.001513
v 0.205399 0.167005 -0.001513
v 0.148245 0.024433 -0.001513
v 0.212905 0.163098 -0.001513
v 0.169895 0.299510 -0.001513
v 0.049111 0.394404 -0.001513
v 0.253899 0.001010 -0.001513
v 0.245445 0.154379 -0.001513
v 0.232111 0.001961 -0.001513
v 0.174442 0.306647 -0.001513
v 0.185310 0.319599 -0.001513
v 0.191549 0.325316 -0.001513
v 0.093202 0.442521 -0.001513
v 0.279005 0.157315 -0.001513
v 0.168394 0.485933 -0.001513
v 0.220724 0.342160 -0.001513
v 0.210487 0.497212 -0.001513
v 0.245445 0.347641 -0.001513
v 0.232111 0.500059 -0.001513
v 0.270743 0.346536 -0.001513
v 0.275688 0.500059 -0.001513
v 0.397294 0.046222 -0.001513
v 0.297312 0.497212 -0.001513
v 0.294893 0.338922 -0.001513
v 0.339405 0.485933 -0.001513
v 0.430676 0.074233 -0.001513
v 0.322489 0.182420 -0.001513
v 0.359554 0.477587 -0.001513
v 0.397294 0.455798 -0.001513
v 0.328206 0.188659 -0.001513
v 0.212905 0.338922 -0.001513
v 0.148245 0.477587 -0.001513
v 0.128899 0.467516 -0.001513
v 0.077123 0.074233 -0.001513
v 0.232111 0.500059 -0.376513
v 0.253899 0.501010 -0.376513
v 0.168394 0.485933 -0.376513
v 0.189195 0.492491 -0.376513
v 0.210487 0.497212 -0.376513
v 0.128899 0.467516 -0.376513
v 0.110505 0.455798 -0.376513
v 0.148245 0.477587 -0.376513
v 0.077123 0.427787 -0.376513
v 0.062388 0.411707 -0.376513
v 0.093202 0.442521 -0.376513
v 0.027322 0.356664 -0.376513
v 0.037393 0.376010 -0.376513
v 0.049111 0.394404 -0.376513
v 0.012418 0.315715 -0.376513
v 0.007697 0.294422 -0.376513
v 0.018976 0.336515 -0.376513
v 0.003899 0.251010 -0.376513
v 0.004851 0.229221 -0.376513
v 0.004851 0.272799 -0.376513
v 0.018976 0.165505 -0.376513
v 0.012418 0.186305 -0.376513
v 0.007697 0.207598 -0.376513
v 0.037393 0.126010 -0.376513
v 0.049111 0.107616 -0.376513
v 0.027322 0.145355 -0.376513
v 0.077123 0.074233 -0.376513
v 0.093202 0.059499 -0.376513
v 0.062388 0.090313 -0.376513
v 0.110505 0.046222 -0.376513
v 0.128899 0.034503 -0.376513
v 0.148245 0.024433 -0.376513
v 0.168394 0.016087 -0.376513
v 0.189195 0.009528 -0.376513
v 0.210487 0.004808 -0.376513
v 0.232111 0.001961 -0.376513
v 0.253899 0.001010 -0.376513
v 0.503900 0.251010 -0.376513
v 0.502948 0.272799 -0.376513
v 0.500102 0.294422 -0.376513
v 0.495381 0.315715 -0.376513
v 0.488823 0.336515 -0.376513
v 0.480477 0.356664 -0.376513
v 0.470406 0.376010 -0.376513
v 0.458688 0.394404 -0.376513
v 0.445411 0.411707 -0.376513
v 0.430676 0.427787 -0.376513
v 0.414596 0.442521 -0.376513
v 0.397294 0.455798 -0.376513
v 0.378900 0.467516 -0.376513
v 0.359554 0.477587 -0.376513
v 0.339405 0.485933 -0.376513
v 0.318604 0.492491 -0.376513
v 0.297312 0.497212 -0.376513
v 0.275688 0.500059 -0.376513
v 0.502948 0.229221 -0.376513
v 0.500102 0.207598 -0.376513
v 0.495381 0.186305 -0.376513
v 0.488823 0.165505 -0.376513
v 0.480477 0.145355 -0.376513
v 0.470406 0.126010 -0.376513
v 0.458688 0.107616 -0.376513
v 0.445411 0.090313 -0.376513
v 0.430676 0.074233 -0.376513
v 0.414596 0.059499 -0.376513
v 0.397294 0.046222 -0.376513
v 0.378900 0.034503 -0.376513
v 0.359554 0.024433 -0.376513
v 0.339405 0.016087 -0.376513
v 0.318604 0.009528 -0.376513
v 0.297312 0.004808 -0.376513
v 0.275688 0.001961 -0.376513
v 0.245445 0.154379 -0.376513
v 0.237056 0.155483 -0.376513
v 0.253899 0.154010 -0.376513
v 0.220724 0.159860 -0.376513
v 0.212905 0.163098 -0.376513
v 0.228794 0.157315 -0.376513
v 0.198263 0.171552 -0.376513
v 0.191549 0.176703 -0.376513
v 0.205399 0.167005 -0.376513
v 0.174442 0.195373 -0.376513
v 0.179593 0.188659 -0.376513
v 0.185310 0.182420 -0.376513
v 0.165988 0.210016 -0.376513
v 0.162749 0.217834 -0.376513
v 0.169895 0.202510 -0.376513
v 0.158373 0.234166 -0.376513
v 0.157269 0.242556 -0.376513
v 0.160205 0.225904 -0.376513
v 0.158373 0.267854 -0.376513
v 0.157269 0.259464 -0.376513
v 0.156899 0.251010 -0.376513
v 0.162749 0.284186 -0.376513
v 0.165988 0.292004 -0.376513
v 0.160205 0.276115 -0.376513
v 0.174442 0.306647 -0.376513
v 0.179593 0.313360 -0.376513
v 0.169895 0.299510 -0.376513
v 0.185310 0.319599 -0.376513
v 0.191549 0.325316 -0.376513
v 0.198263 0.330468 -0.376513
v 0.205399 0.335014 -0.376513
v 0.212905 0.338922 -0.376513
v 0.220724 0.342160 -0.376513
v 0.228794 0.344705 -0.376513
v 0.237056 0.346536 -0.376513
v 0.245445 0.347641 -0.376513
v 0.253899 0.348010 -0.376513
v 0.350900 0.251010 -0.376513
v 0.350530 0.242556 -0.376513
v 0.349426 0.234166 -0.376513
v 0.347594 0.225904 -0.376513
v 0.345050 0.217834 -0.376513
v 0.341811 0.210016 -0.376513
v 0.337904 0.202510 -0.376513
v 0.333357 0.195373 -0.376513
v 0.328206 0.188659 -0.376513
v 0.322489 0.182420 -0.376513
v 0.316250 0.176703 -0.376513
v 0.309536 0.171552 -0.376513
v 0.302400 0.167005 -0.376513
v 0.294893 0.163098 -0.376513
v 0.287075 0.159860 -0.376513
v 0.279005 0.157315 -0.376513
v 0.270743 0.155483 -0.376513
v 0.262354 0.154379 -0.376513
v 0.350530 0.259464 -0.376513
v 0.349426 0.267854 -0.376513
v 0.347594 0.276115 -0.376513
v 0.345050 0.284186 -0.376513
v 0.341811 0.292004 -0.376513
v 0.337904 0.299510 -0.376513
v 0.333357 0.306647 -0.376513
v 0.328206 0.313360 -0.376513
v 0.322489 0.319599 -0.376513
v 0.316250 0.325316 -0.376513
v 0.309536 0.330468 -0.376513
v 0.302400 0.335014 -0.376513
v 0.294893 0.338922 -0.376513
v 0.287075 0.342160 -0.376513
v 0.279005 0.344705 -0.376513
v 0.270743 0.346536 -0.376513
v 0.262354 0.347641 -0.376513
vn 0.0000 0.0000 1.0000
vn -0.0872 0.9962 0.0000
vn -0.0000 1.0000 0.0000
vn -0.3420 0.9397 0.0000
vn -0.2588 0.9659 0.0000
vn -0.1736 0.9848 0.0000
vn -0.5000 0.8660 0.0000
vn -0.5736 0.8192 0.0000
vn -0.4226 0.9063 0.0000
vn -0.7071 0.7071 0.0000
vn -0.7660 0.6428 0.0000
vn -0.6428 0.7660 0.0000
vn -0.9063 0.4226 0.0000
vn -0.8660 0.5000 0.0000
vn -0.8192 0.5736 0.0000
vn -0.9659 0.2588 0.0000
vn -0.9848 0.1736 0.0000
vn -0.9397 0.3420 0.0000
vn -1.0000 0.0000 0.0000
vn -0.9962 -0.0872 0.0000
vn -0.9962 0.0872 0.0000
vn -0.9397 -0.3420 0.0000
vn -0.9659 -0.2588 0.0000
vn -0.9848 -0.1736 0.0000
vn -0.8660 -0.5000 0.0000
vn -0.8192 -0.5736 0.0000
vn -0.9063 -0.4226 0.0000
vn -0.7071 -0.7071 0.0000
vn -0.6428 -0.7660 0.0000
vn -0.7660 -0.6428 0.0000
vn -0.5736 -0.8192 0.0000
vn -0.5000 -0.8660 0.0000
vn -0.4226 -0.9063 0.0000
vn -0.3420 -0.9397 0.0000
vn -0.2588 -0.9659 0.0000
vn -0.1736 -0.9848 0.0000
vn -0.0872 -0.9962 0.0000
vn -0.0000 -1.0000 0.0000
vn 1.0000 -0.0000 0.0000
vn 0.9962 0.0872 0.0000
vn 0.9848 0.1736 0.0000
vn 0.9659 0.2588 0.0000
vn 0.9397 0.3420 0.0000
vn 0.9063 0.4226 0.0000
vn 0.8660 0.5000 0.0000
vn 0.8192 0.5736 0.0000
vn 0.7660 0.6428 0.0000
vn 0.7071 0.7071 0.0000
vn 0.6428 0.7660 0.0000
vn 0.5736 0.8192 0.0000
vn 0.5000 0.8660 0.0000
vn 0.4226 0.9063 0.0000
vn 0.3420 0.9397 0.0000
vn 0.2588 0.9659 0.0000
vn 0.1736 0.9848 0.0000
vn 0.0872 0.9962 0.0000
vn 0.9962 -0.0872 0.0000
vn 0.9848 -0.1736 0.0000
vn 0.9659 -0.2588 0.0000
vn 0.9397 -0.3420 0.0000
vn 0.9063 -0.4226 0.0000
vn 0.8660 -0.5000 0.0000
vn 0.8192 -0.5736 0.0000
vn 0.7660 -0.6428 0.0000
vn 0.7071 -0.7071 0.0000
vn 0.6428 -0.7660 0.0000
vn 0.5736 -0.8192 0.0000
vn 0.5000 -0.8660 0.0000
vn 0.4226 -0.9063 0.0000
vn 0.3420 -0.9397 0.0000
vn 0.2588 -0.9659 0.0000
vn 0.1736 -0.9848 0.0000
vn 0.0872 -0.9962 0.0000
vn -0.9962 0.0871 0.0000
vn -0.9848 0.1737 0.0000
vn -0.8191 0.5736 0.0000
vn -0.9962 -0.0871 0.0000
vn -0.9848 -0.1737 0.0000
vn -0.8191 -0.5736 0.0000
vn -0.0000 0.0000 -1.0000
s 1
f 1//1 2//1 3//1
f 4//1 5//1 6//1
f 6//1 7//1 8//1
f 5//1 9//1 10//1
f 7//1 11//1 12//1
f 13//1 10//1 14//1
f 11//1 15//1 16//1
f 17//1 18//1 13//1
f 15//1 19//1 20//1
f 18//1 21//1 22//1
f 19//1 23//1 24//1
f 25//1 22//1 26//1
f 23//1 27//1 28//1
f 29//1 30//1 25//1
f 27//1 31//1 32//1
f 30//1 33//1 34//1
f 31//1 35//1 36//1
f 37//1 34//1 38//1
f 39//1 40//1 36//1
f 41//1 42//1 43//1
f 44//1 45//1 46//1
f 47//1 48//1 49//1
f 50//1 51//1 52//1
f 53//1 54//1 55//1
f 56//1 57//1 58//1
f 59//1 60//1 61//1
f 62//1 63//1 64//1
f 65//1 66//1 67//1
f 68//1 69//1 70//1
f 71//1 72//1 73//1
f 74//1 75//1 76//1
f 77//1 78//1 79//1
f 80//1 81//1 82//1
f 83//1 84//1 85//1
f 86//1 87//1 88//1
f 89//1 90//1 91//1
f 92//1 91//1 93//1
f 94//1 95//1 96//1
f 97//1 98//1 99//1
f 100//1 101//1 102//1
f 103//1 104//1 102//1
f 105//1 78//1 106//1
f 106//1 107//1 108//1
f 109//1 110//1 111//1
f 112//1 113//1 114//1
f 115//1 116//1 77//1
f 117//1 118//1 119//1
f 71//1 116//1 120//1
f 121//1 122//1 73//1
f 117//1 63//1 62//1
f 64//1 63//1 61//1
f 122//1 67//1 123//1
f 64//1 61//1 60//1
f 124//1 59//1 56//1
f 125//1 126//1 53//1
f 127//1 54//1 128//1
f 124//1 56//1 58//1
f 51//1 58//1 57//1
f 129//1 128//1 47//1
f 48//1 130//1 131//1
f 51//1 57//1 52//1
f 132//1 50//1 52//1
f 130//1 2//1 133//1
f 134//1 135//1 3//1
f 50//1 132//1 42//1
f 136//1 137//1 41//1
f 134//1 45//1 138//1
f 139//1 46//1 40//1
f 136//1 37//1 140//1
f 141//1 126//1 142//1
f 124//1 60//1 59//1
f 107//1 83//1 85//1
f 43//1 42//1 132//1
f 136//1 41//1 43//1
f 136//1 140//1 137//1
f 37//1 38//1 140//1
f 34//1 33//1 38//1
f 30//1 29//1 33//1
f 25//1 26//1 29//1
f 22//1 21//1 26//1
f 18//1 17//1 21//1
f 13//1 14//1 17//1
f 10//1 9//1 14//1
f 5//1 4//1 9//1
f 6//1 8//1 4//1
f 7//1 12//1 8//1
f 11//1 16//1 12//1
f 15//1 20//1 16//1
f 19//1 24//1 20//1
f 23//1 28//1 24//1
f 27//1 32//1 28//1
f 31//1 36//1 32//1
f 39//1 36//1 35//1
f 139//1 40//1 39//1
f 44//1 46//1 139//1
f 138//1 45//1 44//1
f 135//1 134//1 138//1
f 1//1 3//1 135//1
f 133//1 2//1 1//1
f 131//1 130//1 133//1
f 49//1 48//1 131//1
f 129//1 47//1 49//1
f 127//1 128//1 129//1
f 55//1 54//1 127//1
f 125//1 53//1 55//1
f 142//1 126//1 125//1
f 143//1 141//1 142//1
f 66//1 65//1 143//1
f 143//1 65//1 141//1
f 123//1 67//1 66//1
f 73//1 122//1 123//1
f 73//1 72//1 121//1
f 71//1 120//1 72//1
f 116//1 115//1 120//1
f 77//1 79//1 115//1
f 78//1 105//1 79//1
f 106//1 108//1 105//1
f 107//1 85//1 108//1
f 83//1 95//1 84//1
f 96//1 97//1 94//1
f 95//1 94//1 84//1
f 88//1 99//1 98//1
f 98//1 97//1 96//1
f 93//1 87//1 86//1
f 87//1 99//1 88//1
f 91//1 92//1 89//1
f 93//1 86//1 92//1
f 90//1 89//1 82//1
f 81//1 80//1 103//1
f 90//1 82//1 81//1
f 104//1 144//1 102//1
f 80//1 104//1 103//1
f 76//1 101//1 100//1
f 100//1 102//1 144//1
f 112//1 75//1 74//1
f 75//1 101//1 76//1
f 114//1 113//1 109//1
f 112//1 74//1 113//1
f 111//1 110//1 70//1
f 114//1 109//1 111//1
f 68//1 119//1 69//1
f 110//1 68//1 70//1
f 117//1 62//1 118//1
f 119//1 118//1 69//1
f 145//2 49//3 146//3
f 147//4 55//5 148//5
f 149//6 127//6 129//2
f 143//7 150//7 151//8
f 125//4 152//9 142//9
f 153//10 154//11 73//10
f 155//12 123//12 66//8
f 156//13 77//14 157//14
f 116//15 71//11 158//15
f 107//16 159//16 160//17
f 78//13 161//18 106//18
f 162//19 163//20 96//19
f 164//21 95//21 83//17
f 165//22 86//23 166//23
f 88//24 98//20 167//24
f 82//25 168//25 169//26
f 92//22 170//27 89//27
f 171//28 172//29 144//28
f 173//30 104//30 80//26
f 100//29 172//29 174//31
f 172//29 100//29 144//28
f 175//32 76//31 174//31
f 100//29 174//31 76//31
f 175//32 176//33 74//32
f 74//32 76//31 175//32
f 113//33 176//33 177//34
f 176//33 113//33 74//32
f 178//35 109//34 177//34
f 113//33 177//34 109//34
f 178//35 179//36 110//35
f 110//35 109//34 178//35
f 68//36 179//36 180//37
f 179//36 68//36 110//35
f 181//38 119//37 180//37
f 68//36 180//37 119//37
f 117//38 119//37 181//38
f 173//30 171//28 104//30
f 171//28 144//28 104//30
f 82//25 169//26 80//26
f 169//26 173//30 80//26
f 89//27 170//27 168//25
f 89//27 168//25 82//25
f 92//22 86//23 165//22
f 92//22 165//22 170//27
f 166//23 88//24 167//24
f 86//23 88//24 166//23
f 163//20 98//20 96//19
f 167//24 98//20 163//20
f 164//21 162//19 95//21
f 162//19 96//19 95//21
f 107//16 160//17 83//17
f 160//17 164//21 83//17
f 106//18 161//18 159//16
f 106//18 159//16 107//16
f 78//13 77//14 156//13
f 78//13 156//13 161//18
f 157//14 116//15 158//15
f 77//14 116//15 157//14
f 154//11 71//11 73//10
f 158//15 71//11 154//11
f 155//12 153//10 123//12
f 153//10 73//10 123//12
f 143//7 151//8 66//8
f 151//8 155//12 66//8
f 142//9 152//9 150//7
f 142//9 150//7 143//7
f 125//4 55//5 147//4
f 125//4 147//4 152//9
f 148//5 127//6 149//6
f 55//5 127//6 148//5
f 145//2 129//2 49//3
f 149//6 129//2 145//2
f 5//39 182//39 183//40
f 184//41 6//40 183//40
f 5//39 183//40 6//40
f 184//41 185//42 7//41
f 7//41 6//40 184//41
f 11//42 185//42 186//43
f 185//42 11//42 7//41
f 187//44 15//43 186//43
f 11//42 186//43 15//43
f 187//44 188//45 19//44
f 19//44 15//43 187//44
f 23//45 188//45 189//46
f 188//45 23//45 19//44
f 190//47 27//46 189//46
f 23//45 189//46 27//46
f 190//47 191//48 31//47
f 31//47 27//46 190//47
f 35//48 191//48 192//49
f 191//48 35//48 31//47
f 193//50 39//49 192//49
f 35//48 192//49 39//49
f 193//50 194//51 139//50
f 139//50 39//49 193//50
f 44//51 194//51 195//52
f 194//51 44//51 139//50
f 196//53 138//52 195//52
f 44//51 195//52 138//52
f 196//53 197//54 135//53
f 135//53 138//52 196//53
f 1//54 197//54 198//55
f 197//54 1//54 135//53
f 199//56 133//55 198//55
f 1//54 198//55 133//55
f 199//56 146//3 131//56
f 131//56 133//55 199//56
f 146//3 49//3 131//56
f 10//57 182//39 5//39
f 10//57 13//58 200//57
f 200//57 182//39 10//57
f 201//58 13//58 18//59
f 13//58 201//58 200//57
f 22//60 202//59 18//59
f 201//58 18//59 202//59
f 22//60 25//61 203//60
f 203//60 202//59 22//60
f 204//61 25//61 30//62
f 25//61 204//61 203//60
f 34//63 205//62 30//62
f 204//61 30//62 205//62
f 34//63 37//64 206//63
f 206//63 205//62 34//63
f 207//64 37//64 136//65
f 37//64 207//64 206//63
f 43//66 208//65 136//65
f 207//64 136//65 208//65
f 43//66 132//67 209//66
f 209//66 208//65 43//66
f 210//67 132//67 52//68
f 132//67 210//67 209//66
f 57//69 211//68 52//68
f 210//67 52//68 211//68
f 57//69 56//70 212//69
f 212//69 211//68 57//69
f 213//70 56//70 59//71
f 56//70 213//70 212//69
f 61//72 214//71 59//71
f 213//70 59//71 214//71
f 61//72 63//73 215//72
f 215//72 214//71 61//72
f 216//73 63//73 117//38
f 63//73 216//73 215//72
f 216//73 117//38 181//38
f 69//55 217//56 218//55
f 219//3 118//56 62//3
f 220//53 221//52 114//52
f 111//53 70//54 222//54
f 101//49 223//50 224//49
f 75//50 112//51 225//51
f 226//46 81//46 227//47
f 228//48 103//47 102//48
f 229//44 230//43 93//43
f 90//45 231//45 91//44
f 97//40 232//41 233//40
f 99//41 87//42 234//42
f 235//58 85//58 236//57
f 237//39 84//57 94//39
f 238//60 239//61 79//61
f 108//59 240//59 105//60
f 72//64 241//63 242//64
f 120//63 115//62 243//62
f 122//66 244//65 245//66
f 244//65 122//66 121//65
f 245//66 246//67 67//67
f 67//67 122//66 245//66
f 247//68 65//68 246//67
f 67//67 246//67 65//68
f 141//69 247//68 248//69
f 247//68 141//69 65//68
f 248//69 249//70 126//70
f 126//70 141//69 248//69
f 250//71 53//71 249//70
f 126//70 249//70 53//71
f 54//72 250//71 251//72
f 250//71 54//72 53//71
f 251//72 252//73 128//73
f 128//73 54//72 251//72
f 253//38 47//38 252//73
f 128//73 252//73 47//38
f 121//65 72//64 242//64
f 121//65 242//64 244//65
f 243//62 241//63 120//63
f 120//63 241//63 72//64
f 239//61 115//62 79//61
f 239//61 243//62 115//62
f 238//60 105//60 240//59
f 238//60 79//61 105//60
f 108//59 85//58 235//58
f 240//59 108//59 235//58
f 84//57 237//39 236//57
f 85//58 84//57 236//57
f 97//40 233//40 94//39
f 94//39 233//40 237//39
f 234//42 232//41 99//41
f 99//41 232//41 97//40
f 230//43 87//42 93//43
f 230//43 234//42 87//42
f 229//44 91//44 231//45
f 229//44 93//43 91//44
f 90//45 81//46 226//46
f 231//45 90//45 226//46
f 103//47 228//48 227//47
f 81//46 103//47 227//47
f 101//49 224//49 102//48
f 102//48 224//49 228//48
f 225//51 223//50 75//50
f 75//50 223//50 101//49
f 221//52 112//51 114//52
f 221//52 225//51 112//51
f 220//53 111//53 222//54
f 220//53 114//52 111//53
f 70//54 69//55 218//55
f 222//54 70//54 218//55
f 118//56 219//3 217//56
f 69//55 118//56 217//56
f 9//19 254//19 14//21
f 255//74 17//75 14//21
f 14//21 254//19 255//74
f 21//16 17//75 256//17
f 255//74 256//17 17//75
f 21//16 257//16 26//18
f 257//16 21//16 256//17
f 258//18 29//13 26//18
f 26//18 257//16 258//18
f 33//14 29//13 259//13
f 258//18 259//13 29//13
f 33//14 260//14 38//15
f 260//14 33//14 259//13
f 261//76 140//11 38//15
f 38//15 260//14 261//76
f 137//10 140//11 262//11
f 261//76 262//11 140//11
f 137//10 263//10 41//12
f 263//10 137//10 262//11
f 264//12 42//8 41//12
f 41//12 263//10 264//12
f 50//7 42//8 265//8
f 264//12 265//8 42//8
f 50//7 266//7 51//9
f 266//7 50//7 265//8
f 267//9 58//4 51//9
f 51//9 266//7 267//9
f 124//5 58//4 268//4
f 267//9 268//4 58//4
f 124//5 269//5 60//6
f 269//5 124//5 268//4
f 270//6 64//2 60//6
f 60//6 269//5 270//6
f 62//3 64//2 271//2
f 270//6 271//2 64//2
f 219//3 62//3 271//2
f 272//20 254//19 9//19
f 272//20 4//77 273//78
f 4//77 272//20 9//19
f 8//24 274//23 273//78
f 273//78 4//77 8//24
f 275//22 274//23 12//23
f 8//24 12//23 274//23
f 275//22 16//22 276//27
f 16//22 275//22 12//23
f 20//27 277//25 276//27
f 276//27 16//22 20//27
f 278//26 277//25 24//25
f 20//27 24//25 277//25
f 278//26 28//79 279//30
f 28//79 278//26 24//25
f 32//30 280//28 279//30
f 279//30 28//79 32//30
f 281//29 280//28 36//28
f 32//30 36//28 280//28
f 281//29 40//29 282//31
f 40//29 281//29 36//28
f 46//31 283//32 282//31
f 282//31 40//29 46//31
f 284//33 283//32 45//32
f 46//31 45//32 283//32
f 284//33 134//33 285//34
f 134//33 284//33 45//32
f 3//34 286//35 285//34
f 285//34 134//33 3//34
f 287//36 286//35 2//35
f 3//34 2//35 286//35
f 287//36 130//36 288//37
f 130//36 287//36 2//35
f 48//37 253//38 288//37
f 288//37 130//36 48//37
f 48//37 47//38 253//38
f 163//80 232//80 167//80
f 149//80 145//80 252//80
f 167//80 234//80 166//80
f 162//80 233//80 163//80
f 166//80 230//80 165//80
f 237//80 162//80 164//80
f 165//80 229//80 170//80
f 164//80 160//80 236//80
f 170//80 231//80 168//80
f 159//80 235//80 160//80
f 240//80 159//80 161//80
f 156//80 238//80 161//80
f 168//80 226//80 169//80
f 239//80 156//80 157//80
f 169//80 227//80 173//80
f 157//80 158//80 243//80
f 173//80 228//80 171//80
f 154//80 241//80 158//80
f 172//80 228//80 224//80
f 245//80 155//80 246//80
f 175//80 223//80 225//80
f 247//80 150//80 248//80
f 220//80 222//80 178//80
f 249//80 152//80 147//80
f 219//80 181//80 217//80
f 268//80 267//80 212//80
f 269//80 214//80 270//80
f 253//80 252//80 145//80
f 266//80 265//80 210//80
f 198//80 286//80 287//80
f 207//80 208//80 262//80
f 194//80 193//80 282//80
f 205//80 259//80 204//80
f 189//80 188//80 278//80
f 201//80 256//80 255//80
f 185//80 184//80 274//80
f 277//80 187//80 276//80
f 276//80 186//80 275//80
f 200//80 254//80 182//80
f 183//80 272//80 273//80
f 281//80 192//80 280//80
f 190//80 279//80 280//80
f 204//80 258//80 203//80
f 202//80 203//80 257//80
f 197//80 196//80 285//80
f 195//80 283//80 284//80
f 206//80 207//80 261//80
f 260//80 205//80 206//80
f 145//80 146//80 253//80
f 199//80 288//80 146//80
f 265//80 264//80 209//80
f 208//80 264//80 263//80
f 251//80 149//80 252//80
f 213//80 269//80 268//80
f 211//80 267//80 266//80
f 250//80 249//80 147//80
f 148//80 250//80 147//80
f 216//80 219//80 271//80
f 270//80 215//80 271//80
f 248//80 150//80 152//80
f 249//80 248//80 152//80
f 180//80 218//80 217//80
f 151//80 150//80 247//80
f 218//80 179//80 222//80
f 221//80 220//80 177//80
f 202//80 256//80 201//80
f 153//80 245//80 244//80
f 221//80 176//80 225//80
f 174//80 224//80 223//80
f 153//80 242//80 154//80
f 250//80 148//80 251//80
f 149//80 251//80 148//80
f 155//80 151//80 246//80
f 151//80 247//80 246//80
f 153//80 155//80 245//80
f 153//80 244//80 242//80
f 154//80 242//80 241//80
f 158//80 241//80 243//80
f 157//80 243//80 239//80
f 156//80 239//80 238//80
f 161//80 238//80 240//80
f 159//80 240//80 235//80
f 160//80 235//80 236//80
f 164//80 236//80 237//80
f 162//80 237//80 233//80
f 163//80 233//80 232//80
f 167//80 232//80 234//80
f 166//80 234//80 230//80
f 165//80 230//80 229//80
f 170//80 229//80 231//80
f 168//80 231//80 226//80
f 169//80 226//80 227//80
f 173//80 227//80 228//80
f 172//80 171//80 228//80
f 174//80 172//80 224//80
f 175//80 174//80 223//80
f 176//80 175//80 225//80
f 177//80 176//80 221//80
f 178//80 177//80 220//80
f 179//80 178//80 222//80
f 180//80 179//80 218//80
f 181//80 180//80 217//80
f 216//80 181//80 219//80
f 215//80 216//80 271//80
f 214//80 215//80 270//80
f 213//80 214//80 269//80
f 212//80 213//80 268//80
f 211//80 212//80 267//80
f 210//80 211//80 266//80
f 209//80 210//80 265//80
f 208//80 209//80 264//80
f 208//80 263//80 262//80
f 207//80 262//80 261//80
f 206//80 261//80 260//80
f 205//80 260//80 259//80
f 204//80 259//80 258//80
f 203//80 258//80 257//80
f 202//80 257//80 256//80
f 201//80 255//80 200//80
f 182//80 254//80 272//80
f 200//80 255//80 254//80
f 184//80 183//80 273//80
f 183//80 182//80 272//80
f 275//80 185//80 274//80
f 274//80 184//80 273//80
f 276//80 187//80 186//80
f 275//80 186//80 185//80
f 277//80 188//80 187//80
f 278//80 279//80 189//80
f 277//80 278//80 188//80
f 190//80 280//80 191//80
f 189//80 279//80 190//80
f 193//80 192//80 281//80
f 192//80 191//80 280//80
f 283//80 194//80 282//80
f 282//80 193//80 281//80
f 284//80 196//80 195//80
f 283//80 195//80 194//80
f 285//80 286//80 197//80
f 284//80 285//80 196//80
f 198//80 287//80 199//80
f 197//80 286//80 198//80
f 146//80 288//80 253//80
f 199//80 287//80 288//80
