# Blender v3.5.0 OBJ File: 'spacer.blend'
# www.blender.org
o Teflon_Washer_(275-1025)
v 0.442428 0.251255 -0.000738
v 0.442428 0.251255 -0.042738
v 0.441715 0.267596 -0.042738
v 0.439580 0.283814 -0.042738
v 0.441715 0.267596 -0.000738
v 0.436039 0.299783 -0.042738
v 0.439580 0.283814 -0.000738
v 0.436039 0.299783 -0.000738
v 0.431121 0.315384 -0.042738
v 0.424861 0.330496 -0.042738
v 0.431121 0.315384 -0.000738
v 0.417308 0.345005 -0.042738
v 0.424861 0.330496 -0.000738
v 0.417308 0.345005 -0.000738
v 0.408519 0.358800 -0.042738
v 0.398561 0.371777 -0.042738
v 0.408519 0.358800 -0.000738
v 0.387511 0.383837 -0.042738
v 0.398561 0.371777 -0.000738
v 0.387511 0.383837 -0.000738
v 0.375451 0.394888 -0.042738
v 0.362474 0.404846 -0.042738
v 0.375451 0.394888 -0.000738
v 0.348678 0.413635 -0.042738
v 0.362474 0.404846 -0.000738
v 0.348678 0.413635 -0.000738
v 0.334169 0.421188 -0.042738
v 0.319057 0.427447 -0.042738
v 0.334169 0.421188 -0.000738
v 0.303457 0.432366 -0.042738
v 0.319057 0.427447 -0.000738
v 0.303457 0.432366 -0.000738
v 0.287487 0.435906 -0.042738
v 0.271270 0.438041 -0.042738
v 0.287487 0.435906 -0.000738
v 0.254928 0.438755 -0.042738
v 0.271270 0.438041 -0.000738
v 0.254928 0.438755 -0.000738
v 0.441715 0.234913 -0.000738
v 0.439580 0.218696 -0.000738
v 0.441715 0.234913 -0.042738
v 0.439580 0.218696 -0.042738
v 0.436039 0.202726 -0.000738
v 0.431121 0.187126 -0.000738
v 0.436039 0.202726 -0.042738
v 0.424861 0.172014 -0.000738
v 0.431121 0.187126 -0.042738
v 0.424861 0.172014 -0.042738
v 0.417308 0.157505 -0.000738
v 0.408519 0.143709 -0.000738
v 0.417308 0.157505 -0.042738
v 0.398561 0.130732 -0.000738
v 0.408519 0.143709 -0.042738
v 0.398561 0.130732 -0.042738
v 0.387511 0.118672 -0.000738
v 0.375451 0.107621 -0.000738
v 0.387511 0.118672 -0.042738
v 0.362474 0.097664 -0.000738
v 0.375451 0.107621 -0.042738
v 0.362474 0.097664 -0.042738
v 0.348678 0.088875 -0.000738
v 0.334169 0.081322 -0.000738
v 0.348678 0.088875 -0.042738
v 0.319057 0.075062 -0.000738
v 0.334169 0.081322 -0.042738
v 0.319057 0.075062 -0.042738
v 0.303457 0.070144 -0.000738
v 0.287487 0.066603 -0.000738
v 0.303457 0.070144 -0.042738
v 0.271270 0.064468 -0.000738
v 0.287487 0.066603 -0.042738
v 0.271270 0.064468 -0.042738
v 0.254928 0.063755 -0.000738
v 0.254928 0.063755 -0.042738
v 0.068141 0.234913 -0.042738
v 0.169742 0.236234 -0.042738
v 0.070276 0.218696 -0.042738
v 0.222369 0.435906 -0.042738
v 0.238586 0.438041 -0.042738
v 0.247389 0.337426 -0.042738
v 0.171375 0.228867 -0.042738
v 0.073817 0.202726 -0.042738
v 0.067428 0.251255 -0.042738
v 0.168757 0.243716 -0.042738
v 0.173645 0.221670 -0.042738
v 0.078736 0.187126 -0.042738
v 0.168428 0.251255 -0.042738
v 0.068141 0.267596 -0.042738
v 0.176532 0.214698 -0.042738
v 0.084995 0.172014 -0.042738
v 0.070276 0.283814 -0.042738
v 0.168757 0.258794 -0.042738
v 0.180017 0.208005 -0.042738
v 0.092548 0.157505 -0.042738
v 0.073817 0.299783 -0.042738
v 0.169742 0.266275 -0.042738
v 0.171375 0.273643 -0.042738
v 0.078736 0.315384 -0.042738
v 0.084995 0.330496 -0.042738
v 0.173645 0.280840 -0.042738
v 0.184071 0.201640 -0.042738
v 0.101337 0.143709 -0.042738
v 0.176532 0.287811 -0.042738
v 0.092548 0.345005 -0.042738
v 0.188665 0.195654 -0.042738
v 0.111295 0.130732 -0.042738
v 0.101337 0.358800 -0.042738
v 0.180017 0.294505 -0.042738
v 0.193763 0.190090 -0.042738
v 0.122345 0.118672 -0.042738
v 0.111295 0.371777 -0.042738
v 0.184071 0.300869 -0.042738
v 0.134405 0.107621 -0.042738
v 0.199327 0.184992 -0.042738
v 0.199327 0.317518 -0.042738
v 0.134405 0.394888 -0.042738
v 0.205314 0.322111 -0.042738
v 0.161178 0.088875 -0.042738
v 0.205314 0.180398 -0.042738
v 0.211678 0.176344 -0.042738
v 0.211678 0.326166 -0.042738
v 0.161178 0.413635 -0.042738
v 0.218372 0.329650 -0.042738
v 0.232540 0.167702 -0.042738
v 0.206399 0.070144 -0.042738
v 0.225343 0.169971 -0.042738
v 0.225343 0.332538 -0.042738
v 0.175687 0.421188 -0.042738
v 0.190799 0.427447 -0.042738
v 0.254928 0.164755 -0.042738
v 0.247389 0.165084 -0.042738
v 0.239907 0.336441 -0.042738
v 0.232540 0.334807 -0.042738
v 0.206399 0.432366 -0.042738
v 0.277316 0.167702 -0.042738
v 0.269949 0.166069 -0.042738
v 0.254928 0.337755 -0.042738
v 0.298178 0.176344 -0.042738
v 0.304542 0.180398 -0.042738
v 0.277316 0.334807 -0.042738
v 0.269949 0.336441 -0.042738
v 0.321191 0.195654 -0.042738
v 0.304542 0.322111 -0.042738
v 0.333324 0.214698 -0.042738
v 0.325785 0.300869 -0.042738
v 0.340114 0.236234 -0.042738
v 0.341099 0.243716 -0.042738
v 0.338481 0.273643 -0.042738
v 0.329839 0.294505 -0.042738
v 0.333324 0.287811 -0.042738
v 0.336212 0.280840 -0.042738
v 0.341428 0.251255 -0.042738
v 0.341099 0.258794 -0.042738
v 0.340114 0.266275 -0.042738
v 0.310529 0.317518 -0.042738
v 0.316093 0.312420 -0.042738
v 0.321191 0.306856 -0.042738
v 0.336212 0.221670 -0.042738
v 0.338481 0.228867 -0.042738
v 0.284513 0.332538 -0.042738
v 0.298178 0.326166 -0.042738
v 0.291485 0.329650 -0.042738
v 0.325785 0.201640 -0.042738
v 0.329839 0.208005 -0.042738
v 0.262467 0.337426 -0.042738
v 0.310529 0.184992 -0.042738
v 0.316093 0.190090 -0.042738
v 0.284513 0.169971 -0.042738
v 0.291485 0.172859 -0.042738
v 0.262467 0.165084 -0.042738
v 0.238586 0.064468 -0.042738
v 0.239907 0.166069 -0.042738
v 0.147382 0.404846 -0.042738
v 0.222369 0.066603 -0.042738
v 0.190799 0.075062 -0.042738
v 0.218372 0.172859 -0.042738
v 0.122345 0.383837 -0.042738
v 0.193763 0.312420 -0.042738
v 0.175687 0.081322 -0.042738
v 0.147382 0.097664 -0.042738
v 0.188665 0.306856 -0.042738
v 0.206399 0.432366 -0.000738
v 0.222369 0.435906 -0.000738
v 0.238586 0.438041 -0.000738
v 0.161178 0.413635 -0.000738
v 0.190799 0.427447 -0.000738
v 0.175687 0.421188 -0.000738
v 0.122345 0.383837 -0.000738
v 0.134405 0.394888 -0.000738
v 0.147382 0.404846 -0.000738
v 0.092548 0.345005 -0.000738
v 0.101337 0.358800 -0.000738
v 0.111295 0.371777 -0.000738
v 0.073817 0.299783 -0.000738
v 0.084995 0.330496 -0.000738
v 0.078736 0.315384 -0.000738
v 0.067428 0.251255 -0.000738
v 0.068141 0.267596 -0.000738
v 0.070276 0.283814 -0.000738
v 0.073817 0.202726 -0.000738
v 0.070276 0.218696 -0.000738
v 0.068141 0.234913 -0.000738
v 0.092548 0.157505 -0.000738
v 0.078736 0.187126 -0.000738
v 0.084995 0.172014 -0.000738
v 0.122345 0.118672 -0.000738
v 0.111295 0.130732 -0.000738
v 0.101337 0.143709 -0.000738
v 0.134405 0.107621 -0.000738
v 0.147382 0.097664 -0.000738
v 0.161178 0.088875 -0.000738
v 0.175687 0.081322 -0.000738
v 0.190799 0.075062 -0.000738
v 0.206399 0.070144 -0.000738
v 0.222369 0.066603 -0.000738
v 0.238586 0.064468 -0.000738
v 0.284513 0.332538 -0.000738
v 0.277316 0.334807 -0.000738
v 0.341099 0.258794 -0.000738
v 0.340114 0.266275 -0.000738
v 0.341428 0.251255 -0.000738
v 0.338481 0.273643 -0.000738
v 0.341099 0.243716 -0.000738
v 0.336212 0.280840 -0.000738
v 0.340114 0.236234 -0.000738
v 0.333324 0.287811 -0.000738
v 0.338481 0.228867 -0.000738
v 0.329839 0.294505 -0.000738
v 0.336212 0.221670 -0.000738
v 0.325785 0.300869 -0.000738
v 0.333324 0.214698 -0.000738
v 0.321191 0.306856 -0.000738
v 0.329839 0.208005 -0.000738
v 0.316093 0.312420 -0.000738
v 0.325785 0.201640 -0.000738
v 0.310529 0.317518 -0.000738
v 0.310529 0.184992 -0.000738
v 0.304542 0.180398 -0.000738
v 0.298178 0.326166 -0.000738
v 0.304542 0.322111 -0.000738
v 0.254928 0.337755 -0.000738
v 0.262467 0.337426 -0.000738
v 0.298178 0.176344 -0.000738
v 0.291485 0.172859 -0.000738
v 0.232540 0.334807 -0.000738
v 0.239907 0.336441 -0.000738
v 0.284513 0.169971 -0.000738
v 0.277316 0.167702 -0.000738
v 0.269949 0.166069 -0.000738
v 0.254928 0.164755 -0.000738
v 0.262467 0.165084 -0.000738
v 0.239907 0.166069 -0.000738
v 0.232540 0.167702 -0.000738
v 0.188665 0.306856 -0.000738
v 0.205314 0.180398 -0.000738
v 0.176532 0.287811 -0.000738
v 0.184071 0.201640 -0.000738
v 0.168757 0.258794 -0.000738
v 0.169742 0.266275 -0.000738
v 0.171375 0.228867 -0.000738
v 0.180017 0.208005 -0.000738
v 0.176532 0.214698 -0.000738
v 0.173645 0.221670 -0.000738
v 0.168428 0.251255 -0.000738
v 0.168757 0.243716 -0.000738
v 0.169742 0.236234 -0.000738
v 0.199327 0.184992 -0.000738
v 0.193763 0.190090 -0.000738
v 0.188665 0.195654 -0.000738
v 0.173645 0.280840 -0.000738
v 0.171375 0.273643 -0.000738
v 0.225343 0.169971 -0.000738
v 0.211678 0.176344 -0.000738
v 0.218372 0.172859 -0.000738
v 0.180017 0.294505 -0.000738
v 0.247389 0.165084 -0.000738
v 0.184071 0.300869 -0.000738
v 0.193763 0.312420 -0.000738
v 0.199327 0.317518 -0.000738
v 0.205314 0.322111 -0.000738
v 0.225343 0.332538 -0.000738
v 0.247389 0.337426 -0.000738
v 0.269949 0.336441 -0.000738
v 0.291485 0.329650 -0.000738
v 0.316093 0.190090 -0.000738
v 0.321191 0.195654 -0.000738
v 0.211678 0.326166 -0.000738
v 0.218372 0.329650 -0.000738
vn 0.9990 0.0436 0.0000
vn 0.9914 0.1305 0.0000
vn 0.9763 0.2164 0.0000
vn 0.9537 0.3007 0.0000
vn 0.9239 0.3827 0.0000
vn 0.8870 0.4617 0.0000
vn 0.8434 0.5373 0.0000
vn 0.8870 0.4618 0.0000
vn 0.7934 0.6088 0.0000
vn 0.7373 0.6756 0.0000
vn 0.6756 0.7373 0.0000
vn 0.6088 0.7934 0.0000
vn 0.5373 0.8434 0.0000
vn 0.4617 0.8870 0.0000
vn 0.3827 0.9239 0.0000
vn 0.3007 0.9537 0.0000
vn 0.2164 0.9763 0.0000
vn 0.1305 0.9914 0.0000
vn 0.0436 0.9990 0.0000
vn 0.9990 -0.0436 0.0000
vn 0.9914 -0.1305 0.0000
vn 0.9763 -0.2164 0.0000
vn 0.9537 -0.3007 0.0000
vn 0.9239 -0.3827 0.0000
vn 0.8870 -0.4617 0.0000
vn 0.8434 -0.5373 0.0000
vn 0.8870 -0.4618 0.0000
vn 0.7934 -0.6088 0.0000
vn 0.7373 -0.6756 0.0000
vn 0.6756 -0.7373 0.0000
vn 0.6088 -0.7934 0.0000
vn 0.5373 -0.8434 0.0000
vn 0.4617 -0.8870 0.0000
vn 0.3827 -0.9239 0.0000
vn 0.3007 -0.9537 0.0000
vn 0.2164 -0.9763 0.0000
vn 0.1305 -0.9914 0.0000
vn 0.0436 -0.9990 0.0000
vn 0.0000 0.0000 -1.0000
vn -0.0436 0.9990 0.0000
vn -0.3007 0.9537 0.0000
vn -0.1305 0.9914 0.0000
vn -0.5373 0.8434 0.0000
vn -0.3827 0.9239 0.0000
vn -0.7373 0.6756 0.0000
vn -0.6088 0.7934 0.0000
vn -0.8870 0.4617 0.0000
vn -0.7934 0.6088 0.0000
vn -0.9763 0.2164 0.0000
vn -0.9239 0.3827 0.0000
vn -0.9990 -0.0436 0.0000
vn -0.9914 0.1305 0.0000
vn -0.9537 -0.3007 0.0000
vn -0.9914 -0.1305 0.0000
vn -0.8434 -0.5373 0.0000
vn -0.9239 -0.3827 0.0000
vn -0.6756 -0.7373 0.0000
vn -0.7934 -0.6088 0.0000
vn -0.6088 -0.7934 0.0000
vn -0.5373 -0.8434 0.0000
vn -0.4617 -0.8870 0.0000
vn -0.3827 -0.9239 0.0000
vn -0.3007 -0.9537 0.0000
vn -0.2164 -0.9763 0.0000
vn -0.1305 -0.9914 0.0000
vn -0.0436 -0.9990 0.0000
vn -0.7373 -0.6756 0.0000
vn -0.8870 -0.4617 0.0000
vn -0.9763 -0.2164 0.0000
vn -0.9990 0.0436 0.0000
vn -0.9537 0.3007 0.0000
vn -0.8434 0.5373 0.0000
vn -0.6756 0.7373 0.0000
vn -0.4617 0.8870 0.0000
vn -0.2164 0.9763 0.0000
vn -0.0000 0.0000 1.0000
vn -0.4618 0.8870 0.0000
vn -0.4618 -0.8870 0.0000
s off
f 1//1 2//1 3//1
f 4//2 5//2 3//2
f 1//1 3//1 5//1
f 4//3 6//3 7//3
f 7//2 5//2 4//2
f 8//4 6//4 9//4
f 6//3 8//3 7//3
f 10//5 11//5 9//5
f 8//4 9//4 11//4
f 10//6 12//6 13//6
f 13//5 11//5 10//5
f 14//7 12//7 15//7
f 12//8 14//8 13//8
f 16//9 17//9 15//9
f 14//7 15//7 17//7
f 16//10 18//10 19//10
f 19//9 17//9 16//9
f 20//11 18//11 21//11
f 18//10 20//10 19//10
f 22//12 23//12 21//12
f 20//11 21//11 23//11
f 22//13 24//13 25//13
f 25//12 23//12 22//12
f 26//14 24//14 27//14
f 24//13 26//13 25//13
f 28//15 29//15 27//15
f 26//14 27//14 29//14
f 28//16 30//16 31//16
f 31//15 29//15 28//15
f 32//17 30//17 33//17
f 30//16 32//16 31//16
f 34//18 35//18 33//18
f 32//17 33//17 35//17
f 34//19 36//19 37//19
f 37//18 35//18 34//18
f 36//19 38//19 37//19
f 39//20 2//20 1//20
f 39//21 40//21 41//21
f 41//20 2//20 39//20
f 42//22 40//22 43//22
f 40//21 42//21 41//21
f 44//23 45//23 43//23
f 42//22 43//22 45//22
f 44//24 46//24 47//24
f 47//23 45//23 44//23
f 48//25 46//25 49//25
f 46//24 48//24 47//24
f 50//26 51//26 49//26
f 48//27 49//27 51//27
f 50//28 52//28 53//28
f 53//26 51//26 50//26
f 54//29 52//29 55//29
f 52//28 54//28 53//28
f 56//30 57//30 55//30
f 54//29 55//29 57//29
f 56//31 58//31 59//31
f 59//30 57//30 56//30
f 60//32 58//32 61//32
f 58//31 60//31 59//31
f 62//33 63//33 61//33
f 60//32 61//32 63//32
f 62//34 64//34 65//34
f 65//33 63//33 62//33
f 66//35 64//35 67//35
f 64//34 66//34 65//34
f 68//36 69//36 67//36
f 66//35 67//35 69//35
f 68//37 70//37 71//37
f 71//36 69//36 68//36
f 72//38 70//38 73//38
f 70//37 72//37 71//37
f 72//38 73//38 74//38
f 75//39 76//39 77//39
f 78//39 79//39 80//39
f 77//39 81//39 82//39
f 83//39 84//39 75//39
f 82//39 85//39 86//39
f 87//39 83//39 88//39
f 86//39 89//39 90//39
f 88//39 91//39 92//39
f 90//39 93//39 94//39
f 95//39 96//39 91//39
f 97//39 95//39 98//39
f 99//39 100//39 98//39
f 94//39 101//39 102//39
f 103//39 99//39 104//39
f 102//39 105//39 106//39
f 104//39 107//39 108//39
f 106//39 109//39 110//39
f 111//39 112//39 107//39
f 113//39 109//39 114//39
f 115//39 116//39 117//39
f 118//39 119//39 120//39
f 121//39 122//39 123//39
f 124//39 125//39 126//39
f 127//39 128//39 129//39
f 130//39 74//39 131//39
f 132//39 133//39 134//39
f 135//39 69//39 136//39
f 137//39 80//39 79//39
f 138//39 139//39 60//39
f 33//39 140//39 141//39
f 54//39 57//39 142//39
f 24//39 22//39 143//39
f 51//39 144//39 48//39
f 15//39 12//39 145//39
f 42//39 146//39 147//39
f 6//39 4//39 148//39
f 149//39 10//39 150//39
f 150//39 9//39 151//39
f 41//39 152//39 2//39
f 3//39 153//39 154//39
f 155//39 21//39 156//39
f 16//39 157//39 156//39
f 48//39 158//39 47//39
f 45//39 47//39 159//39
f 30//39 28//39 160//39
f 27//39 161//39 162//39
f 53//39 54//39 163//39
f 164//39 51//39 53//39
f 79//39 36//39 137//39
f 34//39 165//39 36//39
f 139//39 166//39 59//39
f 57//39 166//39 167//39
f 132//39 78//39 80//39
f 66//39 135//39 168//39
f 168//39 169//39 65//39
f 133//39 127//39 129//39
f 134//39 133//39 129//39
f 72//39 130//39 170//39
f 136//39 71//39 170//39
f 123//39 122//39 128//39
f 127//39 123//39 128//39
f 171//39 172//39 131//39
f 173//39 122//39 121//39
f 172//39 174//39 124//39
f 126//39 175//39 176//39
f 45//39 146//39 42//39
f 177//39 115//39 178//39
f 176//39 179//39 120//39
f 180//39 114//39 119//39
f 177//39 181//39 111//39
f 134//39 78//39 132//39
f 63//39 169//39 138//39
f 116//39 173//39 117//39
f 173//39 121//39 117//39
f 177//39 116//39 115//39
f 177//39 178//39 181//39
f 111//39 181//39 112//39
f 107//39 112//39 108//39
f 104//39 108//39 103//39
f 99//39 103//39 100//39
f 98//39 100//39 97//39
f 95//39 97//39 96//39
f 91//39 96//39 92//39
f 88//39 92//39 87//39
f 83//39 87//39 84//39
f 75//39 84//39 76//39
f 77//39 76//39 81//39
f 82//39 81//39 85//39
f 86//39 85//39 89//39
f 90//39 89//39 93//39
f 94//39 93//39 101//39
f 102//39 101//39 105//39
f 106//39 105//39 109//39
f 113//39 110//39 109//39
f 180//39 113//39 114//39
f 118//39 180//39 119//39
f 179//39 118//39 120//39
f 175//39 179//39 176//39
f 125//39 175//39 126//39
f 174//39 125//39 124//39
f 171//39 174//39 172//39
f 74//39 171//39 131//39
f 72//39 74//39 130//39
f 71//39 72//39 170//39
f 69//39 71//39 136//39
f 66//39 69//39 135//39
f 65//39 66//39 168//39
f 63//39 65//39 169//39
f 60//39 63//39 138//39
f 59//39 60//39 139//39
f 57//39 59//39 166//39
f 57//39 167//39 142//39
f 54//39 142//39 163//39
f 53//39 163//39 164//39
f 51//39 164//39 144//39
f 48//39 144//39 158//39
f 47//39 158//39 159//39
f 45//39 159//39 146//39
f 42//39 147//39 41//39
f 2//39 152//39 153//39
f 41//39 147//39 152//39
f 4//39 3//39 154//39
f 3//39 2//39 153//39
f 151//39 6//39 148//39
f 148//39 4//39 154//39
f 150//39 10//39 9//39
f 151//39 9//39 6//39
f 149//39 12//39 10//39
f 145//39 157//39 15//39
f 149//39 145//39 12//39
f 16//39 156//39 18//39
f 15//39 157//39 16//39
f 22//39 21//39 155//39
f 21//39 18//39 156//39
f 161//39 24//39 143//39
f 143//39 22//39 155//39
f 162//39 28//39 27//39
f 161//39 27//39 24//39
f 160//39 140//39 30//39
f 162//39 160//39 28//39
f 33//39 141//39 34//39
f 30//39 140//39 33//39
f 36//39 165//39 137//39
f 34//39 141//39 165//39
f 79//40 38//40 36//40
f 129//41 182//41 134//41
f 78//42 183//42 184//42
f 185//43 122//43 173//43
f 186//44 128//44 187//44
f 177//45 111//45 188//45
f 116//46 189//46 190//46
f 99//47 191//47 104//47
f 192//48 193//48 107//48
f 194//49 95//49 91//49
f 195//50 98//50 196//50
f 83//51 75//51 197//51
f 88//52 198//52 199//52
f 86//53 200//53 82//53
f 201//54 202//54 77//54
f 203//55 94//55 102//55
f 204//56 90//56 205//56
f 110//57 113//57 206//57
f 106//58 207//58 208//58
f 209//59 113//59 180//59
f 113//57 209//57 206//57
f 118//60 210//60 180//60
f 209//59 180//59 210//59
f 118//61 179//61 211//61
f 211//60 210//60 118//60
f 212//62 179//62 175//62
f 179//61 212//61 211//61
f 125//63 213//63 175//63
f 212//62 175//62 213//62
f 125//64 174//64 214//64
f 214//63 213//63 125//63
f 215//65 174//65 171//65
f 174//64 215//64 214//64
f 74//66 216//66 171//66
f 215//65 171//65 216//65
f 73//66 216//66 74//66
f 106//67 110//67 207//67
f 110//67 206//67 207//67
f 203//55 102//55 208//55
f 102//58 106//58 208//58
f 205//68 90//68 94//68
f 205//68 94//68 203//68
f 204//53 200//53 86//53
f 204//56 86//56 90//56
f 82//69 201//69 77//69
f 200//69 201//69 82//69
f 75//51 202//51 197//51
f 77//54 202//54 75//54
f 88//70 83//70 198//70
f 83//70 197//70 198//70
f 194//49 91//49 199//49
f 91//52 88//52 199//52
f 196//71 98//71 95//71
f 196//71 95//71 194//71
f 195//47 191//47 99//47
f 195//50 99//50 98//50
f 104//72 192//72 107//72
f 191//72 192//72 104//72
f 111//45 193//45 188//45
f 107//48 193//48 111//48
f 116//73 177//73 189//73
f 177//73 188//73 189//73
f 185//43 173//43 190//43
f 173//46 116//46 190//46
f 187//74 128//74 122//74
f 187//74 122//74 185//74
f 186//41 182//41 129//41
f 186//44 129//44 128//44
f 134//75 183//75 78//75
f 182//75 183//75 134//75
f 79//40 184//40 38//40
f 78//42 184//42 79//42
f 217//76 32//76 218//76
f 219//76 1//76 5//76
f 5//76 7//76 220//76
f 1//76 221//76 39//76
f 7//76 8//76 222//76
f 40//76 39//76 223//76
f 8//76 11//76 224//76
f 225//76 43//76 40//76
f 11//76 13//76 226//76
f 43//76 227//76 44//76
f 13//76 14//76 228//76
f 46//76 44//76 229//76
f 14//76 17//76 230//76
f 231//76 49//76 46//76
f 17//76 19//76 232//76
f 49//76 233//76 50//76
f 19//76 20//76 234//76
f 52//76 50//76 235//76
f 23//76 236//76 234//76
f 237//76 238//76 56//76
f 26//76 239//76 240//76
f 241//76 242//76 38//76
f 243//76 244//76 61//76
f 245//76 246//76 182//76
f 64//76 62//76 247//76
f 67//76 248//76 249//76
f 250//76 70//76 251//76
f 215//76 252//76 253//76
f 193//76 254//76 188//76
f 211//76 255//76 210//76
f 191//76 195//76 256//76
f 208//76 257//76 203//76
f 199//76 258//76 259//76
f 200//76 260//76 201//76
f 205//76 261//76 262//76
f 204//76 262//76 263//76
f 264//76 198//76 197//76
f 265//76 202//76 266//76
f 209//76 267//76 268//76
f 269//76 207//76 268//76
f 270//76 195//76 196//76
f 196//76 194//76 271//76
f 213//76 214//76 272//76
f 273//76 212//76 274//76
f 275//76 192//76 191//76
f 73//76 276//76 216//76
f 193//76 192//76 277//76
f 278//76 279//76 188//76
f 73//76 70//76 250//76
f 251//76 70//76 68//76
f 279//76 280//76 189//76
f 68//76 67//76 249//76
f 251//76 68//76 249//76
f 248//76 67//76 64//76
f 186//76 281//76 245//76
f 183//76 246//76 282//76
f 248//76 64//76 247//76
f 244//76 247//76 62//76
f 184//76 282//76 241//76
f 242//76 283//76 37//76
f 244//76 62//76 61//76
f 58//76 243//76 61//76
f 283//76 218//76 35//76
f 217//76 284//76 31//76
f 243//76 58//76 238//76
f 55//76 285//76 237//76
f 284//76 239//76 29//76
f 25//76 240//76 236//76
f 55//76 52//76 286//76
f 185//76 190//76 287//76
f 187//76 288//76 281//76
f 194//76 199//76 259//76
f 56//76 238//76 58//76
f 55//76 237//76 56//76
f 55//76 286//76 285//76
f 52//76 235//76 286//76
f 50//76 233//76 235//76
f 49//76 231//76 233//76
f 46//76 229//76 231//76
f 44//76 227//76 229//76
f 43//76 225//76 227//76
f 40//76 223//76 225//76
f 39//76 221//76 223//76
f 1//76 219//76 221//76
f 5//76 220//76 219//76
f 7//76 222//76 220//76
f 8//76 224//76 222//76
f 11//76 226//76 224//76
f 13//76 228//76 226//76
f 14//76 230//76 228//76
f 17//76 232//76 230//76
f 19//76 234//76 232//76
f 23//76 234//76 20//76
f 25//76 236//76 23//76
f 26//76 240//76 25//76
f 29//76 239//76 26//76
f 31//76 284//76 29//76
f 32//76 217//76 31//76
f 35//76 218//76 32//76
f 37//76 283//76 35//76
f 38//76 242//76 37//76
f 184//76 241//76 38//76
f 183//76 282//76 184//76
f 182//76 246//76 183//76
f 186//76 245//76 182//76
f 187//76 281//76 186//76
f 185//76 288//76 187//76
f 185//76 287//76 288//76
f 189//76 280//76 190//76
f 190//76 280//76 287//76
f 188//76 279//76 189//76
f 188//76 254//76 278//76
f 193//76 277//76 254//76
f 192//76 275//76 277//76
f 191//76 256//76 275//76
f 195//76 270//76 256//76
f 196//76 271//76 270//76
f 194//76 259//76 271//76
f 199//76 198//76 258//76
f 197//76 265//76 264//76
f 198//76 264//76 258//76
f 201//76 266//76 202//76
f 202//76 265//76 197//76
f 263//76 260//76 200//76
f 260//76 266//76 201//76
f 262//76 204//76 205//76
f 263//76 200//76 204//76
f 261//76 205//76 203//76
f 257//76 208//76 269//76
f 261//76 203//76 257//76
f 207//76 206//76 268//76
f 208//76 207//76 269//76
f 210//76 267//76 209//76
f 209//76 268//76 206//76
f 273//76 255//76 211//76
f 255//76 267//76 210//76
f 274//76 212//76 213//76
f 273//76 211//76 212//76
f 272//76 214//76 253//76
f 274//76 213//76 272//76
f 215//76 216//76 252//76
f 214//76 215//76 253//76
f 73//76 250//76 276//76
f 216//76 276//76 252//76
f 252//18 131//18 172//18
f 130//19 276//19 250//19
f 126//15 176//15 274//15
f 272//16 253//16 124//16
f 267//12 119//12 114//12
f 255//13 273//13 120//13
f 101//9 257//9 105//9
f 109//10 269//10 268//10
f 89//5 85//5 263//5
f 261//6 93//6 262//6
f 265//2 76//2 84//2
f 266//3 260//3 81//3
f 96//21 259//21 92//21
f 87//20 258//20 264//20
f 100//24 103//24 256//24
f 271//23 97//23 270//23
f 254//28 112//28 181//28
f 277//26 275//26 108//26
f 279//30 178//30 115//30
f 178//30 279//30 278//30
f 115//31 117//31 280//31
f 280//31 279//31 115//31
f 121//32 287//32 117//32
f 280//32 117//32 287//32
f 288//33 121//33 123//33
f 121//33 288//33 287//33
f 123//34 127//34 281//34
f 281//34 288//34 123//34
f 133//35 245//35 127//35
f 281//35 127//35 245//35
f 246//36 133//36 132//36
f 133//36 246//36 245//36
f 132//37 80//37 282//37
f 282//37 246//37 132//37
f 137//38 241//38 80//38
f 282//38 80//38 241//38
f 278//29 254//29 181//29
f 278//29 181//29 178//29
f 108//26 112//26 277//26
f 277//28 112//28 254//28
f 103//25 275//25 256//25
f 103//25 108//25 275//25
f 100//23 270//23 97//23
f 100//24 256//24 270//24
f 271//22 259//22 96//22
f 97//22 271//22 96//22
f 258//20 87//20 92//20
f 259//21 258//21 92//21
f 265//1 84//1 264//1
f 264//1 84//1 87//1
f 81//3 76//3 266//3
f 266//2 76//2 265//2
f 85//4 260//4 263//4
f 85//4 81//4 260//4
f 89//6 262//6 93//6
f 89//5 263//5 262//5
f 261//7 257//7 101//7
f 93//7 261//7 101//7
f 269//10 109//10 105//10
f 257//9 269//9 105//9
f 267//11 114//11 268//11
f 268//11 114//11 109//11
f 120//13 119//13 255//13
f 255//12 119//12 267//12
f 176//14 273//14 274//14
f 176//14 120//14 273//14
f 126//16 272//16 124//16
f 126//15 274//15 272//15
f 253//17 252//17 172//17
f 124//17 253//17 172//17
f 276//19 130//19 131//19
f 252//18 276//18 131//18
f 221//70 152//70 223//70
f 147//52 225//52 223//52
f 223//70 152//70 147//70
f 227//49 225//49 146//49
f 147//52 146//52 225//52
f 227//71 159//71 229//71
f 159//49 227//49 146//49
f 158//50 231//50 229//50
f 229//71 159//71 158//71
f 233//47 231//47 144//47
f 158//50 144//50 231//50
f 233//72 164//72 235//72
f 164//47 233//47 144//47
f 163//48 286//48 235//48
f 235//72 164//72 163//72
f 285//45 286//45 142//45
f 163//48 142//48 286//48
f 285//73 167//73 237//73
f 167//45 285//45 142//45
f 166//46 238//46 237//46
f 237//73 167//73 166//73
f 243//43 238//43 139//43
f 166//46 139//46 238//46
f 243//77 138//77 244//77
f 138//43 243//43 139//43
f 169//44 247//44 244//44
f 244//74 138//74 169//74
f 248//41 247//41 168//41
f 169//44 168//44 247//44
f 248//75 135//75 249//75
f 135//41 248//41 168//41
f 136//42 251//42 249//42
f 249//75 135//75 136//75
f 250//40 251//40 170//40
f 136//42 170//42 251//42
f 130//40 250//40 170//40
f 153//51 152//51 221//51
f 153//54 219//54 154//54
f 219//51 153//51 221//51
f 220//69 148//69 154//69
f 154//54 219//54 220//54
f 151//53 148//53 222//53
f 220//69 222//69 148//69
f 151//56 224//56 150//56
f 224//53 151//53 222//53
f 226//68 149//68 150//68
f 150//56 224//56 226//56
f 145//55 149//55 228//55
f 226//68 228//68 149//68
f 145//58 230//58 157//58
f 230//55 145//55 228//55
f 232//67 156//67 157//67
f 157//58 230//58 232//58
f 155//57 156//57 234//57
f 232//67 234//67 156//67
f 155//59 236//59 143//59
f 236//57 155//57 234//57
f 240//60 161//60 143//60
f 143//59 236//59 240//59
f 162//78 161//78 239//78
f 240//60 239//60 161//60
f 162//62 284//62 160//62
f 284//61 162//61 239//61
f 217//63 140//63 160//63
f 160//62 284//62 217//62
f 141//64 140//64 218//64
f 217//63 218//63 140//63
f 141//65 283//65 165//65
f 283//64 141//64 218//64
f 242//66 137//66 165//66
f 165//65 283//65 242//65
f 242//66 241//66 137//66
