# Blender v3.5.1 OBJ File: 'bearing.blend'
# www.blender.org
o Drive_Shaft_Bar_Lock_(275-1065)
v -0.418385 0.227355 0.021697
v -0.544385 0.227355 0.021697
v -0.544385 0.227355 0.067697
v -0.418385 0.227355 0.067697
v -1.321385 0.042855 0.021697
v -1.199697 0.202898 0.021697
v -1.180696 0.206632 0.021697
v -0.165348 0.367721 0.021697
v -0.006384 0.452855 0.021697
v -0.544385 0.353355 0.021697
v -0.091384 0.537855 0.021697
v -0.418385 0.353355 0.021697
v -1.146723 0.354464 0.021697
v -0.994385 0.353355 0.021697
v -1.321385 0.537855 0.021697
v -0.643385 0.353355 0.021697
v -0.769385 0.353355 0.021697
v -0.006384 0.127855 0.021697
v -0.129018 0.249318 0.021697
v -0.120804 0.270268 0.021697
v -0.091384 0.042855 0.021697
v -0.868385 0.227355 0.021697
v -0.769385 0.227355 0.021697
v -1.406385 0.127855 0.021697
v -0.240522 0.209707 0.021697
v -0.868385 0.353355 0.021697
v -0.994385 0.227355 0.021697
v -1.142276 0.230693 0.021697
v -0.643385 0.227355 0.021697
v -1.186771 0.375706 0.021697
v -1.406385 0.452855 0.021697
v -1.217145 0.377267 0.021697
v -1.166548 0.212365 0.021697
v -1.153610 0.220467 0.021697
v -1.132890 0.242732 0.021697
v -1.124295 0.259456 0.021697
v -1.119095 0.281755 0.021697
v -1.119473 0.301116 0.021697
v -1.123639 0.319452 0.021697
v -1.133989 0.339876 0.021697
v -1.158762 0.363850 0.021697
v -1.172248 0.371004 0.021697
v -1.201890 0.377815 0.021697
v -1.287034 0.324492 0.021697
v -1.232074 0.374078 0.021697
v -1.246222 0.368346 0.021697
v -1.262028 0.358160 0.021697
v -1.277681 0.341448 0.021697
v -1.291736 0.309969 0.021697
v -1.294093 0.291314 0.021697
v -1.292029 0.272061 0.021697
v -1.286281 0.254158 0.021697
v -1.276273 0.237580 0.021697
v -1.266047 0.226246 0.021697
v -1.254008 0.216860 0.021697
v -1.237284 0.208265 0.021697
v -1.218485 0.203619 0.021697
v -0.267725 0.353052 0.021697
v -0.203638 0.202492 0.021697
v -0.180696 0.206632 0.021697
v -0.166547 0.212364 0.021697
v -0.150742 0.222550 0.021697
v -0.137320 0.236507 0.021697
v -0.293845 0.294851 0.021697
v -0.291735 0.309970 0.021697
v -0.118927 0.297043 0.021697
v -0.283850 0.331908 0.021697
v -0.249407 0.366792 0.021697
v -0.122661 0.316044 0.021697
v -0.128394 0.330193 0.021697
v -0.136497 0.343130 0.021697
v -0.232074 0.374078 0.021697
v -0.213073 0.377812 0.021697
v -0.149272 0.356927 0.021697
v -0.179406 0.373672 0.021697
v -0.194284 0.377091 0.021697
v -0.293297 0.279596 0.021697
v -0.289131 0.261259 0.021697
v -0.280607 0.243873 0.021697
v -0.271407 0.231690 0.021697
v -0.257477 0.219059 0.021697
v -0.225999 0.205004 0.021697
v -0.544385 0.353355 0.067697
v -0.218485 0.377091 0.067697
v -0.203240 0.377874 0.067697
v -0.006384 0.452855 0.067697
v -0.091384 0.042855 0.067697
v -0.006384 0.127855 0.067697
v -0.194284 0.203619 0.067697
v -0.270494 0.230693 0.067697
v -0.252695 0.215637 0.067697
v -0.868385 0.227355 0.067697
v -1.321385 0.042855 0.067697
v -0.769385 0.227355 0.067697
v -1.406385 0.127855 0.067697
v -1.246222 0.212365 0.067697
v -0.091384 0.537855 0.067697
v -0.643385 0.353355 0.067697
v -0.233363 0.373672 0.067697
v -0.418385 0.353355 0.067697
v -0.643385 0.227355 0.067697
v -1.406385 0.452855 0.067697
v -1.290108 0.316044 0.067697
v -1.284376 0.330192 0.067697
v -0.868385 0.353355 0.067697
v -1.321385 0.537855 0.067697
v -0.994385 0.353355 0.067697
v -0.994385 0.227355 0.067697
v -1.180696 0.374078 0.067697
v -1.166548 0.368346 0.067697
v -0.769385 0.353355 0.067697
v -1.199697 0.377812 0.067697
v -1.146723 0.226246 0.067697
v -1.222560 0.376564 0.067697
v -1.244321 0.369440 0.067697
v -1.263497 0.356926 0.067697
v -1.276273 0.343130 0.067697
v -1.119095 0.298955 0.067697
v -1.119473 0.279594 0.067697
v -1.123639 0.261259 0.067697
v -1.293297 0.301115 0.067697
v -1.293846 0.285860 0.067697
v -1.133989 0.240834 0.067697
v -1.158762 0.216860 0.067697
v -1.291736 0.270741 0.067697
v -1.287034 0.256218 0.067697
v -1.175486 0.208265 0.067697
v -1.279880 0.242732 0.067697
v -1.270494 0.230693 0.067697
v -1.259160 0.220467 0.067697
v -1.228159 0.205388 0.067697
v -1.201464 0.202587 0.067697
v -1.124295 0.321254 0.067697
v -1.132890 0.337978 0.067697
v -1.142276 0.350017 0.067697
v -1.153610 0.360243 0.067697
v -0.271407 0.349020 0.067697
v -0.213073 0.202898 0.067697
v -0.232074 0.206632 0.067697
v -0.247421 0.367721 0.067697
v -0.260232 0.359420 0.067697
v -0.280607 0.336838 0.067697
v -0.289131 0.319451 0.067697
v -0.293297 0.301115 0.067697
v -0.293845 0.285859 0.067697
v -0.291735 0.270740 0.067697
v -0.283850 0.248802 0.067697
v -0.122661 0.264666 0.067697
v -0.128394 0.250518 0.067697
v -0.179406 0.207038 0.067697
v -0.165348 0.212989 0.067697
v -0.149272 0.223784 0.067697
v -0.136497 0.237580 0.067697
v -0.118521 0.287608 0.067697
v -0.121033 0.309970 0.067697
v -0.127300 0.328292 0.067697
v -0.137320 0.344203 0.067697
v -0.150742 0.358160 0.067697
v -0.166548 0.368346 0.067697
v -0.184611 0.375322 0.067697
vn 0.0000 1.0000 0.0000
vn 0.0000 0.0000 -1.0000
vn 1.0000 0.0000 0.0000
vn -0.0000 0.0000 1.0000
vn -1.0000 0.0000 0.0000
vn -0.9581 -0.2864 0.0057
vn -0.9977 -0.0664 0.0118
vn -0.9754 -0.2203 -0.0089
vn -0.9994 0.0325 -0.0090
vn -0.9014 -0.4329 -0.0044
vn -0.8893 -0.4572 0.0023
vn -0.7950 -0.6066 0.0003
vn -0.7878 -0.6159 -0.0027
vn -0.6505 -0.7595 0.0027
vn -0.6350 -0.7725 -0.0027
vn -0.4753 -0.8798 0.0025
vn -0.4546 -0.8907 -0.0041
vn -0.3103 -0.9506 0.0045
vn -0.2503 -0.9681 -0.0065
vn -0.1317 -0.9913 0.0072
vn 0.0784 -0.9969 0.0065
vn -0.0424 -0.9991 -0.0072
vn -0.9742 0.2256 0.0081
vn -0.9582 0.2861 -0.0038
vn -0.8920 0.4520 0.0023
vn -0.8895 0.4570 0.0023
vn -0.7942 0.6077 -0.0020
vn -0.7839 0.6209 0.0025
vn -0.6505 0.7595 -0.0027
vn -0.6350 0.7725 0.0027
vn -0.4753 0.8798 -0.0025
vn -0.4605 0.8877 0.0020
vn -0.3081 0.9514 -0.0019
vn -0.2809 0.9597 0.0058
vn -0.1363 0.9906 -0.0064
vn -0.0340 0.9994 0.0093
vn 0.0802 0.9967 -0.0090
vn 0.3093 -0.9510 -0.0001
vn 0.4662 -0.8847 -0.0023
vn 0.4948 -0.8690 0.0059
vn 0.8478 -0.5304 -0.0029
vn 0.8775 -0.4794 0.0093
vn 0.7463 -0.6656 0.0004
vn 0.9716 0.2366 -0.0090
vn 0.9917 0.1285 0.0067
vn 0.9987 0.0513 -0.0056
vn 0.9987 -0.0513 0.0056
vn 0.7404 0.6722 -0.0022
vn 0.8803 0.4743 -0.0066
vn 0.7317 0.6816 -0.0052
vn 0.5845 0.8113 0.0063
vn 0.5289 0.8486 -0.0079
vn 0.3952 0.9186 0.0074
vn 0.2974 0.9547 -0.0089
vn 0.2130 0.9770 0.0078
vn 0.8478 0.5304 0.0029
vn 0.9435 0.3313 0.0082
vn 0.9917 -0.1285 -0.0067
vn 0.9435 -0.3313 -0.0082
vn 0.9716 -0.2366 0.0090
vn 0.7048 -0.7094 0.0096
vn 0.6140 -0.7893 -0.0049
vn 0.2930 -0.9561 0.0041
vn 0.1405 -0.9901 -0.0045
vn -0.9944 0.1052 0.0040
vn -0.9944 -0.1052 -0.0040
vn -0.9923 -0.1242 0.0023
vn -0.9415 -0.3371 0.0008
vn -0.9379 -0.3469 -0.0008
vn -0.8298 -0.5581 0.0053
vn -0.8443 -0.5359 -0.0019
vn -0.6867 -0.7269 0.0066
vn -0.7322 -0.6811 -0.0047
vn -0.6026 -0.7980 -0.0056
vn -0.5438 -0.8392 0.0056
vn -0.4549 -0.8905 -0.0056
vn -0.3898 -0.9209 0.0056
vn -0.2237 -0.9746 0.0047
vn -0.2862 -0.9582 -0.0066
vn -0.0696 -0.9976 -0.0068
vn -0.0487 -0.9988 0.0023
vn -0.9923 0.1242 -0.0023
vn -0.9415 0.3371 -0.0008
vn -0.9379 0.3469 0.0008
vn -0.8298 0.5581 -0.0053
vn -0.8442 0.5359 0.0019
vn -0.7322 0.6811 0.0047
vn -0.6867 0.7269 -0.0066
vn -0.6026 0.7980 0.0056
vn -0.5390 0.8423 -0.0067
vn -0.3385 0.9409 -0.0080
vn -0.4556 0.8902 0.0060
vn -0.2822 0.9594 0.0023
vn -0.0570 0.9983 -0.0093
vn -0.0806 0.9967 0.0036
vn 0.1192 -0.9929 0.0024
vn 0.6388 -0.7694 0.0008
vn 0.4632 -0.8863 0.0019
vn 0.4347 -0.9006 -0.0068
vn 0.6468 -0.7627 -0.0008
vn 0.8082 -0.5889 0.0053
vn 0.8904 -0.4551 -0.0047
vn 0.9560 -0.2934 -0.0056
vn 0.9179 -0.3967 0.0066
vn 0.9743 0.2253 -0.0001
vn 0.9780 0.2086 0.0041
vn 0.9985 0.0537 -0.0045
vn 0.9111 0.4123 0.0044
vn 0.8025 0.5966 0.0066
vn 0.8393 0.5436 -0.0047
vn 0.7320 0.6812 -0.0056
vn 0.6812 0.7320 0.0056
vn 0.6026 0.7980 -0.0056
vn 0.5390 0.8423 0.0067
vn 0.4493 0.8934 -0.0076
vn 0.3519 0.9360 0.0082
vn 0.2353 0.9719 -0.0111
vn 0.1381 0.9904 0.0060
vn 0.9219 0.3874 -0.0023
vn 0.9999 -0.0088 0.0065
vn 0.9923 -0.1237 -0.0060
vn 0.9758 -0.2184 0.0067
vn 0.7924 -0.6100 -0.0019
vn 0.2943 -0.9557 0.0049
vn 0.1832 -0.9830 -0.0088
vn 0.0000 -1.0000 0.0000
vn 0.7071 -0.7071 0.0000
vn -0.7071 -0.7071 0.0000
vn -0.7071 0.7071 0.0000
vn 0.7071 0.7071 0.0000
s 1
f 1//1 2//1 3//1
f 3//1 4//1 1//1
f 5//2 6//2 7//2
f 10//2 11//2 12//2
f 15//2 11//2 16//2
f 16//2 17//2 15//2
f 18//2 19//2 20//2
f 21//2 2//2 1//2
f 22//2 23//2 5//2
f 17//2 23//2 26//2
f 23//2 21//2 5//2
f 5//2 27//2 22//2
f 15//2 17//2 26//2
f 14//2 15//2 26//2
f 29//2 16//2 2//2
f 23//2 29//2 21//2
f 26//2 23//2 22//2
f 21//2 29//2 2//2
f 11//2 10//2 16//2
f 16//2 10//2 2//2
f 24//2 6//2 5//2
f 5//2 7//2 27//2
f 27//2 7//2 33//2
f 27//2 33//2 34//2
f 27//2 34//2 28//2
f 28//2 35//2 27//2
f 35//2 36//2 27//2
f 27//2 36//2 37//2
f 38//2 14//2 37//2
f 27//2 37//2 14//2
f 39//2 14//2 38//2
f 14//2 39//2 40//2
f 13//2 14//2 40//2
f 13//2 41//2 14//2
f 14//2 41//2 42//2
f 14//2 42//2 30//2
f 14//2 30//2 15//2
f 31//2 15//2 43//2
f 30//2 43//2 15//2
f 31//2 43//2 32//2
f 31//2 32//2 45//2
f 31//2 45//2 46//2
f 31//2 46//2 47//2
f 48//2 31//2 47//2
f 31//2 48//2 44//2
f 44//2 49//2 31//2
f 49//2 50//2 31//2
f 31//2 50//2 24//2
f 24//2 50//2 51//2
f 24//2 51//2 52//2
f 53//2 24//2 52//2
f 54//2 24//2 53//2
f 55//2 24//2 54//2
f 56//2 24//2 55//2
f 24//2 56//2 57//2
f 6//2 24//2 57//2
f 59//2 18//2 21//2
f 18//2 59//2 60//2
f 18//2 60//2 61//2
f 18//2 61//2 62//2
f 63//2 18//2 62//2
f 19//2 18//2 63//2
f 18//2 20//2 66//2
f 18//2 66//2 9//2
f 68//2 58//2 12//2
f 69//2 9//2 66//2
f 70//2 9//2 69//2
f 71//2 9//2 70//2
f 74//2 9//2 71//2
f 72//2 11//2 73//2
f 8//2 75//2 9//2
f 9//2 74//2 8//2
f 9//2 75//2 76//2
f 9//2 76//2 73//2
f 9//2 73//2 11//2
f 11//2 72//2 12//2
f 12//2 72//2 68//2
f 58//2 67//2 12//2
f 67//2 65//2 12//2
f 65//2 64//2 12//2
f 77//2 1//2 64//2
f 12//2 64//2 1//2
f 78//2 1//2 77//2
f 1//2 78//2 79//2
f 1//2 79//2 80//2
f 1//2 80//2 81//2
f 25//2 1//2 81//2
f 25//2 82//2 1//2
f 1//2 82//2 21//2
f 21//2 82//2 59//2
f 2//3 10//3 83//3
f 83//3 3//3 2//3
f 84//4 85//4 86//4
f 3//4 87//4 4//4
f 90//4 4//4 91//4
f 92//4 93//4 94//4
f 94//4 93//4 87//4
f 83//4 97//4 98//4
f 84//4 97//4 99//4
f 97//4 83//4 100//4
f 3//4 101//4 87//4
f 98//4 3//4 83//4
f 102//4 103//4 104//4
f 98//4 101//4 3//4
f 105//4 106//4 107//4
f 108//4 93//4 92//4
f 109//4 110//4 107//4
f 111//4 105//4 94//4
f 106//4 111//4 98//4
f 97//4 106//4 98//4
f 101//4 94//4 87//4
f 106//4 105//4 111//4
f 105//4 92//4 94//4
f 112//4 106//4 102//4
f 102//4 114//4 112//4
f 115//4 114//4 102//4
f 102//4 116//4 115//4
f 117//4 116//4 102//4
f 104//4 117//4 102//4
f 108//4 118//4 119//4
f 108//4 119//4 120//4
f 102//4 121//4 103//4
f 102//4 122//4 121//4
f 102//4 95//4 122//4
f 123//4 113//4 108//4
f 124//4 108//4 113//4
f 95//4 125//4 122//4
f 95//4 126//4 125//4
f 108//4 124//4 127//4
f 95//4 128//4 126//4
f 95//4 129//4 128//4
f 127//4 132//4 93//4
f 95//4 130//4 129//4
f 96//4 95//4 131//4
f 95//4 96//4 130//4
f 131//4 95//4 132//4
f 95//4 93//4 132//4
f 93//4 108//4 127//4
f 123//4 108//4 120//4
f 108//4 107//4 118//4
f 133//4 118//4 107//4
f 107//4 134//4 133//4
f 107//4 135//4 134//4
f 107//4 136//4 135//4
f 107//4 110//4 136//4
f 112//4 109//4 106//4
f 107//4 106//4 109//4
f 86//4 97//4 84//4
f 87//4 138//4 139//4
f 97//4 100//4 99//4
f 100//4 140//4 99//4
f 100//4 141//4 140//4
f 100//4 137//4 141//4
f 137//4 100//4 142//4
f 142//4 100//4 143//4
f 100//4 144//4 143//4
f 100//4 145//4 144//4
f 100//4 4//4 145//4
f 4//4 146//4 145//4
f 4//4 147//4 146//4
f 4//4 90//4 147//4
f 91//4 4//4 139//4
f 4//4 87//4 139//4
f 88//4 138//4 87//4
f 88//4 148//4 149//4
f 88//4 89//4 138//4
f 88//4 150//4 89//4
f 88//4 151//4 150//4
f 88//4 152//4 151//4
f 153//4 152//4 88//4
f 149//4 153//4 88//4
f 88//4 154//4 148//4
f 88//4 86//4 154//4
f 86//4 155//4 154//4
f 86//4 156//4 155//4
f 157//4 156//4 86//4
f 158//4 157//4 86//4
f 86//4 159//4 158//4
f 86//4 160//4 159//4
f 85//4 160//4 86//4
f 12//5 1//5 4//5
f 4//5 100//5 12//5
f 69//6 66//7 155//8
f 154//9 155//8 66//7
f 156//10 70//11 69//6
f 69//6 155//8 156//10
f 70//11 156//10 71//12
f 71//12 156//10 157//13
f 74//14 71//12 157//13
f 158//15 74//14 157//13
f 8//16 74//14 158//15
f 159//17 8//16 158//15
f 159//17 75//18 8//16
f 159//17 160//19 75//18
f 75//18 160//19 76//20
f 73//21 76//20 85//22
f 160//19 85//22 76//20
f 20//23 154//9 66//7
f 20//23 148//24 154//9
f 148//24 20//23 149//25
f 149//25 20//23 19//26
f 153//27 149//25 19//26
f 63//28 153//27 19//26
f 63//28 152//29 153//27
f 63//28 62//30 152//29
f 62//30 151//31 152//29
f 62//30 61//32 151//31
f 151//31 61//32 150//33
f 150//33 61//32 60//34
f 89//35 150//33 60//34
f 59//36 89//35 60//34
f 59//36 138//37 89//35
f 99//38 140//39 68//40
f 142//41 67//42 137//43
f 146//44 77//45 145//46
f 145//46 77//45 64//47
f 80//48 147//49 90//50
f 81//51 90//50 91//52
f 90//50 81//51 80//48
f 91//52 25//53 81//51
f 91//52 139//54 25//53
f 25//53 139//54 82//55
f 82//55 139//54 138//37
f 59//36 82//55 138//37
f 79//56 147//49 80//48
f 147//49 79//56 78//57
f 147//49 78//57 146//44
f 78//57 77//45 146//44
f 64//47 144//58 145//46
f 143//59 144//58 65//60
f 65//60 144//58 64//47
f 143//59 65//60 67//42
f 143//59 67//42 142//41
f 67//42 58//61 137//43
f 58//61 141//62 137//43
f 140//39 141//62 68//40
f 68//40 141//62 58//61
f 99//38 68//40 72//63
f 72//63 73//21 84//64
f 99//38 72//63 84//64
f 73//21 85//22 84//64
f 37//65 118//66 38//67
f 39//68 38//67 118//66
f 133//69 39//68 118//66
f 40//70 39//68 133//69
f 134//71 40//70 133//69
f 13//72 40//70 135//73
f 134//71 135//73 40//70
f 136//74 41//75 13//72
f 13//72 135//73 136//74
f 41//75 110//76 42//77
f 110//76 41//75 136//74
f 30//78 42//77 109//79
f 110//76 109//79 42//77
f 112//80 43//81 30//78
f 30//78 109//79 112//80
f 119//82 118//66 37//65
f 37//65 120//83 119//82
f 37//65 36//84 120//83
f 36//84 123//85 120//83
f 36//84 35//86 123//85
f 28//87 113//88 123//85
f 123//85 35//86 28//87
f 113//88 34//89 124//90
f 34//89 113//88 28//87
f 127//91 124//90 33//92
f 34//89 33//92 124//90
f 127//91 33//92 7//93
f 132//94 127//91 7//93
f 6//95 132//94 7//93
f 112//80 32//96 43//81
f 47//97 46//98 115//99
f 116//100 48//101 47//97
f 104//102 103//103 44//104
f 48//101 104//102 44//104
f 125//105 51//106 122//107
f 51//106 125//105 52//108
f 53//109 128//110 129//111
f 53//109 52//108 128//110
f 54//112 129//111 130//113
f 55//114 54//112 130//113
f 96//115 55//114 130//113
f 96//115 56//116 55//114
f 96//115 131//117 56//116
f 131//117 57//118 56//116
f 131//117 132//94 57//118
f 57//118 132//94 6//95
f 54//112 53//109 129//111
f 126//119 128//110 52//108
f 126//119 52//108 125//105
f 51//106 50//120 122//107
f 50//120 121//121 122//107
f 103//103 121//121 49//122
f 49//122 121//121 50//120
f 103//103 49//122 44//104
f 104//102 48//101 117//123
f 48//101 116//100 117//123
f 115//99 116//100 47//97
f 115//99 45//124 114//125
f 115//99 46//98 45//124
f 45//124 32//96 114//125
f 32//96 112//80 114//125
f 23//3 17//3 111//3
f 111//3 94//3 23//3
f 29//1 23//1 94//1
f 94//1 101//1 29//1
f 16//5 29//5 101//5
f 101//5 98//5 16//5
f 17//126 16//126 98//126
f 98//126 111//126 17//126
f 27//3 14//3 107//3
f 107//3 108//3 27//3
f 22//1 27//1 108//1
f 108//1 92//1 22//1
f 26//5 22//5 92//5
f 92//5 105//5 26//5
f 14//126 26//126 105//126
f 105//126 107//126 14//126
f 86//3 18//3 9//3
f 86//3 88//3 18//3
f 21//127 18//127 88//127
f 88//127 87//127 21//127
f 5//126 21//126 87//126
f 87//126 93//126 5//126
f 24//128 5//128 93//128
f 93//128 95//128 24//128
f 31//5 24//5 95//5
f 95//5 102//5 31//5
f 15//129 31//129 102//129
f 102//129 106//129 15//129
f 106//1 11//1 15//1
f 106//1 97//1 11//1
f 9//130 11//130 97//130
f 97//130 86//130 9//130
f 10//126 12//126 100//126
f 100//126 83//126 10//126
