# Blender v3.5.1 OBJ File: 'washer.blend'
# www.blender.org
o Steel_Washer_(275-1024)
v 0.217085 0.268784 0.000000
v 0.236029 0.368611 0.000000
v 0.209888 0.271053 0.000000
v 0.273671 0.195039 0.000000
v 0.375000 0.187500 0.000000
v 0.374287 0.203842 0.000000
v 0.372152 0.220059 0.000000
v 0.272686 0.202521 0.000000
v 0.274000 0.187500 0.000000
v 0.374287 0.171158 0.000000
v 0.368611 0.236029 0.000000
v 0.271053 0.209888 0.000000
v 0.372152 0.154941 0.000000
v 0.273671 0.179961 0.000000
v 0.363693 0.251629 0.000000
v 0.268784 0.217085 0.000000
v 0.272686 0.172480 0.000000
v 0.368611 0.138972 0.000000
v 0.357433 0.266741 0.000000
v 0.265896 0.224057 0.000000
v 0.271053 0.165112 0.000000
v 0.363693 0.123371 0.000000
v 0.349880 0.281250 0.000000
v 0.262411 0.230750 0.000000
v 0.357433 0.108259 0.000000
v 0.268784 0.157915 0.000000
v 0.341091 0.295046 0.000000
v 0.258357 0.237115 0.000000
v 0.265896 0.150944 0.000000
v 0.349880 0.093750 0.000000
v 0.331134 0.308023 0.000000
v 0.253763 0.243101 0.000000
v 0.262411 0.144250 0.000000
v 0.341091 0.079955 0.000000
v 0.320083 0.320083 0.000000
v 0.248665 0.248665 0.000000
v 0.331134 0.066977 0.000000
v 0.258357 0.137886 0.000000
v 0.308023 0.331134 0.000000
v 0.243101 0.253763 0.000000
v 0.243101 0.121237 0.000000
v 0.237115 0.116643 0.000000
v 0.308023 0.043867 0.000000
v 0.281250 0.349880 0.000000
v 0.230750 0.262411 0.000000
v 0.237115 0.258357 0.000000
v 0.187500 0.274000 0.000000
v 0.195039 0.273671 0.000000
v 0.187500 0.375000 0.000000
v 0.230750 0.112589 0.000000
v 0.224057 0.109105 0.000000
v 0.281250 0.025120 0.000000
v 0.165112 0.271053 0.000000
v 0.172480 0.272686 0.000000
v 0.138972 0.368611 0.000000
v 0.251629 0.011308 0.000000
v 0.266741 0.017567 0.000000
v 0.217085 0.106217 0.000000
v 0.236029 0.006389 0.000000
v 0.209888 0.103948 0.000000
v 0.202521 0.102314 0.000000
v 0.187500 0.101000 0.000000
v 0.203842 0.000714 0.000000
v 0.195039 0.101329 0.000000
v 0.154941 0.002849 0.000000
v 0.172480 0.102314 0.000000
v 0.165112 0.103948 0.000000
v 0.043867 0.308023 0.000000
v 0.121237 0.243101 0.000000
v 0.054918 0.320083 0.000000
v 0.093750 0.025120 0.000000
v 0.137886 0.116643 0.000000
v 0.079955 0.033909 0.000000
v 0.025120 0.281250 0.000000
v 0.017567 0.266741 0.000000
v 0.109105 0.224057 0.000000
v 0.033909 0.079955 0.000000
v 0.116644 0.137886 0.000000
v 0.025120 0.093750 0.000000
v 0.002849 0.220059 0.000000
v 0.101329 0.195039 0.000000
v 0.102314 0.202521 0.000000
v 0.006389 0.138972 0.000000
v 0.103948 0.165112 0.000000
v 0.002849 0.154941 0.000000
v 0.017567 0.108259 0.000000
v 0.112589 0.144250 0.000000
v 0.109105 0.150944 0.000000
v 0.011308 0.123371 0.000000
v 0.106217 0.157915 0.000000
v 0.101000 0.187500 0.000000
v 0.000714 0.203842 0.000000
v 0.000000 0.187500 0.000000
v 0.101329 0.179961 0.000000
v 0.000714 0.171158 0.000000
v 0.102314 0.172480 0.000000
v 0.066977 0.043867 0.000000
v 0.131899 0.121237 0.000000
v 0.126335 0.126335 0.000000
v 0.121237 0.131899 0.000000
v 0.043867 0.066977 0.000000
v 0.106217 0.217085 0.000000
v 0.011308 0.251629 0.000000
v 0.006389 0.236029 0.000000
v 0.103948 0.209888 0.000000
v 0.123371 0.011308 0.000000
v 0.138972 0.006389 0.000000
v 0.157915 0.106217 0.000000
v 0.144250 0.112589 0.000000
v 0.108259 0.017567 0.000000
v 0.150944 0.109105 0.000000
v 0.112589 0.230750 0.000000
v 0.033909 0.295046 0.000000
v 0.187500 0.000000 0.000000
v 0.179961 0.101329 0.000000
v 0.171158 0.000714 0.000000
v 0.116644 0.237115 0.000000
v 0.126335 0.248665 0.000000
v 0.131899 0.253763 0.000000
v 0.220059 0.002849 0.000000
v 0.137886 0.258357 0.000000
v 0.066977 0.331134 0.000000
v 0.123371 0.363693 0.000000
v 0.157915 0.268784 0.000000
v 0.154941 0.372152 0.000000
v 0.179961 0.273671 0.000000
v 0.171158 0.374287 0.000000
v 0.202521 0.272686 0.000000
v 0.203842 0.374287 0.000000
v 0.295046 0.033909 0.000000
v 0.220059 0.372152 0.000000
v 0.224057 0.265896 0.000000
v 0.251629 0.363693 0.000000
v 0.320083 0.054918 0.000000
v 0.248665 0.126335 0.000000
v 0.266741 0.357433 0.000000
v 0.295046 0.341091 0.000000
v 0.253763 0.131899 0.000000
v 0.093750 0.349880 0.000000
v 0.079955 0.341091 0.000000
v 0.144250 0.262411 0.000000
v 0.108259 0.357433 0.000000
v 0.150944 0.265896 0.000000
v 0.054918 0.054918 0.000000
v 0.171158 0.374287 -0.032000
v 0.187500 0.375000 -0.032000
v 0.123371 0.363693 -0.032000
v 0.138972 0.368611 -0.032000
v 0.154941 0.372152 -0.032000
v 0.093750 0.349880 -0.032000
v 0.079955 0.341091 -0.032000
v 0.108259 0.357433 -0.032000
v 0.054918 0.320083 -0.032000
v 0.043867 0.308023 -0.032000
v 0.066977 0.331134 -0.032000
v 0.017567 0.266741 -0.032000
v 0.025120 0.281250 -0.032000
v 0.033909 0.295046 -0.032000
v 0.006389 0.236029 -0.032000
v 0.002849 0.220059 -0.032000
v 0.011308 0.251629 -0.032000
v 0.000000 0.187500 -0.032000
v 0.000714 0.171158 -0.032000
v 0.000714 0.203842 -0.032000
v 0.011308 0.123371 -0.032000
v 0.006389 0.138972 -0.032000
v 0.002849 0.154941 -0.032000
v 0.025120 0.093750 -0.032000
v 0.033909 0.079955 -0.032000
v 0.017567 0.108259 -0.032000
v 0.054918 0.054918 -0.032000
v 0.066977 0.043867 -0.032000
v 0.043867 0.066977 -0.032000
v 0.079955 0.033909 -0.032000
v 0.093750 0.025120 -0.032000
v 0.108259 0.017567 -0.032000
v 0.123371 0.011308 -0.032000
v 0.138972 0.006389 -0.032000
v 0.154941 0.002849 -0.032000
v 0.171158 0.000714 -0.032000
v 0.187500 0.000000 -0.032000
v 0.375000 0.187500 -0.032000
v 0.374287 0.203842 -0.032000
v 0.372152 0.220059 -0.032000
v 0.368611 0.236029 -0.032000
v 0.363693 0.251629 -0.032000
v 0.357433 0.266741 -0.032000
v 0.349880 0.281250 -0.032000
v 0.341091 0.295046 -0.032000
v 0.331134 0.308023 -0.032000
v 0.320083 0.320083 -0.032000
v 0.308023 0.331134 -0.032000
v 0.295046 0.341091 -0.032000
v 0.281250 0.349880 -0.032000
v 0.266741 0.357433 -0.032000
v 0.251629 0.363693 -0.032000
v 0.236029 0.368611 -0.032000
v 0.220059 0.372152 -0.032000
v 0.203842 0.374287 -0.032000
v 0.374287 0.171158 -0.032000
v 0.372152 0.154941 -0.032000
v 0.368611 0.138972 -0.032000
v 0.363693 0.123371 -0.032000
v 0.357433 0.108259 -0.032000
v 0.349880 0.093750 -0.032000
v 0.341091 0.079955 -0.032000
v 0.331134 0.066977 -0.032000
v 0.320083 0.054918 -0.032000
v 0.308023 0.043867 -0.032000
v 0.295046 0.033909 -0.032000
v 0.281250 0.025120 -0.032000
v 0.266741 0.017567 -0.032000
v 0.251629 0.011308 -0.032000
v 0.236029 0.006389 -0.032000
v 0.220059 0.002849 -0.032000
v 0.203842 0.000714 -0.032000
v 0.179961 0.101329 -0.032000
v 0.172480 0.102314 -0.032000
v 0.187500 0.101000 -0.032000
v 0.157915 0.106217 -0.032000
v 0.150944 0.109105 -0.032000
v 0.165112 0.103948 -0.032000
v 0.137886 0.116643 -0.032000
v 0.131899 0.121237 -0.032000
v 0.144250 0.112589 -0.032000
v 0.116644 0.137886 -0.032000
v 0.121237 0.131899 -0.032000
v 0.126335 0.126335 -0.032000
v 0.109105 0.150944 -0.032000
v 0.106217 0.157915 -0.032000
v 0.112589 0.144250 -0.032000
v 0.102314 0.172480 -0.032000
v 0.101329 0.179961 -0.032000
v 0.103948 0.165112 -0.032000
v 0.102314 0.202521 -0.032000
v 0.101329 0.195039 -0.032000
v 0.101000 0.187500 -0.032000
v 0.106217 0.217085 -0.032000
v 0.109105 0.224057 -0.032000
v 0.103948 0.209888 -0.032000
v 0.116644 0.237115 -0.032000
v 0.121237 0.243101 -0.032000
v 0.112589 0.230750 -0.032000
v 0.126335 0.248665 -0.032000
v 0.131899 0.253763 -0.032000
v 0.137886 0.258357 -0.032000
v 0.144250 0.262411 -0.032000
v 0.150944 0.265896 -0.032000
v 0.157915 0.268784 -0.032000
v 0.165112 0.271053 -0.032000
v 0.172480 0.272686 -0.032000
v 0.179961 0.273671 -0.032000
v 0.187500 0.274000 -0.032000
v 0.274000 0.187500 -0.032000
v 0.273671 0.179961 -0.032000
v 0.272686 0.172480 -0.032000
v 0.271053 0.165112 -0.032000
v 0.268784 0.157915 -0.032000
v 0.265896 0.150944 -0.032000
v 0.262411 0.144250 -0.032000
v 0.258357 0.137886 -0.032000
v 0.253763 0.131899 -0.032000
v 0.248665 0.126335 -0.032000
v 0.243101 0.121237 -0.032000
v 0.237115 0.116643 -0.032000
v 0.230750 0.112589 -0.032000
v 0.224057 0.109105 -0.032000
v 0.217085 0.106217 -0.032000
v 0.209888 0.103948 -0.032000
v 0.202521 0.102314 -0.032000
v 0.195039 0.101329 -0.032000
v 0.273671 0.195039 -0.032000
v 0.272686 0.202521 -0.032000
v 0.271053 0.209888 -0.032000
v 0.268784 0.217085 -0.032000
v 0.265896 0.224057 -0.032000
v 0.262411 0.230750 -0.032000
v 0.258357 0.237115 -0.032000
v 0.253763 0.243101 -0.032000
v 0.248665 0.248665 -0.032000
v 0.243101 0.253763 -0.032000
v 0.237115 0.258357 -0.032000
v 0.230750 0.262411 -0.032000
v 0.224057 0.265896 -0.032000
v 0.217085 0.268784 -0.032000
v 0.209888 0.271053 -0.032000
v 0.202521 0.272686 -0.032000
v 0.195039 0.273671 -0.032000
vn 0.0000 0.0000 1.0000
vn -0.0872 0.9962 0.0000
vn 0.0000 1.0000 0.0000
vn -0.3420 0.9397 0.0000
vn -0.2588 0.9659 0.0000
vn -0.1736 0.9848 0.0000
vn -0.5000 0.8660 0.0000
vn -0.5736 0.8192 0.0000
vn -0.4226 0.9063 0.0000
vn -0.7071 0.7071 0.0000
vn -0.7660 0.6428 0.0000
vn -0.6428 0.7660 0.0000
vn -0.9063 0.4226 0.0000
vn -0.8660 0.5000 0.0000
vn -0.8192 0.5736 0.0000
vn -0.9659 0.2588 0.0000
vn -0.9848 0.1736 0.0000
vn -0.9397 0.3420 0.0000
vn -1.0000 0.0000 0.0000
vn -0.9962 -0.0872 0.0000
vn -0.9962 0.0872 0.0000
vn -0.9397 -0.3420 0.0000
vn -0.9659 -0.2588 0.0000
vn -0.9848 -0.1736 0.0000
vn -0.8660 -0.5000 0.0000
vn -0.8192 -0.5736 0.0000
vn -0.9063 -0.4226 0.0000
vn -0.7071 -0.7071 0.0000
vn -0.6428 -0.7660 0.0000
vn -0.7660 -0.6428 0.0000
vn -0.5736 -0.8192 0.0000
vn -0.5000 -0.8660 0.0000
vn -0.4226 -0.9063 0.0000
vn -0.3420 -0.9397 0.0000
vn -0.2588 -0.9659 0.0000
vn -0.1736 -0.9848 0.0000
vn -0.0872 -0.9962 0.0000
vn 0.0000 -1.0000 0.0000
vn 1.0000 -0.0000 0.0000
vn 0.9962 0.0872 0.0000
vn 0.9848 0.1736 0.0000
vn 0.9659 0.2588 0.0000
vn 0.9397 0.3420 0.0000
vn 0.9063 0.4226 0.0000
vn 0.8660 0.5000 0.0000
vn 0.8192 0.5736 0.0000
vn 0.7660 0.6428 0.0000
vn 0.7071 0.7071 0.0000
vn 0.6428 0.7660 0.0000
vn 0.5736 0.8192 0.0000
vn 0.5000 0.8660 0.0000
vn 0.4226 0.9063 0.0000
vn 0.3420 0.9397 0.0000
vn 0.2588 0.9659 0.0000
vn 0.1736 0.9848 0.0000
vn 0.0872 0.9962 0.0000
vn 0.9962 -0.0872 0.0000
vn 0.9848 -0.1736 0.0000
vn 0.9659 -0.2588 0.0000
vn 0.9397 -0.3420 0.0000
vn 0.9063 -0.4226 0.0000
vn 0.8660 -0.5000 0.0000
vn 0.8192 -0.5736 0.0000
vn 0.7660 -0.6428 0.0000
vn 0.7071 -0.7071 0.0000
vn 0.6428 -0.7660 0.0000
vn 0.5736 -0.8192 0.0000
vn 0.5000 -0.8660 0.0000
vn 0.4226 -0.9063 0.0000
vn 0.3420 -0.9397 0.0000
vn 0.2588 -0.9659 0.0000
vn 0.1736 -0.9848 0.0000
vn 0.0872 -0.9962 0.0000
vn -0.8191 0.5736 0.0000
vn -0.8191 -0.5736 0.0000
vn 0.0000 0.0000 -1.0000
s 1
f 1//1 2//1 3//1
f 4//1 5//1 6//1
f 6//1 7//1 8//1
f 5//1 9//1 10//1
f 7//1 11//1 12//1
f 13//1 10//1 14//1
f 11//1 15//1 16//1
f 17//1 18//1 13//1
f 15//1 19//1 20//1
f 18//1 21//1 22//1
f 19//1 23//1 24//1
f 25//1 22//1 26//1
f 23//1 27//1 28//1
f 29//1 30//1 25//1
f 27//1 31//1 32//1
f 30//1 33//1 34//1
f 31//1 35//1 36//1
f 37//1 34//1 38//1
f 39//1 40//1 36//1
f 41//1 42//1 43//1
f 44//1 45//1 46//1
f 47//1 48//1 49//1
f 50//1 51//1 52//1
f 53//1 54//1 55//1
f 56//1 57//1 58//1
f 59//1 60//1 61//1
f 62//1 63//1 64//1
f 65//1 66//1 67//1
f 68//1 69//1 70//1
f 71//1 72//1 73//1
f 74//1 75//1 76//1
f 77//1 78//1 79//1
f 80//1 81//1 82//1
f 83//1 84//1 85//1
f 86//1 87//1 88//1
f 89//1 88//1 90//1
f 91//1 92//1 93//1
f 94//1 95//1 96//1
f 97//1 98//1 99//1
f 100//1 101//1 99//1
f 102//1 75//1 103//1
f 103//1 104//1 105//1
f 106//1 107//1 108//1
f 109//1 110//1 111//1
f 112//1 113//1 74//1
f 114//1 115//1 116//1
f 68//1 113//1 117//1
f 118//1 119//1 70//1
f 114//1 63//1 62//1
f 64//1 63//1 120//1
f 119//1 121//1 122//1
f 120//1 59//1 61//1
f 64//1 120//1 61//1
f 60//1 59//1 56//1
f 123//1 124//1 53//1
f 125//1 54//1 126//1
f 60//1 56//1 58//1
f 51//1 58//1 57//1
f 127//1 126//1 47//1
f 48//1 128//1 129//1
f 51//1 57//1 52//1
f 130//1 50//1 52//1
f 128//1 3//1 131//1
f 1//1 132//1 133//1
f 50//1 130//1 42//1
f 134//1 135//1 41//1
f 132//1 45//1 136//1
f 137//1 46//1 40//1
f 134//1 37//1 138//1
f 139//1 140//1 141//1
f 142//1 143//1 124//1
f 104//1 80//1 82//1
f 43//1 42//1 130//1
f 134//1 41//1 43//1
f 134//1 138//1 135//1
f 37//1 38//1 138//1
f 34//1 33//1 38//1
f 30//1 29//1 33//1
f 25//1 26//1 29//1
f 22//1 21//1 26//1
f 18//1 17//1 21//1
f 13//1 14//1 17//1
f 10//1 9//1 14//1
f 5//1 4//1 9//1
f 6//1 8//1 4//1
f 7//1 12//1 8//1
f 11//1 16//1 12//1
f 15//1 20//1 16//1
f 19//1 24//1 20//1
f 23//1 28//1 24//1
f 27//1 32//1 28//1
f 31//1 36//1 32//1
f 39//1 36//1 35//1
f 137//1 40//1 39//1
f 44//1 46//1 137//1
f 136//1 45//1 44//1
f 133//1 132//1 136//1
f 2//1 1//1 133//1
f 131//1 3//1 2//1
f 129//1 128//1 131//1
f 49//1 48//1 129//1
f 127//1 47//1 49//1
f 125//1 126//1 127//1
f 55//1 54//1 125//1
f 123//1 53//1 55//1
f 142//1 124//1 123//1
f 139//1 143//1 142//1
f 139//1 141//1 143//1
f 122//1 121//1 140//1
f 140//1 121//1 141//1
f 70//1 119//1 122//1
f 70//1 69//1 118//1
f 68//1 117//1 69//1
f 113//1 112//1 117//1
f 74//1 76//1 112//1
f 75//1 102//1 76//1
f 103//1 105//1 102//1
f 104//1 82//1 105//1
f 80//1 92//1 81//1
f 93//1 94//1 91//1
f 92//1 91//1 81//1
f 85//1 96//1 95//1
f 95//1 94//1 93//1
f 90//1 84//1 83//1
f 84//1 96//1 85//1
f 88//1 89//1 86//1
f 90//1 83//1 89//1
f 87//1 86//1 79//1
f 78//1 77//1 100//1
f 87//1 79//1 78//1
f 101//1 144//1 99//1
f 77//1 101//1 100//1
f 73//1 98//1 97//1
f 97//1 99//1 144//1
f 109//1 72//1 71//1
f 72//1 98//1 73//1
f 111//1 110//1 106//1
f 109//1 71//1 110//1
f 108//1 107//1 67//1
f 111//1 106//1 108//1
f 65//1 116//1 66//1
f 107//1 65//1 67//1
f 114//1 62//1 115//1
f 116//1 115//1 66//1
f 145//2 49//3 146//3
f 147//4 55//5 148//5
f 149//6 125//6 127//2
f 139//7 150//7 151//8
f 123//4 152//9 142//9
f 153//10 154//11 70//10
f 155//12 122//12 140//8
f 156//13 74//14 157//14
f 113//15 68//11 158//15
f 104//16 159//16 160//17
f 75//13 161//18 103//18
f 162//19 163//20 93//19
f 164//21 92//21 80//17
f 165//22 83//23 166//23
f 85//24 95//20 167//24
f 79//25 168//25 169//26
f 89//22 170//27 86//27
f 171//28 172//29 144//28
f 173//30 101//30 77//26
f 97//29 172//29 174//31
f 172//29 97//29 144//28
f 175//32 73//31 174//31
f 97//29 174//31 73//31
f 175//32 176//33 71//32
f 71//32 73//31 175//32
f 110//33 176//33 177//34
f 176//33 110//33 71//32
f 178//35 106//34 177//34
f 110//33 177//34 106//34
f 178//35 179//36 107//35
f 107//35 106//34 178//35
f 65//36 179//36 180//37
f 179//36 65//36 107//35
f 181//38 116//37 180//37
f 65//36 180//37 116//37
f 114//38 116//37 181//38
f 173//30 171//28 101//30
f 171//28 144//28 101//30
f 79//25 169//26 77//26
f 169//26 173//30 77//26
f 86//27 170//27 168//25
f 86//27 168//25 79//25
f 89//22 83//23 165//22
f 89//22 165//22 170//27
f 166//23 85//24 167//24
f 83//23 85//24 166//23
f 163//20 95//20 93//19
f 167//24 95//20 163//20
f 164//21 162//19 92//21
f 162//19 93//19 92//21
f 104//16 160//17 80//17
f 160//17 164//21 80//17
f 103//18 161//18 159//16
f 103//18 159//16 104//16
f 75//13 74//14 156//13
f 75//13 156//13 161//18
f 157//14 113//15 158//15
f 74//14 113//15 157//14
f 154//11 68//11 70//10
f 158//15 68//11 154//11
f 155//12 153//10 122//12
f 153//10 70//10 122//12
f 139//7 151//8 140//8
f 151//8 155//12 140//8
f 142//9 152//9 150//7
f 142//9 150//7 139//7
f 123//4 55//5 147//4
f 123//4 147//4 152//9
f 148//5 125//6 149//6
f 55//5 125//6 148//5
f 145//2 127//2 49//3
f 149//6 127//2 145//2
f 5//39 182//39 183//40
f 184//41 6//40 183//40
f 5//39 183//40 6//40
f 184//41 185//42 7//41
f 7//41 6//40 184//41
f 11//42 185//42 186//43
f 185//42 11//42 7//41
f 187//44 15//43 186//43
f 11//42 186//43 15//43
f 187//44 188//45 19//44
f 19//44 15//43 187//44
f 23//45 188//45 189//46
f 188//45 23//45 19//44
f 190//47 27//46 189//46
f 23//45 189//46 27//46
f 190//47 191//48 31//47
f 31//47 27//46 190//47
f 35//48 191//48 192//49
f 191//48 35//48 31//47
f 193//50 39//49 192//49
f 35//48 192//49 39//49
f 193//50 194//51 137//50
f 137//50 39//49 193//50
f 44//51 194//51 195//52
f 194//51 44//51 137//50
f 196//53 136//52 195//52
f 44//51 195//52 136//52
f 196//53 197//54 133//53
f 133//53 136//52 196//53
f 2//54 197//54 198//55
f 197//54 2//54 133//53
f 199//56 131//55 198//55
f 2//54 198//55 131//55
f 199//56 146//3 129//56
f 129//56 131//55 199//56
f 146//3 49//3 129//56
f 10//57 182//39 5//39
f 10//57 13//58 200//57
f 200//57 182//39 10//57
f 201//58 13//58 18//59
f 13//58 201//58 200//57
f 22//60 202//59 18//59
f 201//58 18//59 202//59
f 22//60 25//61 203//60
f 203//60 202//59 22//60
f 204//61 25//61 30//62
f 25//61 204//61 203//60
f 34//63 205//62 30//62
f 204//61 30//62 205//62
f 34//63 37//64 206//63
f 206//63 205//62 34//63
f 207//64 37//64 134//65
f 37//64 207//64 206//63
f 43//66 208//65 134//65
f 207//64 134//65 208//65
f 43//66 130//67 209//66
f 209//66 208//65 43//66
f 210//67 130//67 52//68
f 130//67 210//67 209//66
f 57//69 211//68 52//68
f 210//67 52//68 211//68
f 57//69 56//70 212//69
f 212//69 211//68 57//69
f 213//70 56//70 59//71
f 56//70 213//70 212//69
f 120//72 214//71 59//71
f 213//70 59//71 214//71
f 120//72 63//73 215//72
f 215//72 214//71 120//72
f 216//73 63//73 114//38
f 63//73 216//73 215//72
f 216//73 114//38 181//38
f 66//55 217//56 218//55
f 219//3 115//56 62//3
f 220//53 221//52 111//52
f 108//53 67//54 222//54
f 98//49 223//50 224//49
f 72//50 109//51 225//51
f 226//46 78//46 227//47
f 228//48 100//47 99//48
f 229//44 230//43 90//43
f 87//45 231//45 88//44
f 94//40 232//41 233//40
f 96//41 84//42 234//42
f 235//58 82//58 236//57
f 237//39 81//57 91//39
f 238//60 239//61 76//61
f 105//59 240//59 102//60
f 69//64 241//63 242//64
f 117//63 112//62 243//62
f 119//66 244//65 245//66
f 244//65 119//66 118//65
f 245//66 246//67 121//67
f 121//67 119//66 245//66
f 247//68 141//68 246//67
f 121//67 246//67 141//68
f 143//69 247//68 248//69
f 247//68 143//69 141//68
f 248//69 249//70 124//70
f 124//70 143//69 248//69
f 250//71 53//71 249//70
f 124//70 249//70 53//71
f 54//72 250//71 251//72
f 250//71 54//72 53//71
f 251//72 252//73 126//73
f 126//73 54//72 251//72
f 253//38 47//38 252//73
f 126//73 252//73 47//38
f 118//65 69//64 242//64
f 118//65 242//64 244//65
f 243//62 241//63 117//63
f 117//63 241//63 69//64
f 239//61 112//62 76//61
f 239//61 243//62 112//62
f 238//60 102//60 240//59
f 238//60 76//61 102//60
f 105//59 82//58 235//58
f 240//59 105//59 235//58
f 81//57 237//39 236//57
f 82//58 81//57 236//57
f 94//40 233//40 91//39
f 91//39 233//40 237//39
f 234//42 232//41 96//41
f 96//41 232//41 94//40
f 230//43 84//42 90//43
f 230//43 234//42 84//42
f 229//44 88//44 231//45
f 229//44 90//43 88//44
f 87//45 78//46 226//46
f 231//45 87//45 226//46
f 100//47 228//48 227//47
f 78//46 100//47 227//47
f 98//49 224//49 99//48
f 99//48 224//49 228//48
f 225//51 223//50 72//50
f 72//50 223//50 98//49
f 221//52 109//51 111//52
f 221//52 225//51 109//51
f 220//53 108//53 222//54
f 220//53 111//52 108//53
f 67//54 66//55 218//55
f 222//54 67//54 218//55
f 115//56 219//3 217//56
f 66//55 115//56 217//56
f 9//19 254//19 14//21
f 255//21 17//17 14//21
f 14//21 254//19 255//21
f 21//16 17//17 256//17
f 255//21 256//17 17//17
f 21//16 257//16 26//18
f 257//16 21//16 256//17
f 258//18 29//13 26//18
f 26//18 257//16 258//18
f 33//14 29//13 259//13
f 258//18 259//13 29//13
f 33//14 260//14 38//15
f 260//14 33//14 259//13
f 261//74 138//11 38//15
f 38//15 260//14 261//74
f 135//10 138//11 262//11
f 261//74 262//11 138//11
f 135//10 263//10 41//12
f 263//10 135//10 262//11
f 264//12 42//8 41//12
f 41//12 263//10 264//12
f 50//7 42//8 265//8
f 264//12 265//8 42//8
f 50//7 266//7 51//9
f 266//7 50//7 265//8
f 267//9 58//4 51//9
f 51//9 266//7 267//9
f 60//5 58//4 268//4
f 267//9 268//4 58//4
f 60//5 269//5 61//6
f 269//5 60//5 268//4
f 270//6 64//2 61//6
f 61//6 269//5 270//6
f 62//3 64//2 271//2
f 270//6 271//2 64//2
f 219//3 62//3 271//2
f 272//20 254//19 9//19
f 272//20 4//20 273//24
f 4//20 272//20 9//19
f 8//24 274//23 273//24
f 273//24 4//20 8//24
f 275//22 274//23 12//23
f 8//24 12//23 274//23
f 275//22 16//22 276//27
f 16//22 275//22 12//23
f 20//27 277//25 276//27
f 276//27 16//22 20//27
f 278//26 277//25 24//25
f 20//27 24//25 277//25
f 278//26 28//75 279//30
f 28//75 278//26 24//25
f 32//30 280//28 279//30
f 279//30 28//75 32//30
f 281//29 280//28 36//28
f 32//30 36//28 280//28
f 281//29 40//29 282//31
f 40//29 281//29 36//28
f 46//31 283//32 282//31
f 282//31 40//29 46//31
f 284//33 283//32 45//32
f 46//31 45//32 283//32
f 284//33 132//33 285//34
f 132//33 284//33 45//32
f 1//34 286//35 285//34
f 285//34 132//33 1//34
f 287//36 286//35 3//35
f 1//34 3//35 286//35
f 287//36 128//36 288//37
f 128//36 287//36 3//35
f 48//37 253//38 288//37
f 288//37 128//36 48//37
f 48//37 47//38 253//38
f 163//76 232//76 167//76
f 149//76 145//76 252//76
f 167//76 234//76 166//76
f 162//76 233//76 163//76
f 166//76 230//76 165//76
f 237//76 162//76 164//76
f 165//76 229//76 170//76
f 164//76 160//76 236//76
f 170//76 231//76 168//76
f 159//76 235//76 160//76
f 240//76 159//76 161//76
f 156//76 238//76 161//76
f 168//76 226//76 169//76
f 239//76 156//76 157//76
f 169//76 227//76 173//76
f 157//76 158//76 243//76
f 173//76 228//76 171//76
f 154//76 241//76 158//76
f 172//76 228//76 224//76
f 245//76 155//76 246//76
f 175//76 223//76 225//76
f 247//76 150//76 248//76
f 222//76 178//76 220//76
f 249//76 152//76 147//76
f 219//76 181//76 217//76
f 251//76 250//76 148//76
f 269//76 214//76 270//76
f 253//76 252//76 145//76
f 266//76 265//76 210//76
f 198//76 286//76 287//76
f 207//76 208//76 262//76
f 194//76 193//76 282//76
f 205//76 259//76 204//76
f 189//76 188//76 278//76
f 201//76 256//76 255//76
f 185//76 184//76 274//76
f 277//76 187//76 276//76
f 276//76 186//76 275//76
f 200//76 254//76 182//76
f 183//76 272//76 273//76
f 281//76 192//76 280//76
f 190//76 279//76 280//76
f 204//76 258//76 203//76
f 202//76 203//76 257//76
f 197//76 196//76 285//76
f 195//76 283//76 284//76
f 206//76 207//76 261//76
f 260//76 205//76 206//76
f 145//76 146//76 253//76
f 199//76 288//76 146//76
f 265//76 264//76 209//76
f 208//76 264//76 263//76
f 251//76 149//76 252//76
f 213//76 269//76 268//76
f 268//76 267//76 212//76
f 250//76 249//76 147//76
f 148//76 250//76 147//76
f 216//76 219//76 271//76
f 270//76 215//76 271//76
f 248//76 150//76 152//76
f 249//76 248//76 152//76
f 180//76 218//76 217//76
f 151//76 150//76 247//76
f 218//76 179//76 222//76
f 220//76 177//76 221//76
f 202//76 256//76 201//76
f 153//76 245//76 244//76
f 221//76 176//76 225//76
f 174//76 224//76 223//76
f 153//76 242//76 154//76
f 148//76 149//76 251//76
f 211//76 267//76 266//76
f 155//76 151//76 246//76
f 151//76 247//76 246//76
f 153//76 155//76 245//76
f 153//76 244//76 242//76
f 154//76 242//76 241//76
f 158//76 241//76 243//76
f 157//76 243//76 239//76
f 156//76 239//76 238//76
f 161//76 238//76 240//76
f 159//76 240//76 235//76
f 160//76 235//76 236//76
f 164//76 236//76 237//76
f 162//76 237//76 233//76
f 163//76 233//76 232//76
f 167//76 232//76 234//76
f 166//76 234//76 230//76
f 165//76 230//76 229//76
f 170//76 229//76 231//76
f 168//76 231//76 226//76
f 169//76 226//76 227//76
f 173//76 227//76 228//76
f 172//76 171//76 228//76
f 174//76 172//76 224//76
f 175//76 174//76 223//76
f 176//76 175//76 225//76
f 177//76 176//76 221//76
f 178//76 177//76 220//76
f 179//76 178//76 222//76
f 180//76 179//76 218//76
f 181//76 180//76 217//76
f 216//76 181//76 219//76
f 215//76 216//76 271//76
f 214//76 215//76 270//76
f 213//76 214//76 269//76
f 212//76 213//76 268//76
f 211//76 212//76 267//76
f 210//76 211//76 266//76
f 209//76 210//76 265//76
f 208//76 209//76 264//76
f 208//76 263//76 262//76
f 207//76 262//76 261//76
f 206//76 261//76 260//76
f 205//76 260//76 259//76
f 204//76 259//76 258//76
f 203//76 258//76 257//76
f 202//76 257//76 256//76
f 201//76 255//76 200//76
f 182//76 254//76 272//76
f 200//76 255//76 254//76
f 184//76 183//76 273//76
f 183//76 182//76 272//76
f 275//76 185//76 274//76
f 274//76 184//76 273//76
f 276//76 187//76 186//76
f 275//76 186//76 185//76
f 277//76 188//76 187//76
f 278//76 279//76 189//76
f 277//76 278//76 188//76
f 190//76 280//76 191//76
f 189//76 279//76 190//76
f 193//76 192//76 281//76
f 192//76 191//76 280//76
f 283//76 194//76 282//76
f 282//76 193//76 281//76
f 284//76 196//76 195//76
f 283//76 195//76 194//76
f 285//76 286//76 197//76
f 284//76 285//76 196//76
f 198//76 287//76 199//76
f 197//76 286//76 198//76
f 146//76 288//76 253//76
f 199//76 287//76 288//76
