# Blender 3.5.0
# www.blender.org
o 12T_High_Strength_Metal_Pinion_(276-2251)
v 1.547500 1.823087 -0.502640
v 1.550216 1.821975 -0.002640
v 1.505153 1.854095 -0.002640
v 1.505615 1.853961 -0.502640
v 2.013774 1.770696 -0.502640
v 1.992476 1.701147 -0.502640
v 1.570050 1.891347 -0.502640
v 1.970631 1.711651 -0.502640
v 1.826968 2.049313 -0.502640
v 1.888108 2.014588 -0.502640
v 2.009856 1.986619 -0.502640
v 1.951928 1.908620 -0.502640
v 1.906636 1.955179 -0.502640
v 1.994003 1.948852 -0.502640
v 1.945257 1.995332 -0.502640
v 1.985819 2.010464 -0.502640
v 1.873703 1.973699 -0.502640
v 1.813942 2.017013 -0.502640
v 1.701293 2.071850 -0.502640
v 1.756025 2.051808 -0.502640
v 1.635786 1.997242 -0.502640
v 1.589306 1.948496 -0.502640
v 1.598019 2.013094 -0.502640
v 1.971448 1.921885 -0.502640
v 1.951940 1.678002 -0.502640
v 1.913479 1.680569 -0.502640
v 1.988221 1.773372 -0.502640
v 1.914986 1.904728 -0.502640
v 1.971940 1.875095 -0.502640
v 2.045186 1.889482 -0.502640
v 2.068611 1.883345 -0.502640
v 2.011206 1.814369 -0.502640
v 2.076344 1.851609 -0.502640
v 2.048569 1.828613 -0.502640
v 2.005233 1.887855 -0.502640
v 1.987668 1.812641 -0.502640
v 2.076302 1.733423 -0.502640
v 1.905381 1.632710 -0.502640
v 2.032091 1.695063 -0.502640
v 2.066921 1.701077 -0.502640
v 2.046074 1.757670 -0.502640
v 1.992092 1.639381 -0.502640
v 1.945613 1.590635 -0.502640
v 1.918646 1.613190 -0.502640
v 1.904076 1.916687 -0.502640
v 1.901520 1.669659 -0.502640
v 1.871856 1.612698 -0.502640
v 1.983380 1.574783 -0.502640
v 2.007225 1.598819 -0.502640
v 1.811266 1.991460 -0.502640
v 1.770133 1.596417 -0.502640
v 1.666451 1.683124 -0.502640
v 1.629471 1.679257 -0.502640
v 1.677001 1.671405 -0.502640
v 1.825374 1.536069 -0.502640
v 1.886243 1.539452 -0.502640
v 1.848370 1.508294 -0.502640
v 1.880106 1.516027 -0.502640
v 1.884616 1.579406 -0.502640
v 1.811130 1.573432 -0.502640
v 1.809402 1.596970 -0.502640
v 1.593150 1.814189 -0.502640
v 1.610939 1.876942 -0.502640
v 1.667958 1.907283 -0.502640
v 1.629459 1.909875 -0.502640
v 1.693291 1.573289 -0.502640
v 1.754431 1.538564 -0.502640
v 1.693165 1.538133 -0.502640
v 1.698398 1.517081 -0.502640
v 1.730692 1.508855 -0.502640
v 1.609695 1.712217 -0.502640
v 1.767457 1.570864 -0.502640
v 1.707696 1.614178 -0.502640
v 1.636142 1.592546 -0.502640
v 1.587396 1.639025 -0.502640
v 1.571544 1.601258 -0.502640
v 1.595580 1.577413 -0.502640
v 1.609951 1.665992 -0.502640
v 1.674763 1.632698 -0.502640
v 1.676018 1.955167 -0.502640
v 1.533876 1.698695 -0.502640
v 1.512784 1.704546 -0.502640
v 1.679917 1.918194 -0.502640
v 1.505055 1.736268 -0.502640
v 1.532830 1.759264 -0.502640
v 1.570121 1.699128 -0.502640
v 1.570193 1.773508 -0.502640
v 1.709543 1.975179 -0.502640
v 1.593731 1.775236 -0.502640
v 1.513842 1.886240 -0.502640
v 1.534894 1.891473 -0.502640
v 1.574174 1.989058 -0.502640
v 1.695156 2.048425 -0.502640
v 1.733029 2.079583 -0.502640
v 1.662753 1.974687 -0.502640
v 1.696783 2.008471 -0.502640
v 1.770269 2.014445 -0.502640
v 1.883001 2.070796 -0.502640
v 1.850707 2.079023 -0.502640
v 1.888234 2.049744 -0.502640
v 1.771997 1.990907 -0.502640
v 1.593849 1.814269 -0.002640
v 1.995303 1.951002 -0.002640
v 1.956417 2.000510 -0.002640
v 2.009718 1.986972 -0.002640
v 1.973571 1.923787 -0.002640
v 1.931446 1.983902 -0.002640
v 1.906483 1.954555 -0.002640
v 1.914826 1.905191 -0.002640
v 1.988416 1.812534 -0.002640
v 1.971279 1.875144 -0.002640
v 1.811715 1.570643 -0.002640
v 1.884840 1.577067 -0.002640
v 1.871905 1.613359 -0.002640
v 2.042355 1.889814 -0.002640
v 2.068464 1.883474 -0.002640
v 2.076368 1.851099 -0.002640
v 2.046423 1.827657 -0.002640
v 2.007571 1.888079 -0.002640
v 2.013995 1.814955 -0.002640
v 2.076249 1.733799 -0.002640
v 1.811366 1.990711 -0.002640
v 1.873660 1.974360 -0.002640
v 1.905662 1.632008 -0.002640
v 1.995247 1.700258 -0.002640
v 2.010991 1.771309 -0.002640
v 2.066698 1.700641 -0.002640
v 2.043885 1.758904 -0.002640
v 2.029801 1.695284 -0.002640
v 1.920548 1.611067 -0.002640
v 1.990383 1.642012 -0.002640
v 1.951316 1.678155 -0.002640
v 1.987472 1.773272 -0.002640
v 1.809295 1.596222 -0.002640
v 1.971225 1.711185 -0.002640
v 1.707739 1.613517 -0.002640
v 1.770033 1.597166 -0.002640
v 1.674916 1.633322 -0.002640
v 1.677574 1.671136 -0.002640
v 1.947763 1.589335 -0.002640
v 1.983733 1.574920 -0.002640
v 2.007305 1.599001 -0.002640
v 1.679454 1.918033 -0.002640
v 1.675737 1.955869 -0.002640
v 1.666611 1.682662 -0.002640
v 1.630083 1.909722 -0.002640
v 1.824418 1.538215 -0.002640
v 1.886575 1.542283 -0.002640
v 1.847860 1.508270 -0.002640
v 1.880235 1.516175 -0.002640
v 1.667769 1.906819 -0.002640
v 1.610278 1.876899 -0.002640
v 1.768070 1.573647 -0.002640
v 1.696128 1.585326 -0.002640
v 1.755665 1.540753 -0.002640
v 1.691825 1.545306 -0.002640
v 1.730560 1.508389 -0.002640
v 1.698238 1.517495 -0.002640
v 1.609957 1.713450 -0.002640
v 1.638773 1.594255 -0.002640
v 1.607828 1.664090 -0.002640
v 1.586096 1.636875 -0.002640
v 1.571681 1.600905 -0.002640
v 1.595762 1.577332 -0.002640
v 1.628769 1.678976 -0.002640
v 1.513593 1.703828 -0.002640
v 1.504507 1.736275 -0.002640
v 1.587934 1.703137 -0.002640
v 1.547762 1.697467 -0.002640
v 1.534976 1.760220 -0.002640
v 1.567404 1.772923 -0.002640
v 1.592983 1.775343 -0.002640
v 1.582087 1.888510 -0.002640
v 1.542068 1.892814 -0.002640
v 1.514256 1.886400 -0.002640
v 1.597666 2.012957 -0.002640
v 1.709494 1.974518 -0.002640
v 1.772104 1.991655 -0.002640
v 1.591017 1.945865 -0.002640
v 1.574093 1.988876 -0.002640
v 1.633636 1.998542 -0.002640
v 1.701164 2.071702 -0.002640
v 1.694824 2.045594 -0.002640
v 1.733539 2.079607 -0.002640
v 1.756981 2.049662 -0.002640
v 1.660851 1.976810 -0.002640
v 1.769683 2.017234 -0.002640
v 1.696559 2.010810 -0.002640
v 1.850839 2.079488 -0.002640
v 1.913668 1.681034 -0.002640
v 1.901983 1.669819 -0.002640
v 1.889574 2.042571 -0.002640
v 1.825734 2.047124 -0.002640
v 1.885271 2.002551 -0.002640
v 1.883161 2.070382 -0.002640
v 1.985637 2.010545 -0.002640
v 1.813329 2.014230 -0.002640
v 1.903611 1.916876 -0.002640
v 1.952630 1.908901 -0.002640
vn -0.5804 -0.8143 0.0013
vn -0.5933 -0.8050 -0.0003
vn -0.0000 -0.0000 -1.0000
vn -0.1913 -0.9815 -0.0011
vn -0.1739 -0.9848 0.0004
vn -0.0000 -0.0000 1.0000
vn -0.9690 0.2470 -0.0010
vn -0.9625 0.2712 0.0007
vn 0.4902 0.8716 -0.0011
vn 0.5166 0.8562 0.0012
vn -0.7207 0.6932 -0.0041
vn -0.7617 0.6479 0.0006
vn -0.5538 0.8326 0.0037
vn -0.3248 0.9458 -0.0025
vn -0.3495 0.9369 -0.0003
vn 0.7043 0.7099 -0.0003
vn 0.6995 0.7146 0.0001
vn 0.9221 -0.3870 -0.0007
vn 0.9282 -0.3720 0.0005
vn 0.7814 -0.6240 0.0007
vn 0.7671 -0.6416 -0.0008
vn 0.5794 -0.8151 0.0006
vn 0.5621 -0.8271 -0.0003
vn 0.8587 0.5126 -0.0015
vn 0.8753 0.4836 0.0011
vn -0.3579 0.9338 -0.0006
vn -0.3357 0.9420 0.0011
vn -0.0498 0.9988 -0.0002
vn -0.0407 0.9992 -0.0009
vn 0.2360 0.9718 0.0007
vn 0.2534 0.9674 -0.0002
vn 0.9715 0.2372 0.0002
vn 0.9716 0.2367 0.0002
vn 0.6377 -0.7703 -0.0008
vn 0.6164 -0.7874 0.0011
vn 0.3647 -0.9311 -0.0002
vn 0.3562 -0.9344 -0.0009
vn 0.0942 -0.9956 0.0006
vn 0.0732 -0.9973 -0.0003
vn 0.9999 0.0141 -0.0015
vn 0.9997 -0.0241 0.0015
vn 0.3740 0.9274 -0.0007
vn 0.3529 0.9357 0.0008
vn 0.1041 0.9946 -0.0006
vn 0.0832 0.9965 0.0003
vn 0.6129 0.7901 0.0007
vn 0.6257 0.7801 -0.0005
vn 0.9609 -0.2768 0.0003
vn 0.9604 -0.2785 0.0002
vn -0.1518 -0.9884 -0.0009
vn 0.1437 -0.9896 0.0011
vn 0.1702 -0.9854 -0.0008
vn -0.1425 -0.9898 -0.0002
vn -0.4141 -0.9102 0.0007
vn -0.4334 -0.9012 -0.0003
vn 0.8742 -0.4856 -0.0015
vn 0.8564 -0.5162 0.0012
vn 0.6932 0.7207 -0.0014
vn 0.6791 0.7340 0.0006
vn 0.9306 0.3661 0.0013
vn 0.9369 0.3495 -0.0003
vn 0.7099 -0.7043 -0.0003
vn 0.7146 -0.6995 0.0001
vn -0.3870 -0.9221 -0.0007
vn -0.3720 -0.9282 0.0005
vn -0.6240 -0.7814 0.0007
vn -0.6416 -0.7671 -0.0008
vn -0.8151 -0.5794 0.0006
vn -0.8271 -0.5621 -0.0003
vn 0.5126 -0.8587 -0.0015
vn 0.4836 -0.8753 0.0011
vn 0.9338 0.3579 -0.0006
vn 0.9420 0.3357 0.0011
vn 0.9988 0.0498 -0.0002
vn 0.9992 0.0407 -0.0009
vn 0.9718 -0.2360 0.0007
vn 0.9674 -0.2534 -0.0002
vn 0.2372 -0.9715 0.0002
vn 0.2367 -0.9716 0.0002
vn -0.7703 -0.6377 -0.0008
vn -0.7874 -0.6164 0.0011
vn -0.9311 -0.3647 -0.0002
vn -0.9344 -0.3562 -0.0009
vn -0.9956 -0.0942 0.0006
vn -0.9973 -0.0732 -0.0003
vn 0.0141 -0.9999 -0.0015
vn -0.0241 -0.9997 0.0015
vn 0.9274 -0.3740 -0.0007
vn 0.9357 -0.3529 0.0008
vn 0.9946 -0.1041 -0.0006
vn 0.9965 -0.0832 0.0003
vn 0.7901 -0.6129 0.0007
vn 0.7812 -0.6242 -0.0004
vn -0.2469 -0.9690 -0.0010
vn -0.2712 -0.9625 0.0007
vn -1.0000 0.0036 -0.0027
vn -0.9705 -0.2412 0.0009
vn -0.9744 -0.2247 -0.0001
vn -0.9943 0.1069 0.0031
vn -0.9246 0.3808 0.0006
vn -0.9432 0.3323 -0.0026
vn -0.4902 -0.8716 -0.0011
vn -0.5166 -0.8562 0.0012
vn 0.7207 -0.6932 -0.0014
vn 0.7340 -0.6791 0.0006
vn 0.3661 -0.9306 0.0013
vn 0.3495 -0.9369 -0.0003
vn -0.7043 -0.7099 -0.0003
vn -0.6995 -0.7146 0.0001
vn -0.9221 0.3870 -0.0007
vn -0.9282 0.3720 0.0005
vn -0.7814 0.6240 0.0007
vn -0.7671 0.6416 -0.0008
vn -0.5794 0.8151 0.0006
vn -0.5621 0.8271 -0.0003
vn -0.8575 -0.5145 -0.0015
vn -0.8778 -0.4790 0.0016
vn 0.4241 -0.9056 0.0020
vn 0.3140 -0.9494 -0.0036
vn 0.1398 -0.9902 0.0030
vn 0.0119 -0.9999 -0.0028
vn -0.1830 -0.9831 0.0027
vn -0.2673 -0.9636 -0.0010
vn -0.9630 -0.2696 0.0012
vn -0.9716 -0.2367 -0.0011
vn -0.6377 0.7703 -0.0007
vn -0.6179 0.7863 0.0011
vn -0.3647 0.9311 -0.0002
vn -0.3562 0.9344 -0.0009
vn -0.0942 0.9956 0.0006
vn -0.0732 0.9973 -0.0003
vn -0.9999 -0.0149 -0.0015
vn -0.9998 0.0222 0.0014
vn 0.0036 1.0000 -0.0027
vn -0.2412 0.9705 0.0009
vn -0.2247 0.9744 -0.0001
vn 0.1069 0.9943 0.0031
vn 0.3808 0.9246 0.0006
vn 0.3323 0.9432 -0.0026
vn -0.8716 0.4902 -0.0011
vn -0.8562 0.5166 0.0012
vn -0.6932 -0.7207 -0.0014
vn -0.6791 -0.7340 0.0006
vn -0.9306 -0.3661 0.0013
vn -0.9369 -0.3495 -0.0003
vn -0.7099 0.7043 -0.0003
vn -0.7146 0.6995 0.0001
vn 0.3870 0.9221 -0.0007
vn 0.3720 0.9282 0.0005
vn 0.6240 0.7814 0.0007
vn 0.6416 0.7671 -0.0008
vn 0.8151 0.5794 0.0006
vn 0.8271 0.5621 -0.0003
vn -0.5126 0.8587 -0.0015
vn -0.4836 0.8753 0.0011
vn -0.9338 -0.3579 -0.0006
vn -0.9420 -0.3357 0.0011
vn -0.9988 -0.0498 -0.0002
vn -0.9992 -0.0407 -0.0009
vn -0.9718 0.2360 0.0007
vn -0.9674 0.2534 -0.0002
vn -0.2372 0.9715 0.0002
vn -0.2367 0.9716 0.0002
vn 0.7703 0.6377 -0.0008
vn 0.7874 0.6164 0.0011
vn 0.9311 0.3647 -0.0002
vn 0.9344 0.3562 -0.0009
vn 0.9956 0.0942 0.0006
vn 0.9973 0.0732 -0.0003
vn -0.0141 0.9999 -0.0015
vn 0.0241 0.9997 0.0015
vn -0.9274 0.3740 -0.0007
vn -0.9357 0.3529 0.0008
vn -0.9946 0.1041 -0.0006
vn -0.9965 0.0832 0.0003
vn -0.7901 0.6129 0.0007
vn -0.7812 0.6242 -0.0004
vn 0.2469 0.9690 -0.0010
vn 0.2712 0.9625 0.0007
vn 1.0000 -0.0036 -0.0027
vn 0.9705 0.2412 0.0009
vn 0.9744 0.2247 -0.0001
vn 0.9943 -0.1069 0.0031
vn 0.9246 -0.3808 0.0006
vn 0.9432 -0.3323 -0.0026
vn -0.6924 0.7215 -0.0004
vn -0.6740 0.7388 0.0004
vn -1.0000 0.0067 0.0004
vn -1.0000 0.0052 -0.0003
vn -0.7215 -0.6924 -0.0004
vn -0.7388 -0.6740 0.0004
vn -0.0067 -1.0000 0.0004
vn -0.0052 -1.0000 -0.0003
vn 0.6924 -0.7215 -0.0004
vn 0.6740 -0.7388 0.0004
vn 1.0000 -0.0067 0.0004
vn 1.0000 -0.0052 -0.0003
vn 0.7432 0.6690 0.0004
vn 0.7246 0.6892 -0.0005
vn 0.0078 1.0000 0.0005
vn 0.0059 1.0000 -0.0003
s 0
f 3//1 1//1 2//1
f 4//2 1//2 3//2
f 9//3 10//3 18//3
f 14//3 15//3 11//3
f 11//3 15//3 16//3
f 15//3 14//3 24//3
f 13//3 15//3 24//3
f 24//3 12//3 13//3
f 27//3 8//3 26//3
f 28//3 27//3 26//3
f 33//3 34//3 31//3
f 30//3 31//3 34//3
f 30//3 34//3 35//3
f 32//3 35//3 34//3
f 32//3 29//3 35//3
f 32//3 36//3 29//3
f 26//3 38//3 46//3
f 39//3 37//3 40//3
f 41//3 37//3 39//3
f 42//3 43//3 44//3
f 41//3 6//3 5//3
f 6//3 41//3 39//3
f 6//3 8//3 27//3
f 27//3 5//3 6//3
f 48//3 42//3 49//3
f 42//3 48//3 43//3
f 44//3 25//3 42//3
f 44//3 38//3 25//3
f 53//3 52//3 54//3
f 55//3 56//3 58//3
f 58//3 57//3 55//3
f 59//3 55//3 60//3
f 59//3 56//3 55//3
f 60//3 47//3 59//3
f 61//3 47//3 60//3
f 62//3 63//3 64//3
f 66//3 67//3 68//3
f 70//3 68//3 67//3
f 68//3 70//3 69//3
f 72//3 67//3 66//3
f 72//3 66//3 73//3
f 72//3 73//3 51//3
f 76//3 75//3 74//3
f 76//3 74//3 77//3
f 74//3 75//3 78//3
f 74//3 78//3 79//3
f 64//3 80//3 83//3
f 78//3 53//3 79//3
f 53//3 71//3 52//3
f 82//3 84//3 85//3
f 85//3 81//3 82//3
f 81//3 85//3 86//3
f 85//3 87//3 86//3
f 87//3 71//3 86//3
f 71//3 87//3 89//3
f 61//3 51//3 46//3
f 4//3 90//3 91//3
f 91//3 1//3 4//3
f 7//3 1//3 91//3
f 63//3 1//3 7//3
f 62//3 1//3 63//3
f 46//3 47//3 61//3
f 17//3 45//3 50//3
f 92//3 23//3 22//3
f 23//3 21//3 22//3
f 93//3 19//3 20//3
f 19//3 94//3 20//3
f 21//3 95//3 22//3
f 95//3 65//3 22//3
f 80//3 65//3 95//3
f 47//3 46//3 38//3
f 96//3 20//3 97//3
f 93//3 20//3 96//3
f 100//3 10//3 9//3
f 98//3 100//3 99//3
f 99//3 100//3 9//3
f 17//3 50//3 18//3
f 88//3 97//3 101//3
f 97//3 88//3 96//3
f 12//3 28//3 45//3
f 18//3 10//3 17//3
f 52//3 62//3 64//3
f 26//3 25//3 38//3
f 8//3 25//3 26//3
f 27//3 28//3 36//3
f 36//3 28//3 29//3
f 28//3 12//3 29//3
f 45//3 13//3 12//3
f 17//3 13//3 45//3
f 50//3 83//3 101//3
f 83//3 50//3 45//3
f 101//3 83//3 88//3
f 88//3 83//3 80//3
f 64//3 65//3 80//3
f 63//3 65//3 64//3
f 62//3 52//3 89//3
f 89//3 52//3 71//3
f 54//3 79//3 53//3
f 73//3 79//3 54//3
f 73//3 54//3 51//3
f 46//3 51//3 54//3
f 62//4 2//4 1//4
f 2//5 62//5 102//5
f 103//6 104//6 107//6
f 106//6 107//6 108//6
f 110//6 111//6 109//6
f 123//6 198//6 108//6
f 112//6 113//6 114//6
f 109//6 111//6 199//6
f 120//6 111//6 110//6
f 115//6 117//6 116//6
f 115//6 118//6 117//6
f 115//6 119//6 118//6
f 120//6 118//6 119//6
f 111//6 120//6 119//6
f 122//6 198//6 123//6
f 178//6 198//6 122//6
f 127//6 121//6 128//6
f 129//6 127//6 128//6
f 130//6 131//6 132//6
f 128//6 126//6 125//6
f 125//6 129//6 128//6
f 133//6 125//6 126//6
f 191//6 139//6 134//6
f 135//6 125//6 133//6
f 137//6 139//6 136//6
f 141//6 142//6 131//6
f 131//6 140//6 141//6
f 130//6 140//6 131//6
f 130//6 132//6 124//6
f 144//6 151//6 143//6
f 147//6 149//6 148//6
f 149//6 150//6 148//6
f 113//6 147//6 148//6
f 113//6 112//6 147//6
f 134//6 112//6 114//6
f 153//6 154//6 155//6
f 152//6 102//6 151//6
f 157//6 155//6 156//6
f 156//6 158//6 157//6
f 155//6 154//6 156//6
f 154//6 153//6 136//6
f 136//6 153//6 137//6
f 145//6 151//6 172//6
f 162//6 163//6 160//6
f 163//6 164//6 160//6
f 160//6 161//6 162//6
f 160//6 138//6 161//6
f 165//6 139//6 145//6
f 165//6 161//6 138//6
f 168//6 170//6 169//6
f 166//6 169//6 167//6
f 169//6 170//6 167//6
f 170//6 168//6 171//6
f 159//6 171//6 168//6
f 159//6 172//6 171//6
f 2//6 173//6 174//6
f 175//6 3//6 174//6
f 174//6 3//6 2//6
f 173//6 102//6 152//6
f 102//6 173//6 2//6
f 143//6 178//6 177//6
f 177//6 144//6 143//6
f 134//6 139//6 137//6
f 180//6 179//6 176//6
f 179//6 181//6 176//6
f 182//6 183//6 184//6
f 185//6 184//6 183//6
f 181//6 179//6 186//6
f 186//6 179//6 146//6
f 144//6 186//6 146//6
f 187//6 185//6 188//6
f 183//6 188//6 185//6
f 124//6 190//6 191//6
f 177//6 187//6 188//6
f 177//6 178//6 187//6
f 192//6 193//6 194//6
f 110//6 190//6 133//6
f 195//6 189//6 192//6
f 192//6 189//6 193//6
f 194//6 193//6 197//6
f 194//6 197//6 123//6
f 197//6 122//6 123//6
f 199//6 106//6 108//6
f 107//6 106//6 103//6
f 105//6 104//6 103//6
f 104//6 105//6 196//6
f 198//6 178//6 143//6
f 124//6 191//6 114//6
f 151//6 144//6 146//6
f 146//6 152//6 151//6
f 172//6 151//6 102//6
f 172//6 159//6 145//6
f 159//6 165//6 145//6
f 139//6 165//6 138//6
f 138//6 136//6 139//6
f 114//6 191//6 134//6
f 190//6 124//6 132//6
f 135//6 190//6 132//6
f 190//6 135//6 133//6
f 109//6 190//6 110//6
f 108//6 198//6 199//6
f 109//6 199//6 198//6
f 4//7 3//7 90//7
f 3//8 175//8 90//8
f 17//9 123//9 13//9
f 123//10 108//10 13//10
f 107//11 15//11 13//11
f 107//12 13//12 108//12
f 104//13 15//13 107//13
f 104//14 196//14 15//14
f 196//15 16//15 15//15
f 16//16 105//16 11//16
f 16//17 196//17 105//17
f 103//18 14//18 11//18
f 103//19 11//19 105//19
f 106//20 14//20 103//20
f 106//21 24//21 14//21
f 24//22 106//22 199//22
f 24//23 199//23 12//23
f 12//24 199//24 29//24
f 199//25 111//25 29//25
f 29//26 111//26 35//26
f 119//27 35//27 111//27
f 115//28 35//28 119//28
f 115//29 30//29 35//29
f 30//30 115//30 116//30
f 30//31 116//31 31//31
f 116//32 117//32 31//32
f 31//33 117//33 33//33
f 33//34 117//34 34//34
f 118//35 34//35 117//35
f 120//36 34//36 118//36
f 120//37 32//37 34//37
f 32//38 120//38 110//38
f 32//39 110//39 36//39
f 36//40 110//40 27//40
f 110//41 133//41 27//41
f 5//42 128//42 41//42
f 126//43 128//43 5//43
f 5//44 27//44 126//44
f 27//45 133//45 126//45
f 121//46 41//46 128//46
f 37//47 41//47 121//47
f 121//48 127//48 37//48
f 37//49 127//49 40//49
f 39//50 125//50 6//50
f 127//51 129//51 39//51
f 127//52 39//52 40//52
f 39//53 129//53 125//53
f 6//54 125//54 135//54
f 6//55 135//55 8//55
f 8//56 135//56 25//56
f 135//57 132//57 25//57
f 131//58 42//58 25//58
f 131//59 25//59 132//59
f 131//60 142//60 42//60
f 142//61 49//61 42//61
f 49//62 141//62 48//62
f 49//63 142//63 141//63
f 140//64 43//64 48//64
f 140//65 48//65 141//65
f 130//66 43//66 140//66
f 130//67 44//67 43//67
f 44//68 130//68 124//68
f 44//69 124//69 38//69
f 38//70 124//70 47//70
f 124//71 114//71 47//71
f 47//72 114//72 59//72
f 113//73 59//73 114//73
f 148//74 59//74 113//74
f 148//75 56//75 59//75
f 56//76 148//76 150//76
f 56//77 150//77 58//77
f 150//78 149//78 58//78
f 58//79 149//79 57//79
f 57//80 149//80 55//80
f 147//81 55//81 149//81
f 112//82 55//82 147//82
f 112//83 60//83 55//83
f 60//84 112//84 134//84
f 60//85 134//85 61//85
f 61//86 134//86 51//86
f 134//87 137//87 51//87
f 72//88 155//88 67//88
f 153//89 155//89 72//89
f 72//90 51//90 153//90
f 51//91 137//91 153//91
f 157//92 67//92 155//92
f 70//93 67//93 157//93
f 70//94 157//94 69//94
f 157//95 158//95 69//95
f 66//96 68//96 156//96
f 68//97 69//97 156//97
f 69//98 158//98 156//98
f 154//99 66//99 156//99
f 154//100 136//100 73//100
f 73//101 66//101 154//101
f 73//102 136//102 79//102
f 136//103 138//103 79//103
f 160//104 74//104 79//104
f 160//105 79//105 138//105
f 160//106 164//106 74//106
f 164//107 77//107 74//107
f 77//108 163//108 76//108
f 77//109 164//109 163//109
f 162//110 75//110 76//110
f 162//111 76//111 163//111
f 161//112 75//112 162//112
f 161//113 78//113 75//113
f 78//114 161//114 165//114
f 78//115 165//115 53//115
f 53//116 165//116 71//116
f 165//117 159//117 71//117
f 159//118 168//118 71//118
f 86//119 71//119 168//119
f 168//120 169//120 86//120
f 86//121 169//121 81//121
f 81//122 169//122 166//122
f 81//123 166//123 82//123
f 82//124 166//124 167//124
f 82//125 167//125 84//125
f 84//126 167//126 85//126
f 170//127 85//127 167//127
f 171//128 85//128 170//128
f 171//129 87//129 85//129
f 87//130 171//130 172//130
f 87//131 172//131 89//131
f 89//132 172//132 62//132
f 172//133 102//133 62//133
f 7//134 91//134 174//134
f 91//135 90//135 174//135
f 90//136 175//136 174//136
f 173//137 7//137 174//137
f 173//138 152//138 63//138
f 63//139 7//139 173//139
f 63//140 152//140 65//140
f 152//141 146//141 65//141
f 179//142 22//142 65//142
f 179//143 65//143 146//143
f 179//144 180//144 22//144
f 180//145 92//145 22//145
f 92//146 176//146 23//146
f 92//147 180//147 176//147
f 181//148 21//148 23//148
f 181//149 23//149 176//149
f 186//150 21//150 181//150
f 186//151 95//151 21//151
f 95//152 186//152 144//152
f 95//153 144//153 80//153
f 80//154 144//154 88//154
f 144//155 177//155 88//155
f 88//156 177//156 96//156
f 188//157 96//157 177//157
f 183//158 96//158 188//158
f 183//159 93//159 96//159
f 93//160 183//160 182//160
f 93//161 182//161 19//161
f 182//162 184//162 19//162
f 19//163 184//163 94//163
f 94//164 184//164 20//164
f 185//165 20//165 184//165
f 187//166 20//166 185//166
f 187//167 97//167 20//167
f 97//168 187//168 178//168
f 97//169 178//169 101//169
f 101//170 178//170 50//170
f 178//171 122//171 50//171
f 18//172 193//172 9//172
f 197//173 193//173 18//173
f 18//174 50//174 197//174
f 50//175 122//175 197//175
f 189//176 9//176 193//176
f 99//177 9//177 189//177
f 99//178 189//178 98//178
f 189//179 195//179 98//179
f 10//180 100//180 192//180
f 100//181 98//181 192//181
f 98//182 195//182 192//182
f 194//183 10//183 192//183
f 194//184 123//184 17//184
f 17//185 10//185 194//185
f 190//186 26//186 191//186
f 191//187 26//187 46//187
f 28//188 26//188 190//188
f 190//189 109//189 28//189
f 198//190 45//190 109//190
f 109//191 45//191 28//191
f 83//192 45//192 198//192
f 198//193 143//193 83//193
f 151//194 64//194 143//194
f 143//195 64//195 83//195
f 52//196 64//196 151//196
f 151//197 145//197 52//197
f 54//198 52//198 145//198
f 54//199 145//199 139//199
f 46//200 54//200 139//200
f 139//201 191//201 46//201
