# Blender v3.5.0 OBJ File: 'Gear.blend'
# www.blender.org
o Long_Shaft_Insert_Cube.002
v 1.725618 1.737256 -0.019607
v 1.719142 1.731797 -0.004065
v 1.728558 1.722381 -0.004065
v 1.734017 1.728857 -0.019607
v 1.734017 1.859020 -0.019607
v 1.728558 1.865496 -0.004065
v 1.719142 1.856080 -0.004065
v 1.725618 1.850621 -0.019607
v 1.847382 1.728857 -0.019607
v 1.852841 1.722381 -0.004065
v 1.862257 1.731797 -0.004065
v 1.855781 1.737256 -0.019607
v 1.855781 1.850621 -0.019607
v 1.862257 1.856080 -0.004065
v 1.852841 1.865496 -0.004065
v 1.847382 1.859020 -0.019607
v 1.686589 1.672594 -0.019607
v 1.692048 1.679070 -0.004065
v 1.675831 1.695287 -0.004065
v 1.669355 1.689828 -0.019607
v 1.669355 1.898049 -0.019607
v 1.675831 1.892590 -0.004065
v 1.692048 1.908807 -0.004065
v 1.686589 1.915283 -0.019607
v 1.912044 1.689828 -0.019607
v 1.905568 1.695287 -0.004065
v 1.889351 1.679070 -0.004065
v 1.894810 1.672594 -0.019607
v 1.894810 1.915283 -0.019607
v 1.889351 1.908807 -0.004065
v 1.905568 1.892590 -0.004065
v 1.912044 1.898049 -0.019607
v 1.725618 1.737256 -0.260411
v 1.734017 1.728857 -0.260411
v 1.725618 1.850621 -0.260411
v 1.847382 1.728857 -0.260411
v 1.734017 1.859020 -0.260411
v 1.847382 1.859020 -0.260411
v 1.855781 1.737256 -0.260411
v 1.855781 1.850621 -0.260411
v 1.686589 1.672594 -0.260411
v 1.894810 1.672594 -0.260411
v 1.669355 1.689828 -0.260411
v 1.669355 1.898049 -0.260411
v 1.686589 1.915283 -0.260411
v 1.894810 1.915283 -0.260411
v 1.912044 1.689828 -0.260411
v 1.912044 1.898049 -0.260411
v 1.855781 1.737256 -0.019607
v 1.862257 1.731797 -0.004065
v 1.852841 1.722381 -0.004065
v 1.847382 1.728857 -0.019607
v 1.847382 1.859020 -0.019607
v 1.852841 1.865496 -0.004065
v 1.862257 1.856080 -0.004065
v 1.855781 1.850621 -0.019607
v 1.734017 1.728857 -0.019607
v 1.728558 1.722381 -0.004065
v 1.719142 1.731797 -0.004065
v 1.725618 1.737256 -0.019607
v 1.725618 1.850621 -0.019607
v 1.719142 1.856080 -0.004065
v 1.728558 1.865496 -0.004065
v 1.734017 1.859020 -0.019607
v 1.894810 1.672594 -0.019607
v 1.889351 1.679070 -0.004065
v 1.905568 1.695287 -0.004065
v 1.912044 1.689828 -0.019607
v 1.912044 1.898049 -0.019607
v 1.905568 1.892590 -0.004065
v 1.889351 1.908807 -0.004065
v 1.894810 1.915283 -0.019607
v 1.669355 1.689828 -0.019607
v 1.675831 1.695287 -0.004065
v 1.692048 1.679070 -0.004065
v 1.686589 1.672594 -0.019607
v 1.686589 1.915283 -0.019607
v 1.692048 1.908807 -0.004065
v 1.675831 1.892590 -0.004065
v 1.669355 1.898049 -0.019607
v 1.855781 1.737256 -0.260411
v 1.847382 1.728857 -0.260411
v 1.855781 1.850621 -0.260411
v 1.734017 1.728857 -0.260411
v 1.847382 1.859020 -0.260411
v 1.734017 1.859020 -0.260411
v 1.725618 1.737256 -0.260411
v 1.725618 1.850621 -0.260411
v 1.894810 1.672594 -0.260411
v 1.686589 1.672594 -0.260411
v 1.912044 1.689828 -0.260411
v 1.912044 1.898049 -0.260411
v 1.894810 1.915283 -0.260411
v 1.686589 1.915283 -0.260411
v 1.669355 1.689828 -0.260411
v 1.669355 1.898049 -0.260411
v 1.725618 1.737256 -0.485673
v 1.719142 1.731797 -0.501215
v 1.728558 1.722381 -0.501215
v 1.734017 1.728857 -0.485673
v 1.734017 1.859020 -0.485673
v 1.728558 1.865496 -0.501215
v 1.719142 1.856080 -0.501215
v 1.725618 1.850621 -0.485673
v 1.847382 1.728857 -0.485673
v 1.852841 1.722381 -0.501215
v 1.862257 1.731797 -0.501215
v 1.855781 1.737256 -0.485673
v 1.855781 1.850621 -0.485673
v 1.862257 1.856080 -0.501215
v 1.852841 1.865496 -0.501215
v 1.847382 1.859020 -0.485673
v 1.686589 1.672594 -0.485673
v 1.692048 1.679070 -0.501215
v 1.675831 1.695287 -0.501215
v 1.669355 1.689828 -0.485673
v 1.669355 1.898049 -0.485673
v 1.675831 1.892590 -0.501215
v 1.692048 1.908807 -0.501215
v 1.686589 1.915283 -0.485673
v 1.912044 1.689828 -0.485673
v 1.905568 1.695287 -0.501215
v 1.889351 1.679070 -0.501215
v 1.894810 1.672594 -0.485673
v 1.894810 1.915283 -0.485673
v 1.889351 1.908807 -0.501215
v 1.905568 1.892590 -0.501215
v 1.912044 1.898049 -0.485673
v 1.725618 1.737256 -0.244869
v 1.734017 1.728857 -0.244869
v 1.725618 1.850621 -0.244869
v 1.847382 1.728857 -0.244869
v 1.734017 1.859020 -0.244869
v 1.847382 1.859020 -0.244869
v 1.855781 1.737256 -0.244869
v 1.855781 1.850621 -0.244869
v 1.686589 1.672594 -0.244869
v 1.894810 1.672594 -0.244869
v 1.669355 1.689828 -0.244869
v 1.669355 1.898049 -0.244869
v 1.686589 1.915283 -0.244869
v 1.894810 1.915283 -0.244869
v 1.912044 1.689828 -0.244869
v 1.912044 1.898049 -0.244869
v 1.855781 1.737256 -0.485673
v 1.862257 1.731797 -0.501215
v 1.852841 1.722381 -0.501215
v 1.847382 1.728857 -0.485673
v 1.847382 1.859020 -0.485673
v 1.852841 1.865496 -0.501215
v 1.862257 1.856080 -0.501215
v 1.855781 1.850621 -0.485673
v 1.734017 1.728857 -0.485673
v 1.728558 1.722381 -0.501215
v 1.719142 1.731797 -0.501215
v 1.725618 1.737256 -0.485673
v 1.725618 1.850621 -0.485673
v 1.719142 1.856080 -0.501215
v 1.728558 1.865496 -0.501215
v 1.734017 1.859020 -0.485673
v 1.894810 1.672594 -0.485673
v 1.889351 1.679070 -0.501215
v 1.905568 1.695287 -0.501215
v 1.912044 1.689828 -0.485673
v 1.912044 1.898049 -0.485673
v 1.905568 1.892590 -0.501215
v 1.889351 1.908807 -0.501215
v 1.894810 1.915283 -0.485673
v 1.669355 1.689828 -0.485673
v 1.675831 1.695287 -0.501215
v 1.692048 1.679070 -0.501215
v 1.686589 1.672594 -0.485673
v 1.686589 1.915283 -0.485673
v 1.692048 1.908807 -0.501215
v 1.675831 1.892590 -0.501215
v 1.669355 1.898049 -0.485673
v 1.855781 1.737256 -0.244869
v 1.847382 1.728857 -0.244869
v 1.855781 1.850621 -0.244869
v 1.734017 1.728857 -0.244869
v 1.847382 1.859020 -0.244869
v 1.734017 1.859020 -0.244869
v 1.725618 1.737256 -0.244869
v 1.725618 1.850621 -0.244869
v 1.894810 1.672594 -0.244869
v 1.686589 1.672594 -0.244869
v 1.912044 1.689828 -0.244869
v 1.912044 1.898049 -0.244869
v 1.894810 1.915283 -0.244869
v 1.686589 1.915283 -0.244869
v 1.669355 1.689828 -0.244869
v 1.669355 1.898049 -0.244869
vt 0.642753 0.621092
vt 0.642753 0.742185
vt 0.607247 0.742185
vt 0.607247 0.621092
vt 0.857247 0.621092
vt 0.857247 0.742185
vt 0.392753 0.621092
vt 0.392753 0.742185
vt 0.142753 0.621092
vt 0.142753 0.742185
vt 0.125000 0.742185
vt 0.125000 0.621092
vt 0.357247 0.621092
vt 0.357247 0.742185
vt 0.378142 0.980946
vt 0.394055 0.996858
vt 0.392923 0.999591
vt 0.375409 0.982077
vt 0.605945 0.996858
vt 0.621858 0.980945
vt 0.624591 0.982077
vt 0.607077 0.999591
vt 0.378142 0.769055
vt 0.375409 0.767923
vt 0.394055 0.753142
vt 0.392923 0.750409
vt 0.605946 0.753142
vt 0.607077 0.750409
vt 0.621858 0.769055
vt 0.624591 0.767923
vt 0.142229 0.750000
vt 0.125524 0.750000
vt 0.625000 0.982247
vt 0.607247 1.000000
vt 0.391706 0.750000
vt 0.358294 0.750000
vt 0.607247 0.750000
vt 0.625000 0.767753
vt 0.351623 0.750000
vt 0.148377 0.750000
vt 0.398377 0.000000
vt 0.601623 0.000000
vt 0.607247 0.007815
vt 0.392753 0.007815
vt 0.378550 0.980776
vt 0.394224 0.996450
vt 0.605776 0.996450
vt 0.621450 0.980776
vt 0.394224 0.753550
vt 0.378550 0.769224
vt 0.621450 0.769224
vt 0.605776 0.753550
vt 0.378550 0.980776
vt 0.394224 0.996450
vt 0.378550 0.769224
vt 0.621450 0.769224
vt 0.605776 0.753550
vt 0.605776 0.996450
vt 0.621450 0.980776
vt 0.394224 0.753550
vt 0.607247 0.128908
vt 0.392753 0.128908
vt 0.625000 0.007815
vt 0.625000 0.128908
vt 0.642753 0.621092
vt 0.607247 0.621092
vt 0.607247 0.742185
vt 0.642753 0.742185
vt 0.857247 0.742185
vt 0.857247 0.621092
vt 0.392753 0.621092
vt 0.392753 0.742185
vt 0.142753 0.621092
vt 0.125000 0.621092
vt 0.125000 0.742185
vt 0.142753 0.742185
vt 0.357247 0.742185
vt 0.357247 0.621092
vt 0.378142 0.980946
vt 0.375409 0.982077
vt 0.392923 0.999591
vt 0.394055 0.996858
vt 0.605945 0.996858
vt 0.607077 0.999591
vt 0.624591 0.982077
vt 0.621858 0.980945
vt 0.378142 0.769055
vt 0.375409 0.767923
vt 0.394055 0.753142
vt 0.392923 0.750409
vt 0.605946 0.753142
vt 0.607077 0.750409
vt 0.621858 0.769055
vt 0.624591 0.767923
vt 0.142229 0.750000
vt 0.125524 0.750000
vt 0.607247 1.000000
vt 0.625000 0.982247
vt 0.391706 0.750000
vt 0.358294 0.750000
vt 0.625000 0.767753
vt 0.607247 0.750000
vt 0.351623 0.750000
vt 0.148377 0.750000
vt 0.398377 0.000000
vt 0.392753 0.007815
vt 0.607247 0.007815
vt 0.601623 0.000000
vt 0.378550 0.980776
vt 0.394224 0.996450
vt 0.605776 0.996450
vt 0.621450 0.980776
vt 0.394224 0.753550
vt 0.378550 0.769224
vt 0.621450 0.769224
vt 0.605776 0.753550
vt 0.394224 0.996450
vt 0.378550 0.980776
vt 0.378550 0.769224
vt 0.605776 0.753550
vt 0.621450 0.769224
vt 0.621450 0.980776
vt 0.605776 0.996450
vt 0.394224 0.753550
vt 0.392753 0.128908
vt 0.607247 0.128908
vt 0.625000 0.007815
vt 0.625000 0.128908
vt 0.642753 0.621092
vt 0.607247 0.621092
vt 0.607247 0.742185
vt 0.642753 0.742185
vt 0.857247 0.742185
vt 0.857247 0.621092
vt 0.392753 0.621092
vt 0.392753 0.742185
vt 0.142753 0.621092
vt 0.125000 0.621092
vt 0.125000 0.742185
vt 0.142753 0.742185
vt 0.357247 0.742185
vt 0.357247 0.621092
vt 0.378142 0.980946
vt 0.375409 0.982077
vt 0.392923 0.999591
vt 0.394055 0.996858
vt 0.605945 0.996858
vt 0.607077 0.999591
vt 0.624591 0.982077
vt 0.621858 0.980945
vt 0.378142 0.769055
vt 0.375409 0.767923
vt 0.394055 0.753142
vt 0.392923 0.750409
vt 0.605946 0.753142
vt 0.607077 0.750409
vt 0.621858 0.769055
vt 0.624591 0.767923
vt 0.142229 0.750000
vt 0.125524 0.750000
vt 0.607247 1.000000
vt 0.625000 0.982247
vt 0.391706 0.750000
vt 0.358294 0.750000
vt 0.625000 0.767753
vt 0.607247 0.750000
vt 0.351623 0.750000
vt 0.148377 0.750000
vt 0.398377 0.000000
vt 0.392753 0.007815
vt 0.607247 0.007815
vt 0.601623 0.000000
vt 0.378550 0.980776
vt 0.394224 0.996450
vt 0.605776 0.996450
vt 0.621450 0.980776
vt 0.394224 0.753550
vt 0.378550 0.769224
vt 0.621450 0.769224
vt 0.605776 0.753550
vt 0.394224 0.996450
vt 0.378550 0.980776
vt 0.378550 0.769224
vt 0.605776 0.753550
vt 0.621450 0.769224
vt 0.621450 0.980776
vt 0.605776 0.996450
vt 0.394224 0.753550
vt 0.392753 0.128908
vt 0.607247 0.128908
vt 0.625000 0.007815
vt 0.625000 0.128908
vt 0.642753 0.621092
vt 0.642753 0.742185
vt 0.607247 0.742185
vt 0.607247 0.621092
vt 0.857247 0.621092
vt 0.857247 0.742185
vt 0.392753 0.621092
vt 0.392753 0.742185
vt 0.142753 0.621092
vt 0.142753 0.742185
vt 0.125000 0.742185
vt 0.125000 0.621092
vt 0.357247 0.621092
vt 0.357247 0.742185
vt 0.378142 0.980946
vt 0.394055 0.996858
vt 0.392923 0.999591
vt 0.375409 0.982077
vt 0.605945 0.996858
vt 0.621858 0.980945
vt 0.624591 0.982077
vt 0.607077 0.999591
vt 0.378142 0.769055
vt 0.375409 0.767923
vt 0.394055 0.753142
vt 0.392923 0.750409
vt 0.605946 0.753142
vt 0.607077 0.750409
vt 0.621858 0.769055
vt 0.624591 0.767923
vt 0.142229 0.750000
vt 0.125524 0.750000
vt 0.625000 0.982247
vt 0.607247 1.000000
vt 0.391706 0.750000
vt 0.358294 0.750000
vt 0.607247 0.750000
vt 0.625000 0.767753
vt 0.351623 0.750000
vt 0.148377 0.750000
vt 0.398377 0.000000
vt 0.601623 0.000000
vt 0.607247 0.007815
vt 0.392753 0.007815
vt 0.378550 0.980776
vt 0.394224 0.996450
vt 0.605776 0.996450
vt 0.621450 0.980776
vt 0.394224 0.753550
vt 0.378550 0.769224
vt 0.621450 0.769224
vt 0.605776 0.753550
vt 0.378550 0.980776
vt 0.394224 0.996450
vt 0.378550 0.769224
vt 0.621450 0.769224
vt 0.605776 0.753550
vt 0.605776 0.996450
vt 0.621450 0.980776
vt 0.394224 0.753550
vt 0.607247 0.128908
vt 0.392753 0.128908
vt 0.625000 0.007815
vt 0.625000 0.128908
vn 0.7071 0.7071 0.0000
vn 0.0000 1.0000 0.0000
vn 1.0000 0.0000 0.0000
vn -0.7071 -0.7071 0.0000
vn 0.0000 -1.0000 0.0000
vn 0.0000 0.0000 1.0000
vn -0.6214 -0.6214 0.4772
vn -0.6214 0.6214 0.4772
vn 0.6214 -0.6214 0.4772
vn 0.6214 0.6214 0.4772
vn 0.0000 -0.9231 0.3846
vn -0.9231 0.0000 0.3846
vn 0.0000 0.9231 0.3846
vn 0.9231 0.0000 0.3846
vn 0.7071 -0.7071 0.0000
vn -1.0000 0.0000 0.0000
vn -0.7071 0.7071 0.0000
vn 0.0000 0.0000 -1.0000
vn -0.6214 -0.6214 -0.4772
vn -0.6214 0.6214 -0.4772
vn 0.6214 -0.6214 -0.4772
vn 0.6214 0.6214 -0.4772
vn 0.0000 -0.9231 -0.3846
vn -0.9231 0.0000 -0.3846
vn 0.0000 0.9231 -0.3846
vn 0.9231 0.0000 -0.3846
s off
f 46/1/1 29/2/1 32/3/1 48/4/1
f 46/1/2 45/5/2 24/6/2 29/2/2
f 47/7/3 48/4/3 32/3/3 25/8/3
f 41/9/4 17/10/4 20/11/4 43/12/4
f 41/9/5 42/13/5 28/14/5 17/10/5
f 3/15/6 2/16/6 19/17/6 18/18/6
f 7/19/6 6/20/6 23/21/6 22/22/6
f 10/23/6 3/15/6 18/18/6 27/24/6
f 11/25/6 10/23/6 27/24/6 26/26/6
f 2/16/6 7/19/6 22/22/6 19/17/6
f 14/27/6 11/25/6 26/26/6 31/28/6
f 15/29/6 14/27/6 31/28/6 30/30/6
f 6/20/6 15/29/6 30/30/6 23/21/6
f 18/31/7 19/32/7 20/11/7 17/10/7
f 22/22/8 23/21/8 24/33/8 21/34/8
f 26/35/9 27/36/9 28/14/9 25/8/9
f 30/30/10 31/28/10 32/37/10 29/38/10
f 27/39/11 18/40/11 17/10/11 28/14/11
f 19/41/12 22/42/12 21/43/12 20/44/12
f 29/38/13 24/33/13 23/21/13 30/30/13
f 25/8/14 32/3/14 31/28/14 26/26/14
f 4/45/10 1/46/10 2/16/10 3/15/10
f 8/47/9 5/48/9 6/20/9 7/19/9
f 12/49/8 9/50/8 10/23/8 11/25/8
f 16/51/7 13/52/7 14/27/7 15/29/7
f 9/50/13 4/45/13 3/15/13 10/23/13
f 1/46/14 8/47/14 7/19/14 2/16/14
f 15/29/11 6/20/11 5/48/11 16/51/11
f 11/25/12 14/27/12 13/52/12 12/49/12
f 1/46/1 4/45/1 34/53/1 33/54/1
f 4/45/2 9/50/2 36/55/2 34/53/2
f 13/52/4 16/51/4 38/56/4 40/57/4
f 5/48/15 8/47/15 35/58/15 37/59/15
f 12/49/16 13/52/16 40/57/16 39/60/16
f 16/51/5 5/48/5 37/59/5 38/56/5
f 8/47/3 1/46/3 33/54/3 35/58/3
f 9/50/17 12/49/17 39/60/17 36/55/17
f 20/44/16 21/43/16 44/61/16 43/62/16
f 24/63/17 45/64/17 44/61/17 21/43/17
f 28/14/15 42/13/15 47/7/15 25/8/15
f 94/65/17 96/66/17 80/67/17 77/68/17
f 94/65/2 77/68/2 72/69/2 93/70/2
f 95/71/16 73/72/16 80/67/16 96/66/16
f 89/73/15 91/74/15 68/75/15 65/76/15
f 89/73/5 65/76/5 76/77/5 90/78/5
f 51/79/6 66/80/6 67/81/6 50/82/6
f 55/83/6 70/84/6 71/85/6 54/86/6
f 58/87/6 75/88/6 66/80/6 51/79/6
f 59/89/6 74/90/6 75/88/6 58/87/6
f 50/82/6 67/81/6 70/84/6 55/83/6
f 62/91/6 79/92/6 74/90/6 59/89/6
f 63/93/6 78/94/6 79/92/6 62/91/6
f 54/86/6 71/85/6 78/94/6 63/93/6
f 66/95/9 65/76/9 68/75/9 67/96/9
f 70/84/10 69/97/10 72/98/10 71/85/10
f 74/99/7 73/72/7 76/77/7 75/100/7
f 78/94/8 77/101/8 80/102/8 79/92/8
f 75/103/11 76/77/11 65/76/11 66/104/11
f 67/105/14 68/106/14 69/107/14 70/108/14
f 77/101/13 78/94/13 71/85/13 72/98/13
f 73/72/12 74/90/12 79/92/12 80/67/12
f 52/109/8 51/79/8 50/82/8 49/110/8
f 56/111/7 55/83/7 54/86/7 53/112/7
f 60/113/10 59/89/10 58/87/10 57/114/10
f 64/115/9 63/93/9 62/91/9 61/116/9
f 57/114/13 58/87/13 51/79/13 52/109/13
f 49/110/12 50/82/12 55/83/12 56/111/12
f 63/93/11 64/115/11 53/112/11 54/86/11
f 59/89/14 60/113/14 61/116/14 62/91/14
f 49/110/17 81/117/17 82/118/17 52/109/17
f 52/109/2 82/118/2 84/119/2 57/114/2
f 61/116/15 88/120/15 86/121/15 64/115/15
f 53/112/4 85/122/4 83/123/4 56/111/4
f 60/113/3 87/124/3 88/120/3 61/116/3
f 64/115/5 86/121/5 85/122/5 53/112/5
f 56/111/16 83/123/16 81/117/16 49/110/16
f 57/114/1 84/119/1 87/124/1 60/113/1
f 68/106/3 91/125/3 92/126/3 69/107/3
f 72/127/1 69/107/1 92/126/1 93/128/1
f 76/77/4 73/72/4 95/71/4 90/78/4
f 142/129/1 144/130/1 128/131/1 125/132/1
f 142/129/2 125/132/2 120/133/2 141/134/2
f 143/135/3 121/136/3 128/131/3 144/130/3
f 137/137/4 139/138/4 116/139/4 113/140/4
f 137/137/5 113/140/5 124/141/5 138/142/5
f 99/143/18 114/144/18 115/145/18 98/146/18
f 103/147/18 118/148/18 119/149/18 102/150/18
f 106/151/18 123/152/18 114/144/18 99/143/18
f 107/153/18 122/154/18 123/152/18 106/151/18
f 98/146/18 115/145/18 118/148/18 103/147/18
f 110/155/18 127/156/18 122/154/18 107/153/18
f 111/157/18 126/158/18 127/156/18 110/155/18
f 102/150/18 119/149/18 126/158/18 111/157/18
f 114/159/19 113/140/19 116/139/19 115/160/19
f 118/148/20 117/161/20 120/162/20 119/149/20
f 122/163/21 121/136/21 124/141/21 123/164/21
f 126/158/22 125/165/22 128/166/22 127/156/22
f 123/167/23 124/141/23 113/140/23 114/168/23
f 115/169/24 116/170/24 117/171/24 118/172/24
f 125/165/25 126/158/25 119/149/25 120/162/25
f 121/136/26 122/154/26 127/156/26 128/131/26
f 100/173/22 99/143/22 98/146/22 97/174/22
f 104/175/21 103/147/21 102/150/21 101/176/21
f 108/177/20 107/153/20 106/151/20 105/178/20
f 112/179/19 111/157/19 110/155/19 109/180/19
f 105/178/25 106/151/25 99/143/25 100/173/25
f 97/174/26 98/146/26 103/147/26 104/175/26
f 111/157/23 112/179/23 101/176/23 102/150/23
f 107/153/24 108/177/24 109/180/24 110/155/24
f 97/174/1 129/181/1 130/182/1 100/173/1
f 100/173/2 130/182/2 132/183/2 105/178/2
f 109/180/4 136/184/4 134/185/4 112/179/4
f 101/176/15 133/186/15 131/187/15 104/175/15
f 108/177/16 135/188/16 136/184/16 109/180/16
f 112/179/5 134/185/5 133/186/5 101/176/5
f 104/175/3 131/187/3 129/181/3 97/174/3
f 105/178/17 132/183/17 135/188/17 108/177/17
f 116/170/16 139/189/16 140/190/16 117/171/16
f 120/191/17 117/171/17 140/190/17 141/192/17
f 124/141/15 121/136/15 143/135/15 138/142/15
f 190/193/17 173/194/17 176/195/17 192/196/17
f 190/193/2 189/197/2 168/198/2 173/194/2
f 191/199/16 192/196/16 176/195/16 169/200/16
f 185/201/15 161/202/15 164/203/15 187/204/15
f 185/201/5 186/205/5 172/206/5 161/202/5
f 147/207/18 146/208/18 163/209/18 162/210/18
f 151/211/18 150/212/18 167/213/18 166/214/18
f 154/215/18 147/207/18 162/210/18 171/216/18
f 155/217/18 154/215/18 171/216/18 170/218/18
f 146/208/18 151/211/18 166/214/18 163/209/18
f 158/219/18 155/217/18 170/218/18 175/220/18
f 159/221/18 158/219/18 175/220/18 174/222/18
f 150/212/18 159/221/18 174/222/18 167/213/18
f 162/223/21 163/224/21 164/203/21 161/202/21
f 166/214/22 167/213/22 168/225/22 165/226/22
f 170/227/19 171/228/19 172/206/19 169/200/19
f 174/222/20 175/220/20 176/229/20 173/230/20
f 171/231/23 162/232/23 161/202/23 172/206/23
f 163/233/26 166/234/26 165/235/26 164/236/26
f 173/230/25 168/225/25 167/213/25 174/222/25
f 169/200/24 176/195/24 175/220/24 170/218/24
f 148/237/20 145/238/20 146/208/20 147/207/20
f 152/239/19 149/240/19 150/212/19 151/211/19
f 156/241/22 153/242/22 154/215/22 155/217/22
f 160/243/21 157/244/21 158/219/21 159/221/21
f 153/242/25 148/237/25 147/207/25 154/215/25
f 145/238/24 152/239/24 151/211/24 146/208/24
f 159/221/23 150/212/23 149/240/23 160/243/23
f 155/217/26 158/219/26 157/244/26 156/241/26
f 145/238/17 148/237/17 178/245/17 177/246/17
f 148/237/2 153/242/2 180/247/2 178/245/2
f 157/244/15 160/243/15 182/248/15 184/249/15
f 149/240/4 152/239/4 179/250/4 181/251/4
f 156/241/3 157/244/3 184/249/3 183/252/3
f 160/243/5 149/240/5 181/251/5 182/248/5
f 152/239/16 145/238/16 177/246/16 179/250/16
f 153/242/1 156/241/1 183/252/1 180/247/1
f 164/236/3 165/235/3 188/253/3 187/254/3
f 168/255/1 189/256/1 188/253/1 165/235/1
f 172/206/4 186/205/4 191/199/4 169/200/4
