# Blender v3.5.0 OBJ File: 'Gear.blend'
# www.blender.org
o Metal_Shaft_Inserts_(276-3881-002)
v 1.989579 1.796258 -0.003876
v 1.989154 1.801191 -0.053876
v 1.983394 1.843239 -0.053876
v 1.982273 1.847422 -0.003876
v 1.960261 1.898622 -0.053876
v 1.966237 1.886718 -0.003876
v 1.941871 1.923003 -0.003876
v 1.920521 1.944354 -0.053876
v 1.896139 1.962743 -0.003876
v 1.884235 1.968720 -0.053876
v 1.836951 1.987260 -0.053876
v 1.840757 1.985876 -0.003876
v 1.789445 1.992061 -0.003876
v 1.983394 1.744946 -0.003876
v 1.984777 1.748752 -0.053876
v 1.964139 1.696984 -0.003876
v 1.961973 1.693233 -0.053876
v 1.927460 1.649476 -0.003876
v 1.930064 1.652577 -0.053876
v 1.888719 1.621564 -0.053876
v 1.869805 1.611734 -0.003876
v 1.849594 1.605117 -0.053876
v 1.811021 1.597066 -0.003876
v 1.806707 1.596689 -0.053876
v 1.915453 1.896785 -0.053876
v 1.910008 1.909842 -0.053876
v 1.896292 1.917675 -0.053876
v 1.915193 1.689411 -0.053876
v 1.733626 1.983068 -0.053876
v 1.894302 1.670250 -0.053876
v 1.686928 1.670510 -0.053876
v 1.646993 1.929942 -0.053876
v 1.690751 1.623730 -0.053876
v 1.643673 1.661866 -0.053876
v 1.668028 1.898775 -0.053876
v 1.616983 1.886718 -0.053876
v 1.598443 1.839433 -0.053876
v 1.667767 1.691401 -0.053876
v 1.607371 1.720438 -0.053876
v 1.594206 1.778996 -0.053876
v 1.673212 1.678344 -0.053876
v 1.746270 1.600926 -0.053876
v 1.675861 1.912491 -0.053876
v 1.694501 1.966621 -0.053876
v 1.776513 1.991497 -0.053876
v 1.907359 1.675695 -0.053876
v 1.688918 1.917936 -0.053876
v 1.738281 1.984755 -0.003876
v 1.690751 1.964456 -0.003876
v 1.650094 1.932546 -0.003876
v 1.619082 1.891202 -0.003876
v 1.597380 1.834636 -0.003876
v 1.594200 1.783947 -0.003876
v 1.600948 1.740763 -0.003876
v 1.621247 1.693233 -0.003876
v 1.653157 1.652577 -0.003876
v 1.694501 1.621564 -0.003876
v 1.751067 1.599862 -0.003876
v 1.853852 1.849426 -0.003876
v 1.853400 1.736833 -0.003876
v 1.848870 1.855883 -0.003876
v 1.846943 1.731851 -0.003876
v 1.736277 1.856334 -0.003876
v 1.734351 1.732303 -0.003876
v 1.729820 1.851352 -0.003876
v 1.729369 1.738760 -0.003876
v 1.734351 1.855883 -0.203876
v 1.729369 1.849426 -0.203876
v 1.853400 1.851352 -0.203876
v 1.846943 1.856334 -0.203876
v 1.848870 1.732303 -0.203876
v 1.853852 1.738760 -0.203876
v 1.729820 1.736833 -0.203876
v 1.736277 1.731851 -0.203876
v 1.896671 1.899837 -0.203739
v 1.908384 1.895475 -0.199293
v 1.913483 1.896661 -0.192917
v 1.908360 1.902668 -0.197277
v 1.908639 1.909622 -0.189856
v 1.900517 1.914122 -0.192636
v 1.903180 1.914828 -0.185962
v 1.894087 1.917788 -0.187165
v 1.915319 1.896863 -0.186433
v 1.902878 1.897291 -0.202394
v 1.904434 1.903076 -0.200106
v 1.912637 1.904437 -0.188589
v 1.896182 1.906278 -0.201881
v 1.901828 1.910247 -0.196878
v 1.893989 1.911149 -0.198998
v 1.893990 1.915579 -0.193505
v 1.690228 1.910867 -0.199292
v 1.689042 1.915965 -0.192917
v 1.688840 1.917802 -0.186433
v 1.688653 1.899779 -0.203827
v 1.683035 1.910843 -0.197277
v 1.676081 1.911121 -0.189856
v 1.671581 1.903000 -0.192636
v 1.670875 1.905663 -0.185962
v 1.667915 1.896570 -0.187165
v 1.688411 1.905361 -0.202394
v 1.682627 1.906917 -0.200106
v 1.683581 1.898219 -0.203298
v 1.681266 1.915120 -0.188589
v 1.679425 1.898665 -0.201881
v 1.675456 1.904310 -0.196878
v 1.674554 1.896471 -0.198998
v 1.670124 1.896472 -0.193505
v 1.674836 1.692711 -0.199292
v 1.669738 1.691525 -0.192917
v 1.667901 1.691323 -0.186433
v 1.686550 1.688348 -0.203739
v 1.674860 1.685517 -0.197277
v 1.674582 1.678563 -0.189856
v 1.682703 1.674064 -0.192636
v 1.680040 1.673357 -0.185962
v 1.689133 1.670398 -0.187165
v 1.680342 1.690894 -0.202394
v 1.678786 1.685109 -0.200106
v 1.670583 1.683749 -0.188589
v 1.687038 1.681908 -0.201881
v 1.681393 1.677939 -0.196878
v 1.689232 1.677037 -0.198998
v 1.689231 1.672606 -0.193505
v 1.892992 1.677319 -0.199292
v 1.894178 1.672220 -0.192917
v 1.894380 1.670384 -0.186433
v 1.897352 1.689037 -0.203740
v 1.900186 1.677343 -0.197277
v 1.907140 1.677064 -0.189856
v 1.911639 1.685186 -0.192636
v 1.912346 1.682523 -0.185962
v 1.915305 1.691616 -0.187165
v 1.894809 1.682825 -0.202394
v 1.900594 1.681269 -0.200106
v 1.901954 1.673066 -0.188589
v 1.903795 1.689521 -0.201881
v 1.907764 1.683875 -0.196878
v 1.908666 1.691714 -0.198998
v 1.913097 1.691713 -0.193505
vn 0.9663 0.2574 -0.0014
vn 0.9999 0.0116 0.0039
vn 0.9994 0.0333 -0.0052
vn 0.9627 0.2704 -0.0034
vn 0.8532 0.5214 -0.0118
vn 0.8904 0.4551 0.0019
vn 0.7512 0.6600 0.0102
vn 0.6600 0.7512 -0.0102
vn 0.5188 0.8548 0.0095
vn 0.4480 0.8940 0.0002
vn 0.2312 0.9729 0.0015
vn 0.2618 0.9651 0.0068
vn -0.0681 0.9976 -0.0094
vn -0.0060 1.0000 0.0060
vn 0.9670 -0.2547 0.0074
vn 0.9721 -0.2344 -0.0027
vn 0.8706 -0.4920 0.0014
vn 0.8614 -0.5079 -0.0014
vn 0.6839 -0.7295 0.0095
vn 0.7041 -0.7101 -0.0074
vn 0.5042 -0.8636 -0.0018
vn 0.3971 -0.9176 0.0186
vn 0.2832 -0.9591 -0.0052
vn 0.0947 -0.9954 0.0121
vn 0.0616 -0.9981 -0.0044
vn -0.0000 0.0000 -1.0000
vn -0.2725 0.9621 0.0075
vn -0.4987 0.8668 -0.0014
vn -0.5136 0.8580 0.0009
vn -0.7247 0.6891 -0.0027
vn -0.7101 0.7041 0.0074
vn -0.8750 0.4841 0.0051
vn -0.9739 0.2271 -0.0010
vn -0.9786 0.2058 0.0010
vn -0.9638 -0.2666 0.0077
vn -0.9992 -0.0393 0.0038
vn -0.9974 -0.0704 -0.0118
vn -0.8588 -0.5122 0.0042
vn -0.9267 -0.3755 -0.0176
vn -0.7471 -0.6646 -0.0153
vn -0.6925 -0.7214 0.0091
vn -0.5083 -0.8611 -0.0092
vn -0.4831 -0.8755 0.0049
vn -0.2307 -0.9730 -0.0052
vn -0.2021 -0.9793 0.0052
vn -0.8856 0.4644 -0.0045
vn -0.2978 0.9546 -0.0045
vn 0.0000 0.0000 1.0000
vn 0.8677 0.4466 -0.2185
vn 0.9808 0.1949 0.0011
vn 0.9802 0.1531 -0.1256
vn 0.7040 0.6509 -0.2841
vn 0.4999 0.8589 -0.1116
vn 0.7505 0.6609 0.0046
vn 0.1502 0.9757 -0.1593
vn 0.2552 0.9669 0.0039
vn -0.1949 0.9808 0.0011
vn -0.1531 0.9802 -0.1256
vn -0.4466 0.8677 -0.2185
vn -0.6509 0.7040 -0.2841
vn -0.8589 0.4999 -0.1116
vn -0.6609 0.7505 0.0046
vn -0.9757 0.1502 -0.1593
vn -0.9669 0.2552 0.0039
vn -0.9808 -0.1949 0.0011
vn -0.9802 -0.1531 -0.1256
vn -0.8677 -0.4466 -0.2185
vn -0.7040 -0.6509 -0.2841
vn -0.4999 -0.8589 -0.1116
vn -0.7505 -0.6609 0.0046
vn -0.1502 -0.9757 -0.1593
vn -0.2552 -0.9669 0.0039
vn 0.1949 -0.9808 0.0011
vn 0.1531 -0.9802 -0.1256
vn 0.4466 -0.8677 -0.2185
vn 0.6509 -0.7040 -0.2841
vn 0.8589 -0.4999 -0.1116
vn 0.6609 -0.7505 0.0046
vn 0.9757 -0.1503 -0.1593
vn 0.9669 -0.2552 0.0039
vn 1.0000 0.0014 -0.0008
vn 1.0000 0.0040 -0.0023
vn 1.0000 -0.0014 0.0008
vn 1.0000 -0.0040 0.0023
vn 0.7917 -0.6109 0.0041
vn 0.7877 -0.6161 0.0039
vn 0.6161 -0.7877 -0.0039
vn 0.6109 -0.7917 -0.0041
vn -0.0014 -1.0000 0.0008
vn 0.0014 -1.0000 -0.0008
vn 0.0040 -1.0000 -0.0023
vn -0.0040 -1.0000 0.0023
vn -0.6109 -0.7917 0.0041
vn -0.6161 -0.7877 0.0039
vn -0.7877 -0.6161 -0.0039
vn -0.7917 -0.6109 -0.0041
vn -1.0000 0.0014 0.0008
vn -1.0000 -0.0014 -0.0008
vn -1.0000 -0.0040 -0.0023
vn -1.0000 0.0040 0.0023
vn -0.7917 0.6109 0.0041
vn -0.7877 0.6161 0.0039
vn -0.6161 0.7877 -0.0039
vn -0.6109 0.7917 -0.0041
vn 0.0014 1.0000 0.0008
vn -0.0014 1.0000 -0.0008
vn -0.0040 1.0000 -0.0023
vn 0.0040 1.0000 0.0023
vn 0.6109 0.7917 0.0041
vn 0.6161 0.7877 0.0039
vn 0.7877 0.6161 -0.0039
vn 0.7917 0.6109 -0.0041
vn 0.3830 0.8202 -0.4249
vn 0.6484 0.0831 -0.7568
vn 0.4641 0.3573 -0.8105
vn 0.6810 0.3698 -0.6321
vn 0.3738 0.1145 -0.9204
vn 0.8791 0.1403 -0.4556
vn 0.1729 0.4225 -0.8897
vn 0.1425 0.1600 -0.9768
vn 0.4310 0.6324 -0.6437
vn 0.1160 0.6622 -0.7403
vn 0.1246 0.8667 -0.4830
vn -0.1403 0.8791 -0.4556
vn -0.0831 0.6484 -0.7568
vn -0.1213 0.3805 -0.9168
vn -0.0714 0.1341 -0.9884
vn -0.8202 0.3831 -0.4249
vn -0.3573 0.4641 -0.8105
vn -0.3698 0.6810 -0.6321
vn -0.2293 0.1261 -0.9651
vn -0.4319 0.1804 -0.8837
vn -0.6324 0.4310 -0.6437
vn -0.6622 0.1160 -0.7403
vn -0.8667 0.1246 -0.4830
vn -0.8791 -0.1403 -0.4556
vn -0.6484 -0.0831 -0.7568
vn -0.3738 -0.1146 -0.9204
vn -0.1424 -0.1601 -0.9768
vn -0.3830 -0.8202 -0.4249
vn -0.4641 -0.3573 -0.8105
vn -0.6810 -0.3698 -0.6321
vn -0.1729 -0.4225 -0.8897
vn -0.4310 -0.6324 -0.6437
vn -0.1160 -0.6622 -0.7403
vn -0.1246 -0.8667 -0.4830
vn 0.1403 -0.8791 -0.4556
vn 0.0831 -0.6484 -0.7568
vn 0.1145 -0.3738 -0.9204
vn 0.1599 -0.1423 -0.9768
vn 0.8202 -0.3830 -0.4249
vn 0.3573 -0.4641 -0.8105
vn 0.3698 -0.6810 -0.6321
vn 0.4225 -0.1730 -0.8897
vn 0.6324 -0.4310 -0.6437
vn 0.6622 -0.1160 -0.7403
vn 0.8667 -0.1246 -0.4830
vn 0.0024 0.0007 -1.0000
vn 0.0007 0.0022 -1.0000
vn -0.0003 0.0008 -1.0000
vn -0.0010 0.0002 -1.0000
vn -0.0021 -0.0009 -1.0000
vn -0.0005 -0.0026 -1.0000
vn 0.0007 -0.0024 -1.0000
vn 0.0026 -0.0005 -1.0000
s 1
f 3//1 1//2 2//3
f 4//4 1//2 3//1
f 5//5 4//4 3//1
f 6//6 4//4 5//5
f 6//6 5//5 7//7
f 5//5 8//8 7//7
f 7//7 8//8 9//9
f 8//8 10//10 9//9
f 11//11 9//9 10//10
f 12//12 9//9 11//11
f 11//11 45//13 13//14
f 13//14 12//12 11//11
f 1//2 14//15 15//16
f 15//16 2//3 1//2
f 14//15 16//17 15//16
f 16//17 17//18 15//16
f 16//17 18//19 17//18
f 18//19 19//20 17//18
f 20//21 18//19 21//22
f 18//19 20//21 19//20
f 21//22 22//23 20//21
f 23//24 22//23 21//22
f 24//25 22//23 23//24
f 47//26 45//26 27//26
f 25//26 5//26 3//26
f 17//26 19//26 28//26
f 10//26 27//26 11//26
f 44//26 29//26 47//26
f 20//26 30//26 19//26
f 30//26 20//26 22//26
f 31//26 30//26 24//26
f 31//26 42//26 33//26
f 33//26 34//26 31//26
f 36//26 35//26 37//26
f 38//26 40//26 35//26
f 39//26 38//26 34//26
f 40//26 38//26 39//26
f 35//26 36//26 32//26
f 24//26 30//26 22//26
f 29//26 45//26 47//26
f 10//26 8//26 27//26
f 3//26 2//26 25//26
f 26//26 5//26 25//26
f 8//26 5//26 26//26
f 26//26 27//26 8//26
f 11//26 27//26 45//26
f 47//26 43//26 32//26
f 32//26 44//26 47//26
f 43//26 35//26 32//26
f 37//26 35//26 40//26
f 38//26 41//26 34//26
f 41//26 31//26 34//26
f 42//26 31//26 24//26
f 46//26 19//26 30//26
f 46//26 28//26 19//26
f 15//26 17//26 28//26
f 25//26 2//26 28//26
f 15//26 28//26 2//26
f 45//13 48//27 13//14
f 48//27 44//28 49//29
f 32//30 50//31 49//29
f 51//32 50//31 32//30
f 51//32 37//33 52//34
f 54//35 53//36 40//37
f 55//38 39//39 34//40
f 54//35 39//39 55//38
f 34//40 56//41 55//38
f 56//41 34//40 33//42
f 56//41 33//42 57//43
f 57//43 33//42 42//44
f 57//43 42//44 58//45
f 24//25 58//45 42//44
f 23//24 58//45 24//25
f 39//39 54//35 40//37
f 37//33 40//37 52//34
f 40//37 53//36 52//34
f 51//32 36//46 37//33
f 36//46 51//32 32//30
f 44//28 32//30 49//29
f 48//27 29//47 44//28
f 29//47 48//27 45//13
f 6//48 59//48 4//48
f 14//48 60//48 16//48
f 21//48 62//48 23//48
f 56//48 66//48 55//48
f 53//48 54//48 66//48
f 66//48 54//48 55//48
f 63//48 48//48 49//48
f 57//48 58//48 64//48
f 58//48 23//48 64//48
f 61//48 9//48 12//48
f 49//48 50//48 63//48
f 56//48 64//48 66//48
f 56//48 57//48 64//48
f 23//48 62//48 64//48
f 18//48 62//48 21//48
f 60//48 62//48 18//48
f 18//48 16//48 60//48
f 14//48 1//48 60//48
f 1//48 59//48 60//48
f 4//48 59//48 1//48
f 7//48 59//48 6//48
f 61//48 59//48 7//48
f 7//48 9//48 61//48
f 12//48 13//48 61//48
f 13//48 63//48 61//48
f 48//48 63//48 13//48
f 50//48 65//48 63//48
f 50//48 51//48 65//48
f 51//48 52//48 65//48
f 53//48 65//48 52//48
f 66//48 65//48 53//48
f 86//49 25//50 83//51
f 79//52 81//53 26//54
f 82//55 27//56 81//53
f 27//56 26//54 81//53
f 86//49 79//52 26//54
f 26//54 25//50 86//49
f 47//57 82//55 93//58
f 47//57 27//56 82//55
f 103//59 47//57 93//58
f 96//60 98//61 43//62
f 99//63 35//64 98//61
f 35//64 43//62 98//61
f 103//59 96//60 43//62
f 43//62 47//57 103//59
f 38//65 99//63 110//66
f 38//65 35//64 99//63
f 119//67 38//65 110//66
f 113//68 115//69 41//70
f 116//71 31//72 115//69
f 31//72 41//70 115//69
f 119//67 113//68 41//70
f 41//70 38//65 119//67
f 30//73 116//71 126//74
f 30//73 31//72 116//71
f 135//75 30//73 126//74
f 129//76 131//77 46//78
f 132//79 28//80 131//77
f 28//80 46//78 131//77
f 135//75 129//76 46//78
f 46//78 30//73 135//75
f 25//50 132//79 83//51
f 25//50 28//80 132//79
f 73//81 68//82 65//83
f 65//83 66//84 73//81
f 68//85 67//86 65//87
f 63//88 65//87 67//86
f 61//89 67//90 70//91
f 61//89 63//92 67//90
f 70//93 69//94 61//95
f 59//96 61//95 69//94
f 60//97 69//98 72//99
f 60//97 59//100 69//98
f 72//101 71//102 60//103
f 62//104 60//103 71//102
f 64//105 71//106 74//107
f 64//105 62//108 71//106
f 74//109 73//110 64//111
f 66//112 64//111 73//110
f 79//52 80//113 81//53
f 76//114 85//115 78//116
f 85//115 76//114 84//117
f 78//116 77//118 76//114
f 83//51 77//118 86//49
f 78//116 86//49 77//118
f 78//116 79//52 86//49
f 87//119 85//115 84//117
f 87//119 84//117 75//120
f 88//121 78//116 85//115
f 88//121 79//52 78//116
f 88//121 85//115 87//119
f 79//52 88//121 80//113
f 87//119 89//122 88//121
f 80//113 89//122 90//123
f 88//121 89//122 80//113
f 80//113 90//123 82//55
f 80//113 82//55 81//53
f 89//122 92//124 90//123
f 92//124 89//122 91//125
f 82//55 90//123 92//124
f 93//58 82//55 92//124
f 100//126 91//125 87//119
f 89//122 87//119 91//125
f 94//127 100//126 75//120
f 87//119 75//120 100//126
f 96//60 97//128 98//61
f 91//125 101//129 95//130
f 101//129 91//125 100//126
f 95//130 92//124 91//125
f 93//58 92//124 103//59
f 95//130 103//59 92//124
f 102//131 100//126 94//127
f 95//130 96//60 103//59
f 104//132 101//129 100//126
f 104//132 100//126 102//131
f 105//133 95//130 101//129
f 105//133 96//60 95//130
f 105//133 101//129 104//132
f 96//60 105//133 97//128
f 104//132 106//134 105//133
f 97//128 106//134 107//135
f 105//133 106//134 97//128
f 97//128 107//135 99//63
f 97//128 99//63 98//61
f 106//134 109//136 107//135
f 109//136 106//134 108//137
f 99//63 107//135 109//136
f 110//66 99//63 109//136
f 117//138 108//137 104//132
f 106//134 104//132 108//137
f 111//139 117//138 102//131
f 104//132 102//131 117//138
f 94//127 111//139 102//131
f 113//68 114//140 115//69
f 108//137 118//141 112//142
f 118//141 108//137 117//138
f 112//142 109//136 108//137
f 110//66 109//136 119//67
f 112//142 119//67 109//136
f 112//142 113//68 119//67
f 120//143 118//141 117//138
f 120//143 117//138 111//139
f 121//144 112//142 118//141
f 121//144 113//68 112//142
f 121//144 118//141 120//143
f 113//68 121//144 114//140
f 120//143 122//145 121//144
f 114//140 122//145 123//146
f 121//144 122//145 114//140
f 114//140 123//146 116//71
f 114//140 116//71 115//69
f 122//145 125//147 123//146
f 125//147 122//145 124//148
f 116//71 123//146 125//147
f 126//74 116//71 125//147
f 133//149 124//148 120//143
f 122//145 120//143 124//148
f 127//150 133//149 111//139
f 120//143 111//139 133//149
f 129//76 130//151 131//77
f 124//148 134//152 128//153
f 134//152 124//148 133//149
f 128//153 125//147 124//148
f 126//74 125//147 135//75
f 128//153 135//75 125//147
f 128//153 129//76 135//75
f 136//154 134//152 133//149
f 136//154 133//149 127//150
f 137//155 128//153 134//152
f 137//155 129//76 128//153
f 137//155 134//152 136//154
f 129//76 137//155 130//151
f 136//154 138//156 137//155
f 130//151 138//156 139//157
f 137//155 138//156 130//151
f 130//151 139//157 132//79
f 130//151 132//79 131//77
f 138//156 77//118 139//157
f 77//118 138//156 76//114
f 132//79 139//157 77//118
f 83//51 132//79 77//118
f 84//117 76//114 136//154
f 138//156 136//154 76//114
f 75//120 84//117 127//150
f 136//154 127//150 84//117
f 127//150 69//158 75//120
f 70//159 75//120 69//158
f 70//159 94//127 75//120
f 70//159 67//160 94//127
f 94//127 67//160 68//161
f 73//162 94//127 68//161
f 73//162 111//139 94//127
f 74//163 111//139 73//162
f 127//150 111//139 74//163
f 71//164 127//150 74//163
f 127//150 71//164 72//165
f 69//158 127//150 72//165
