# Blender v3.5.0 OBJ File: 'nut.blend'
# www.blender.org
o #8-32_Hex_Nut_(275-1028)(1)
v 0.281553 0.190289 -0.008759
v 0.288667 0.179586 -0.000760
v 0.276053 0.165829 -0.008761
v 0.275163 0.146799 -0.000758
v 0.260889 0.141363 -0.008761
v 0.247199 0.118778 -0.000762
v 0.238271 0.123558 -0.008761
v 0.210928 0.114563 -0.008761
v 0.201845 0.105151 -0.000762
v 0.288094 0.215173 -0.000758
v 0.279782 0.215535 -0.008761
v 0.274459 0.247906 -0.000760
v 0.266545 0.245158 -0.008766
v 0.239059 0.279299 -0.000766
v 0.242757 0.267043 -0.008761
v 0.219623 0.276707 -0.008759
v 0.192340 0.287520 -0.000760
v 0.198189 0.279291 -0.008759
v 0.182158 0.115463 -0.008761
v 0.161533 0.123062 -0.008758
v 0.155754 0.116026 -0.000762
v 0.143860 0.134800 -0.008761
v 0.127930 0.154465 -0.008759
v 0.123728 0.145285 -0.000760
v 0.118405 0.177656 -0.008761
v 0.110093 0.178018 -0.000758
v 0.117059 0.209953 -0.008766
v 0.109520 0.213605 -0.000760
v 0.128646 0.240259 -0.008761
v 0.123024 0.246392 -0.000758
v 0.150531 0.264048 -0.008766
v 0.150988 0.274413 -0.000762
v 0.176817 0.276239 -0.008759
v 0.281126 0.184761 -0.114753
v 0.272131 0.157418 -0.114753
v 0.254327 0.134800 -0.114753
v 0.236654 0.123062 -0.114757
v 0.212451 0.114561 -0.114749
v 0.280226 0.213531 -0.114753
v 0.272627 0.234156 -0.114757
v 0.260889 0.251829 -0.114753
v 0.241224 0.267760 -0.114756
v 0.214599 0.278251 -0.114749
v 0.318059 0.067190 -0.001133
v 0.080128 0.326001 -0.001133
v 0.180154 0.115907 -0.114753
v 0.156963 0.125432 -0.114756
v 0.137298 0.141363 -0.114753
v 0.122134 0.165829 -0.114753
v 0.116634 0.190289 -0.114756
v 0.117812 0.211846 -0.114756
v 0.126056 0.235774 -0.114753
v 0.143860 0.258391 -0.114753
v 0.161533 0.270129 -0.114757
v 0.182158 0.277729 -0.114753
v 0.288667 0.213605 -0.122755
v 0.275163 0.246392 -0.122756
v 0.247199 0.274413 -0.122752
v 0.201845 0.288041 -0.122752
v 0.288094 0.178018 -0.122756
v 0.274459 0.145285 -0.122754
v 0.239059 0.113892 -0.122748
v 0.192340 0.105671 -0.122755
v 0.285401 0.045589 -0.000976
v 0.261613 0.028852 -0.002356
v 0.295898 0.028905 -0.009848
v 0.370317 0.157701 -0.001001
v 0.373068 0.196810 -0.000967
v 0.392711 0.196573 -0.009880
v 0.377843 0.222483 -0.002676
v 0.295973 0.364116 -0.009407
v 0.324445 0.314989 -0.000763
v 0.285318 0.347546 -0.000932
v 0.249478 0.364341 -0.000870
v 0.073742 0.078202 -0.000763
v 0.112869 0.045645 -0.000932
v 0.005476 0.196618 -0.009880
v 0.027869 0.235490 -0.001001
v 0.025119 0.196381 -0.000967
v 0.112785 0.347602 -0.000976
v 0.136574 0.364340 -0.002356
v 0.102289 0.364286 -0.009848
v 0.020344 0.170709 -0.002676
v 0.102214 0.029075 -0.009407
v 0.148709 0.028850 -0.000870
v 0.155754 0.277165 -0.122752
v 0.123728 0.247906 -0.122754
v 0.110093 0.215173 -0.122756
v 0.109520 0.179586 -0.122755
v 0.123024 0.146799 -0.122756
v 0.150988 0.118778 -0.122752
v 0.029040 0.237476 -0.122555
v 0.218442 0.364357 -0.122860
v 0.179745 0.028834 -0.122860
v 0.246188 0.028857 -0.122305
v 0.272726 0.029006 -0.120207
v 0.296028 0.029110 -0.114480
v 0.102285 0.028904 -0.113671
v 0.133168 0.028851 -0.120692
v 0.322832 0.075448 -0.122640
v 0.392719 0.196596 -0.113672
v 0.378578 0.172019 -0.120569
v 0.370018 0.235993 -0.122451
v 0.295902 0.364288 -0.113671
v 0.318220 0.325722 -0.122397
v 0.151999 0.364334 -0.122305
v 0.125461 0.364186 -0.120207
v 0.102159 0.364081 -0.114480
v 0.265019 0.364341 -0.120692
v 0.075355 0.317743 -0.122640
v 0.005467 0.196595 -0.113672
v 0.019609 0.221172 -0.120569
v 0.028169 0.157198 -0.122451
v 0.079967 0.067469 -0.122397
v 0.369147 0.155716 -0.122555
v 0.286163 0.347259 -0.122518
v 0.112024 0.045932 -0.122518
vn -0.6904 0.1306 0.7116
vn -0.7174 0.0269 0.6961
vn -0.6781 0.2781 0.6803
vn -0.5911 0.3856 0.7085
vn -0.5402 0.5047 0.6734
vn -0.3675 0.5968 0.7133
vn -0.2968 0.6366 0.7118
vn -0.1573 0.7188 0.6772
vn -0.0190 0.7015 0.7124
vn -0.6984 -0.1460 0.7006
vn -0.6823 -0.1798 0.7086
vn -0.5830 -0.4026 0.7057
vn -0.5616 -0.4401 0.7006
vn -0.3043 -0.6237 0.7200
vn -0.4460 -0.5795 0.6821
vn -0.1545 -0.7487 0.6446
vn 0.0514 -0.7161 0.6961
vn -0.0220 -0.7048 0.7090
vn 0.6944 0.1382 0.7062
vn 0.6881 0.1694 0.7055
vn 0.6965 -0.1014 0.7104
vn 0.5901 -0.3957 0.7038
vn 0.6037 -0.3626 0.7100
vn 0.4447 -0.5527 0.7048
vn 0.3623 -0.6033 0.7105
vn 0.2199 -0.7225 0.6555
vn 0.6929 -0.1396 0.7074
vn 0.5831 0.3989 0.7078
vn 0.6239 0.3312 0.7079
vn 0.5150 0.5649 0.6447
vn 0.3338 0.6262 0.7046
vn 0.2953 0.6012 0.7425
vn 0.1684 0.7591 0.6288
vn -0.9260 0.3774 -0.0074
vn -0.9972 0.0740 -0.0044
vn -0.9899 0.1414 0.0068
vn -0.8812 0.4727 0.0087
vn -0.7456 0.6663 -0.0087
vn -0.6766 0.7363 0.0061
vn -0.4711 0.8821 -0.0062
vn -0.4447 0.8957 0.0026
vn -0.1412 0.9900 -0.0020
vn -0.1484 0.9889 0.0013
vn -0.9814 -0.1919 0.0036
vn -0.9706 -0.2405 -0.0058
vn -0.8927 -0.4506 0.0047
vn -0.8118 -0.5839 -0.0090
vn -0.7385 -0.6743 0.0053
vn -0.5355 -0.8446 -0.0022
vn -0.5026 -0.8645 0.0014
vn -0.1827 -0.9831 0.0050
vn -0.2592 -0.9658 -0.0018
vn 0.0116 -0.9999 -0.0059
vn 0.0026 -0.0006 1.0000
vn 0.0668 -0.0062 0.9977
vn 0.2143 -0.0077 0.9767
vn 0.0029 -0.0025 1.0000
vn 0.0398 -0.0557 0.9977
vn 0.0019 -0.0003 1.0000
vn 0.0003 -0.0020 1.0000
vn 0.1109 -0.1849 0.9765
vn 0.0022 -0.0025 1.0000
vn 0.0345 0.0400 0.9986
vn -0.0026 0.0006 1.0000
vn -0.0029 0.0025 1.0000
vn -0.0668 0.0062 0.9977
vn -0.2143 0.0077 0.9767
vn -0.0019 0.0003 1.0000
vn -0.0022 0.0024 1.0000
vn -0.1109 0.1849 0.9765
vn -0.0398 0.0557 0.9977
vn -0.0345 -0.0400 0.9986
vn 0.0256 0.0581 0.9980
vn -0.0004 0.0020 1.0000
vn -0.1162 -0.1844 0.9760
vn -0.0009 -0.0019 1.0000
vn 0.0000 -0.0007 1.0000
vn -0.0255 -0.0581 0.9980
vn 0.0008 0.0019 1.0000
vn -0.0001 0.0007 1.0000
vn 0.1162 0.1844 0.9760
vn 0.1900 0.9818 -0.0008
vn 0.2138 0.9769 0.0035
vn 0.5088 0.8609 0.0059
vn 0.4518 0.8921 -0.0034
vn 0.6719 0.7406 -0.0061
vn 0.7500 0.6613 0.0083
vn 0.8505 -0.5259 -0.0077
vn 0.8788 -0.4771 0.0031
vn 0.6787 -0.7344 0.0067
vn 0.4510 -0.8925 0.0057
vn 0.5892 -0.8080 -0.0082
vn 0.1860 -0.9825 0.0073
vn 0.2836 -0.9589 -0.0069
vn 0.9867 -0.1623 -0.0081
vn 0.9811 -0.1936 0.0035
vn 0.9966 0.0820 0.0062
vn 0.9767 0.2146 -0.0094
vn 0.9257 0.3783 0.0086
vn 0.8600 0.5103 -0.0079
vn -0.7081 0.0810 -0.7015
vn -0.6802 -0.1431 -0.7189
vn -0.6952 -0.1260 -0.7077
vn -0.6549 -0.3060 -0.6910
vn -0.6008 -0.3909 -0.6973
vn -0.5422 -0.5116 -0.6665
vn -0.3658 -0.6005 -0.7110
vn -0.3309 -0.5890 -0.7373
vn -0.1815 -0.7384 -0.6494
vn -0.0137 -0.6956 -0.7183
vn -0.6935 0.1533 -0.7039
vn -0.6433 0.3161 -0.6973
vn -0.5769 0.4076 -0.7079
vn -0.5207 0.5783 -0.6280
vn -0.3023 0.6297 -0.7156
vn -0.2993 0.5811 -0.7568
vn -0.1270 0.7714 -0.6235
vn 0.0472 0.6996 -0.7130
vn 0.2153 -0.3495 0.9119
vn 0.1866 0.0306 0.9820
vn 0.4129 -0.0231 0.9105
vn 0.2131 0.3327 0.9186
vn 0.0523 -0.1557 0.9864
vn -0.2153 0.3495 0.9119
vn -0.4129 0.0231 0.9105
vn -0.1866 -0.0306 0.9820
vn -0.2131 -0.3327 0.9186
vn -0.0523 0.1557 0.9864
vn 0.6446 -0.3182 -0.6952
vn 0.6879 -0.1239 -0.7152
vn 0.6969 -0.1479 -0.7018
vn 0.7196 0.0284 -0.6938
vn 0.6781 0.2781 -0.6803
vn 0.6904 0.1306 -0.7116
vn 0.3684 0.5980 -0.7119
vn 0.5425 0.5051 -0.6712
vn 0.3355 0.5856 -0.7379
vn 0.1951 0.7225 -0.6633
vn 0.5911 0.3856 -0.7085
vn 0.5760 -0.4049 -0.7101
vn 0.5148 -0.5624 -0.6471
vn 0.3338 -0.6262 -0.7046
vn 0.2953 -0.6012 -0.7425
vn 0.1663 -0.7574 -0.6314
vn 0.0021 0.0026 -1.0000
vn 0.0396 0.0550 -0.9977
vn 0.0032 0.0024 -1.0000
vn -0.0303 0.0406 -0.9987
vn -0.0009 -0.0000 -1.0000
vn -0.0016 0.0008 -1.0000
vn 0.0047 0.0136 -0.9999
vn 0.0013 -0.0006 -1.0000
vn 0.1142 0.1832 -0.9764
vn -0.0021 -0.0026 -1.0000
vn -0.1142 -0.1832 -0.9764
vn -0.0396 -0.0550 -0.9977
vn -0.0013 0.0005 -1.0000
vn 0.0009 0.0001 -1.0000
vn -0.0047 -0.0138 -0.9999
vn 0.0303 -0.0406 -0.9987
vn 0.0024 -0.0005 -1.0000
vn 0.0368 0.0001 -0.9993
vn 0.0016 -0.0008 -1.0000
vn 0.0660 0.0050 -0.9978
vn -0.0032 -0.0024 -1.0000
vn -0.0660 -0.0050 -0.9978
vn 0.0031 0.0010 -1.0000
vn -0.0031 -0.0010 -1.0000
vn -0.0368 -0.0001 -0.9993
vn -0.0024 0.0005 -1.0000
vn 0.0024 -1.0000 -0.0007
vn 0.0055 -1.0000 -0.0021
vn 0.0050 -1.0000 -0.0020
vn 0.0008 -1.0000 -0.0001
vn 0.0024 -1.0000 -0.0008
vn -0.0000 -1.0000 0.0000
vn -0.0019 -1.0000 0.0006
vn -0.0010 -1.0000 0.0001
vn -0.0052 -1.0000 0.0016
vn -0.0024 -1.0000 0.0005
vn 0.8668 -0.4987 -0.0000
vn 0.8665 -0.4991 0.0001
vn 0.8661 -0.4998 -0.0001
vn 0.8658 -0.5005 0.0000
vn 0.8656 -0.5008 -0.0000
vn 0.8659 -0.5003 -0.0001
vn 0.8655 -0.5010 0.0001
vn 0.8662 -0.4996 -0.0000
vn 0.8659 -0.5002 -0.0002
vn 0.8655 0.5008 0.0002
vn 0.8653 0.5013 0.0000
vn 0.8657 0.5005 -0.0000
vn 0.8657 0.5006 -0.0001
vn 0.8666 0.4990 -0.0001
vn 0.8662 0.4996 -0.0002
vn 0.8674 0.4977 0.0002
vn 0.8666 0.4990 -0.0002
vn -0.0024 1.0000 -0.0007
vn -0.0055 1.0000 -0.0021
vn -0.0050 1.0000 -0.0020
vn -0.0008 1.0000 -0.0001
vn -0.0024 1.0000 -0.0008
vn 0.0000 1.0000 0.0000
vn 0.0019 1.0000 0.0006
vn 0.0010 1.0000 0.0001
vn 0.0052 1.0000 0.0016
vn 0.0024 1.0000 0.0005
vn -0.8668 0.4987 -0.0000
vn -0.8665 0.4991 0.0001
vn -0.8661 0.4998 -0.0001
vn -0.8658 0.5005 0.0000
vn -0.8656 0.5008 -0.0000
vn -0.8659 0.5003 -0.0001
vn -0.8655 0.5010 0.0001
vn -0.8662 0.4996 -0.0000
vn -0.8659 0.5002 -0.0002
vn -0.8655 -0.5008 0.0002
vn -0.8653 -0.5013 0.0000
vn -0.8657 -0.5005 -0.0000
vn -0.8657 -0.5006 -0.0001
vn -0.8666 -0.4990 -0.0001
vn -0.8662 -0.4996 -0.0002
vn -0.8674 -0.4977 0.0002
vn -0.8666 -0.4990 -0.0002
vn 0.1166 -0.1770 -0.9773
vn 0.0206 -0.0411 -0.9989
vn 0.2201 0.3476 -0.9114
vn 0.0837 0.2078 -0.9746
vn 0.2513 0.0051 -0.9679
vn 0.4004 0.0266 -0.9160
vn 0.2293 -0.2959 -0.9273
vn -0.2201 -0.3476 -0.9114
vn -0.1166 0.1770 -0.9773
vn -0.0206 0.0411 -0.9989
vn -0.0837 -0.2078 -0.9746
vn -0.2513 -0.0051 -0.9679
vn -0.4004 -0.0266 -0.9160
vn -0.2293 0.2959 -0.9273
s 1
f 2//1 1//2 3//3
f 3//3 4//4 2//1
f 3//3 5//5 4//4
f 6//6 4//4 5//5
f 7//7 6//6 5//5
f 6//6 7//7 8//8
f 9//9 6//6 8//8
f 1//2 10//10 11//11
f 10//10 1//2 2//1
f 12//12 13//13 11//11
f 11//11 10//10 12//12
f 13//13 14//14 15//15
f 14//14 13//13 12//12
f 14//14 16//16 15//15
f 17//17 18//18 16//16
f 16//16 14//14 17//17
f 26//19 25//20 27//21
f 30//22 29//23 31//24
f 32//25 31//24 33//26
f 17//17 32//25 33//26
f 17//17 33//26 18//18
f 31//24 32//25 30//22
f 29//23 28//27 27//21
f 30//22 28//27 29//23
f 26//19 27//21 28//27
f 25//20 24//28 23//29
f 26//19 24//28 25//20
f 24//28 22//30 23//29
f 21//31 22//30 24//28
f 22//30 21//31 20//32
f 20//32 21//31 19//33
f 21//31 9//9 19//33
f 19//33 9//9 8//8
f 3//34 1//35 34//36
f 3//34 34//36 35//37
f 3//34 35//37 5//38
f 35//37 36//39 5//38
f 36//39 7//40 5//38
f 37//41 7//40 36//39
f 8//42 7//40 38//43
f 37//41 38//43 7//40
f 39//44 34//36 1//35
f 11//45 39//44 1//35
f 39//44 11//45 40//46
f 40//46 11//45 13//47
f 41//48 40//46 13//47
f 41//48 15//49 42//50
f 15//49 41//48 13//47
f 42//50 15//49 43//51
f 43//51 15//49 16//52
f 43//51 16//52 18//53
f 2//54 67//55 68//56
f 4//57 44//58 67//55
f 2//54 68//56 10//59
f 9//60 64//61 6//62
f 68//56 72//63 10//59
f 28//64 30//65 78//66
f 28//64 78//66 79//67
f 28//64 79//67 26//68
f 32//69 80//70 45//71
f 75//72 26//68 79//67
f 74//73 80//70 17//74
f 76//75 21//76 24//77
f 85//78 9//60 76//75
f 76//75 9//60 21//76
f 14//79 12//80 73//81
f 75//72 76//75 24//77
f 75//72 24//77 26//68
f 45//71 78//66 30//65
f 45//71 30//65 32//69
f 80//70 32//69 17//74
f 73//81 74//73 17//74
f 73//81 17//74 14//79
f 72//63 73//81 12//80
f 72//63 12//80 10//59
f 4//57 67//55 2//54
f 4//57 6//62 44//58
f 64//61 44//58 6//62
f 64//61 9//60 85//78
f 38//43 19//82 8//42
f 46//83 47//84 20//85
f 22//86 47//84 48//87
f 22//86 20//85 47//84
f 29//88 52//89 53//90
f 54//91 31//92 53//90
f 54//91 55//93 33//94
f 33//94 31//92 54//91
f 18//53 33//94 55//93
f 43//51 18//53 55//93
f 31//92 29//88 53//90
f 52//89 27//95 51//96
f 52//89 29//88 27//95
f 27//95 50//97 51//96
f 25//98 50//97 27//95
f 49//99 50//97 25//98
f 49//99 25//98 23//100
f 49//99 23//100 48//87
f 23//100 22//86 48//87
f 46//83 20//85 19//82
f 19//82 38//43 46//83
f 34//101 39//102 56//103
f 40//104 56//103 39//102
f 40//104 57//105 56//103
f 40//104 41//106 57//105
f 58//107 57//105 41//106
f 42//108 58//107 41//106
f 43//109 58//107 42//108
f 59//110 58//107 43//109
f 60//111 34//101 56//103
f 34//101 60//111 35//112
f 35//112 60//111 61//113
f 61//113 36//114 35//112
f 62//115 36//114 61//113
f 37//116 36//114 62//115
f 62//115 38//117 37//116
f 38//117 62//115 63//118
f 44//58 64//61 66//119
f 70//120 68//56 69//121
f 74//73 73//81 71//122
f 85//78 65//123 64//61
f 66//119 64//61 65//123
f 69//121 68//56 67//55
f 68//56 70//120 72//63
f 73//81 72//63 71//122
f 80//70 82//124 45//71
f 77//125 83//126 79//67
f 85//78 76//75 84//127
f 74//73 81//128 80//70
f 82//124 80//70 81//128
f 77//125 79//67 78//66
f 79//67 83//126 75//72
f 76//75 75//72 84//127
f 52//129 51//130 88//131
f 88//131 51//130 50//132
f 49//133 89//134 50//132
f 91//135 48//136 47//137
f 91//135 47//137 46//138
f 63//118 91//135 46//138
f 46//138 38//117 63//118
f 48//136 91//135 90//139
f 48//136 90//139 49//133
f 90//139 89//134 49//133
f 88//131 50//132 89//134
f 88//131 87//140 52//129
f 87//140 53//141 52//129
f 86//142 53//141 87//140
f 53//141 86//142 54//143
f 54//143 86//142 55//144
f 86//142 59//110 55//144
f 55//144 59//110 43//109
f 58//145 105//146 57//147
f 110//148 86//149 87//150
f 93//151 59//152 86//149
f 93//151 116//153 59//152
f 58//145 59//152 116//153
f 91//154 117//155 114//156
f 63//157 62//158 94//159
f 62//158 100//160 94//159
f 60//161 115//162 61//163
f 61//163 115//162 100//160
f 103//164 57//147 105//146
f 116//153 105//146 58//145
f 117//155 63//157 94//159
f 63//157 117//155 91//154
f 114//156 90//165 91//154
f 114//156 113//166 90//165
f 103//164 56//167 57//147
f 115//162 56//167 103//164
f 115//162 60//161 56//167
f 100//160 62//158 61//163
f 113//166 89//168 90//165
f 92//169 89//168 113//166
f 92//169 88//170 89//168
f 87//150 88//170 92//169
f 87//150 92//169 110//148
f 86//149 110//148 93//151
f 66//171 96//172 97//173
f 66//171 65//174 95//175
f 95//175 96//172 66//171
f 94//176 95//175 65//174
f 85//177 94//176 65//174
f 85//177 99//178 94//176
f 85//177 84//179 98//180
f 85//177 98//180 99//178
f 101//181 69//182 102//183
f 44//184 97//185 100//186
f 44//184 66//187 97//185
f 100//186 67//188 44//184
f 115//189 67//188 100//186
f 102//183 67//188 115//189
f 102//183 69//182 67//188
f 104//190 71//191 105//192
f 72//193 70//194 103//195
f 70//194 69//196 101//197
f 103//195 70//194 101//197
f 105//192 72//193 103//195
f 105//192 71//191 72//193
f 82//198 107//199 108//200
f 82//198 81//201 106//202
f 106//202 107//199 82//198
f 93//203 106//202 81//201
f 74//204 93//203 81//201
f 74//204 109//205 93//203
f 74//204 71//206 104//207
f 74//204 104//207 109//205
f 111//208 77//209 112//210
f 45//211 108//212 110//213
f 45//211 82//214 108//212
f 110//213 78//215 45//211
f 92//216 78//215 110//213
f 112//210 78//215 92//216
f 112//210 77//209 78//215
f 98//217 84//218 114//219
f 75//220 83//221 113//222
f 83//221 77//223 111//224
f 113//222 83//221 111//224
f 114//219 75//220 113//222
f 114//219 84//218 75//220
f 96//225 95//226 100//160
f 116//153 104//227 105//146
f 93//151 109//228 116//153
f 104//227 116//153 109//228
f 115//162 103//164 102//229
f 101//230 102//229 103//164
f 96//225 100//160 97//231
f 100//160 95//226 94//159
f 114//156 117//155 98//232
f 110//148 107//233 106//234
f 94//159 99//235 117//155
f 98//232 117//155 99//235
f 92//169 113//166 112//236
f 111//237 112//236 113//166
f 107//233 110//148 108//238
f 110//148 106//234 93//151
